<svg id="Capa_1" enable-background="new 0 0 512 512" height="512" viewBox="0 0 512 512" width="512" xmlns="http://www.w3.org/2000/svg"><g><g><path d="m371.272 369.362s-50.928 14.202-82.982 47.138c-4.52 4.644-4.526 12.034.03 16.641 17.82 18.02 65.098 60.842 120.925 71.158 6.299 1.164 12.376-2.913 13.72-9.175 4.173-19.441 12.222-60.6 11.332-85.113z" fill="#fef1da"/></g><g><path d="m422.969 495.126c-1.349 6.266-7.425 10.332-13.72 9.173-3.607-.669-7.185-1.469-10.712-2.388 2.458-1.659 4.307-4.227 4.976-7.345 4.167-19.446 17.218-69.37 16.328-93.882l14.46 9.323c.889 24.513-7.165 65.674-11.332 85.119z" fill="#fae2c0"/></g><g><path d="m434.298 410.011c30.59-41.039 54.838-84.626 46.099-137.2-7.633-45.921-33.111-89.353-64.461-123.171-46.588-50.256-113.105-83.108-182.383-81.526-67.716 1.548-138.616 45.205-158.975 111.346-7.046 22.896-.21 48.471 14.132 67.136 16.546 21.533 41.557 35.01 67.142 44.114 45.622 16.233 94.451 20.193 142.56 18.81 24.374-.701 48.689-2.782 72.93-5.354 44.401-4.711 11.731 48.947-.07 65.196z" fill="#fd9468"/></g><g><path d="m434.301 410.008-14.46-9.323c27.56-38.712 47.905-80.052 39.741-129.147-7.694-46.327-33.406-90.145-65.033-124.271-36.694-39.581-85.638-68.471-138.6-78.463 61.066 5.056 118.445 36.024 159.985 80.842 31.347 33.815 56.829 77.244 64.463 123.171 8.744 52.572-15.508 96.15-46.096 137.191z" fill="#fe7d43"/></g><g><path d="m462.948 218.307c-11.961-25.272-28.459-48.655-47.016-68.671-46.586-50.254-113.098-83.1-182.379-81.521-3.907.09-7.834.32-11.752.689 4.667-11.891 10.612-23.293 18.197-33.426 7.075-9.463 17.697-22.264 29.009-26.611 16.248-6.236 23.763 12.671 36.224 17.667 14.04 5.636 30.318-3.907 44.998 3.218 23.133 11.232 21.455 39.611 51.413 41.98 10.762.859 20.765-1.989 30.168 4.667 14.929 10.552 4.427 31.108 14.29 42.539 9.943 11.522 31.897-2.428 40.281 12.491 1.529 2.718 1.909 5.916 2.128 9.024 1.949 27.96-7.434 56.569-25.561 77.954z" fill="#fef1da"/></g><g><path d="m462.95 218.306c-3.597-7.585-7.595-14.999-11.941-22.204 12.711-19.676 18.996-43.499 17.367-66.872-.13-1.819-.31-3.667-.749-5.436 7.505-.14 14.709.33 18.757 7.535 1.529 2.718 1.909 5.916 2.128 9.024 1.948 27.959-7.435 56.569-25.562 77.953z" fill="#fae2c0"/></g><g><path d="m255.757 212.288c7.65 18.469 37.268 55.936 61.07 48.597 30.984-9.554 31.983-70.934 33.337-96.121.71-13.208-1.925-28.313-17.631-30.072-24.345-2.726-56.206 13.037-78.836 20.88-.001 0 2.059 56.714 2.06 56.716z" fill="#ffc5ad"/></g><g><path d="m350.161 164.765c-1.349 25.192-2.348 86.568-33.336 96.121-5.636 1.739-11.592.959-17.507-1.479 26.631-17.387 27.67-76.375 29.029-101.766.43-8.054-.27-16.758-3.947-23.213 2.778-.1 5.506-.03 8.134.27 15.709 1.757 18.337 16.856 17.627 30.067z" fill="#fead8a"/></g><g><path d="m275.073 176.157c-5.856 48.305-12.451 92.693-38.702 131.635-27.4-2.558-54.481-7.814-80.522-17.078-25.582-9.104-50.593-22.584-67.142-44.118-14.34-18.667-21.175-44.238-14.13-67.132 20.355-66.142 91.264-109.801 158.975-111.35 9.983-.23 19.916.26 29.739 1.419 12.962 33.477 16.149 70.63 11.782 106.624z" fill="#fe7d43"/></g><g><path d="m275.076 176.156c-5.856 48.305-12.451 92.693-38.702 131.635-6.495-.61-12.971-1.369-19.416-2.298 25.012-39.192 31.467-83.72 37.213-132.085 4.217-35.474 1.389-72.048-10.472-105.284 6.565.17 13.111.649 19.596 1.409 12.96 33.476 16.147 70.629 11.781 106.623z" fill="#fd6930"/></g><g><circle cx="172.348" cy="111.039" fill="#fef1da" r="42.978"/></g><g><path d="m215.329 111.043c0 23.733-19.246 42.979-42.979 42.979-12.271 0-23.343-5.146-31.178-13.4 4.207 1.379 8.714 2.128 13.38 2.128 23.743 0 42.979-19.246 42.979-42.979 0-11.472-4.487-21.884-11.811-29.589 17.188 5.617 29.609 21.785 29.609 40.861z" fill="#fae2c0"/></g><g><path d="m124.395 189.694c-.292-4.19-1.452-8.245-3.882-11.925-10.037-15.201-47.571-27.299-65.013-29.12-9.234-.963-19.586-.444-26.277 5.992-6.611 6.359-7.544 17.193-3.713 25.534 8.653 18.828 30.694 22.176 50.27 22.22-8.329 2.721-16.112 6.643-21.447 13.42-13.083 16.618 2.115 35.653 20.247 36.695 20.936 1.203 37.025-20.212 44.356-37.883 3.145-7.578 6.046-16.529 5.459-24.933z" fill="#fef1da"/></g><g><path d="m118.938 214.628c-7.335 17.667-23.423 39.082-44.358 37.883-7.285-.42-14.1-3.747-18.786-8.654.19.03.39.04.58.05 20.935 1.209 37.033-20.206 44.358-37.883 3.148-7.575 6.046-16.528 5.456-24.932-.29-4.187-1.449-8.244-3.877-11.921-2.828-4.277-7.824-8.304-13.93-11.932 13.71 5.256 26.801 12.451 32.137 20.525 2.428 3.688 3.587 7.734 3.877 11.932.589 8.405-2.319 17.358-5.457 24.932z" fill="#fae2c0"/></g><g><circle cx="172.348" cy="111.039" r="15.184"/><path d="m394.048 229.556c1.079-4.99.794-10.103-.718-14.839 8.929-3.352 15.959-11.054 18.086-20.884 2.447-11.314-2.081-22.941-11.537-29.621-3.381-2.39-8.057-1.584-10.446 1.796-2.388 3.381-1.584 8.058 1.797 10.446 4.536 3.206 6.709 8.784 5.535 14.211-1.462 6.758-7.75 11.409-14.629 10.84-3.086-.256-6.009 1.403-7.364 4.184-1.356 2.781-.863 6.11 1.241 8.379 3.072 3.313 4.337 7.918 3.385 12.319-1.222 5.646-5.884 9.972-11.602 10.765-2.359.327-4.421 1.755-5.557 3.847s-1.211 4.599-.201 6.756c1.29 2.754 1.631 5.783.987 8.761-1.61 7.442-8.973 12.187-16.418 10.578-4.041-.879-8.034 1.695-8.91 5.74-.875 4.046 1.695 8.035 5.741 8.91 2.043.442 4.083.655 6.094.655 13.262 0 25.227-9.236 28.142-22.712.731-3.376.854-6.785.382-10.117 8.009-3.752 14.061-11.093 15.992-20.014z"/><path d="m435.417 231.19c-3.656 1.94-5.046 6.478-3.106 10.133 1.508 2.841 1.538 6.238.081 9.089-1.87 3.66-5.865 5.782-9.941 5.284-2.362-.288-4.723.562-6.358 2.292s-2.35 4.135-1.928 6.478c.385 2.128.066 4.273-.92 6.203-2.465 4.822-8.392 6.742-13.217 4.275-3.684-1.881-8.2-.423-10.084 3.263s-.423 8.2 3.263 10.085c3.605 1.842 7.456 2.715 11.251 2.715 9.029 0 17.75-4.94 22.134-13.517 1.195-2.338 2.002-4.803 2.411-7.329 7.086-1.584 13.318-6.24 16.736-12.928 3.682-7.205 3.612-15.78-.188-22.938-1.94-3.656-6.478-5.048-10.134-3.105z"/><path d="m487.79 271.584c-2.878-17.318-8.344-34.878-16.107-52.161 17.455-22.456 26.282-51.187 24.302-79.597-.282-3.985-.849-8.219-3.071-12.168-6.669-11.867-18.856-11.541-27.751-11.302-6.875.184-11.208.114-13.389-2.413-2.714-3.145-2.983-8.407-3.295-14.5-.485-9.494-1.09-21.309-12.34-29.261-8.76-6.2-17.767-6.039-25.713-5.903-2.839.05-5.519.096-8.194-.117-13.636-1.078-18.578-8.35-25.418-18.415-5.474-8.056-11.678-17.186-23.313-22.835-9.627-4.671-19.348-3.656-27.926-2.761-6.762.707-12.603 1.316-17.555-.67-3.156-1.266-6.37-4.261-9.772-7.434-7.223-6.734-17.116-15.956-31.929-10.273-2.815 1.081-5.705 2.623-8.588 4.582-3.424 2.325-4.315 6.986-1.989 10.41 2.326 3.425 6.987 4.316 10.41 1.989 1.934-1.313 3.799-2.319 5.539-2.988 5.544-2.127 8.883.295 16.334 7.244 4.06 3.785 8.662 8.075 14.412 10.381 8.396 3.371 17.055 2.465 24.693 1.668 7.537-.787 14.045-1.469 19.823 1.337 8.034 3.901 12.613 10.64 17.462 17.775 7.417 10.916 15.825 23.288 36.628 24.933 3.395.271 6.571.215 9.642.162 6.727-.122 12.043-.211 16.797 3.153 5.051 3.571 5.58 9.086 6.025 17.79.396 7.729.844 16.489 6.916 23.527 6.983 8.091 17.051 7.823 25.139 7.604 9.186-.244 12.352.226 14.285 3.665.811 1.442 1.036 3.789 1.183 5.87 1.552 22.264-4.513 44.759-16.821 63.296-.26-.486-.531-.97-.794-1.455-3.415-6.307-7.162-12.585-11.072-18.602-9.132-14.051-19.521-27.28-30.912-39.567-24.125-26.024-53.535-47.435-85.05-61.917-24.645-11.325-49.907-18.307-75.398-20.886-7.042-.728-14.121-1.116-21.143-1.172-2.101-.013-4.202 0-6.304.047 3.17-6.57 6.684-12.612 10.503-18.048 2.38-3.387 1.563-8.062-1.824-10.441-3.387-2.38-8.062-1.563-10.441 1.824-5.76 8.2-10.871 17.567-15.228 27.891-7.323.876-14.633 2.188-21.873 3.944-6.736-3.337-14.314-5.222-22.326-5.222-23.979 0-44.092 16.814-49.204 39.268-17.391 13.331-31.722 29.335-42.148 46.951-9.966-3.096-19.101-5.002-24.718-5.588-14.499-1.518-25.048 1.116-32.251 8.043-8.566 8.239-10.756 22.247-5.328 34.065 4.78 10.401 13.309 17.833 25.35 22.09 2.386.844 4.923 1.566 7.623 2.17-1.156 1.142-2.23 2.346-3.229 3.615-6.934 8.808-8.416 19.399-4.066 29.057 4.992 11.081 16.956 19.02 29.772 19.755.71.041 1.414.062 2.115.062 4.277 0 8.363-.758 12.239-2.104 15.131 16.625 36.416 29.713 64.831 39.825 12.846 4.572 26.01 8.228 39.348 11.054 34.748 7.364 70.502 9.201 105.943 8.182 21.508-.619 44.178-2.282 73.505-5.393 4.164-.44 11.449-.675 13.414 2.723 3.884 6.719-4.534 28.197-18.881 48.577-4.513 1.406-14.482 4.746-26.74 10.282-3.773 1.703-5.45 6.142-3.746 9.915 1.703 3.773 6.143 5.453 9.915 3.745 10.647-4.807 19.546-7.874 24.041-9.315l56.737 36.594c-.039 24.523-7.771 63.281-11.234 79.411-.499 2.323-2.703 3.805-5.031 3.378-5.783-1.069-11.469-2.524-17.046-4.258 9.745-22.633 12.718-42.901 12.852-43.845.583-4.098-2.266-7.893-6.364-8.475-4.1-.592-7.893 2.266-8.476 6.364-.03.212-2.884 19.683-12.142 40.864-9.316-3.818-18.211-8.347-26.551-13.236l27.2-33.227c2.622-3.203 2.151-7.925-1.052-10.547-3.202-2.62-7.925-2.15-10.547 1.052l-28.4 34.692c-8.437-5.646-16.126-11.474-22.877-17.017 13.691-13.917 36.746-25.951 37.005-26.085 3.677-1.901 5.116-6.422 3.216-10.099s-6.423-5.117-10.099-3.215c-1.176.608-26.006 13.556-41.488 29.608-4.93-4.455-9.042-8.449-12.19-11.632-1.686-1.706-1.681-4.404.013-6.144 6.472-6.651 14.319-13.036 23.323-18.98 3.455-2.28 4.406-6.929 2.126-10.383-2.281-3.455-6.93-4.406-10.384-2.125-9.902 6.536-18.585 13.614-25.807 21.036-7.32 7.521-7.288 19.695.072 27.137 7.75 7.836 15.904 15.272 24.425 22.262 7.766 6.371 15.637 12.279 24.03 17.826 12.247 8.095 25.317 15.626 38.826 21.465 12.025 5.198 24.687 9.312 37.612 11.705 1.207.223 2.405.331 3.587.331 8.956 0 16.868-6.195 18.823-15.302 4.517-21.041 11.859-59.294 11.556-84.292 28.257-38.257 55.26-84.779 45.943-140.826zm-315.442-196.029c19.566 0 35.484 15.918 35.484 35.484s-15.918 35.484-35.484 35.484-35.484-15.918-35.484-35.484 15.918-35.484 35.484-35.484zm-96.142 169.508c-.397 0-.797-.012-1.195-.034-7.274-.418-14.25-4.919-16.965-10.947-2.066-4.586-1.333-9.171 2.177-13.63 3.679-4.673 9.362-8.146 17.886-10.933 3.499-1.144 5.65-4.659 5.075-8.294-.575-3.636-3.705-6.317-7.386-6.325-24.088-.054-37.903-5.727-43.476-17.854-2.722-5.926-1.82-13.236 2.098-17.003 2.953-2.84 7.781-4.268 14.395-4.268 1.833 0 3.803.109 5.909.33 7.241.755 20.335 3.844 33.266 9.041 13.157 5.288 22.733 11.395 26.271 16.754 1.565 2.369 2.435 5.09 2.66 8.316v.001c.52 7.454-2.55 15.863-4.904 21.539-6.959 16.772-20.63 33.309-35.811 33.307zm82.156 38.591c-24.513-8.724-43.066-19.653-56.375-33.226 10.77-8.441 18.995-21.168 23.874-32.93 2.935-7.077 6.752-17.714 6.012-28.326v.001c-.404-5.79-2.121-11.016-5.104-15.534-5.916-8.959-18.29-16.269-31.381-21.684 7.249-11.683 16.432-22.569 27.246-32.263 4.117 23.721 24.836 41.821 49.715 41.821 27.831 0 50.473-22.642 50.473-50.473 0-12.697-4.723-24.305-12.491-33.185 7.785-1.305 15.612-2.069 23.396-2.247 1.529-.035 3.063-.053 4.6-.053 6.49 0 13.039.314 19.561.938 10.628 29.677 13.999 63.712 9.746 98.762v.001c-5.888 48.573-12.276 88.835-35.043 124.632-27.217-2.841-51.541-8.164-74.229-16.234zm274.078 116.24-50.62-32.647c3.757-5.723 8.881-14.184 13.019-23.411 7.37-16.434 8.575-28.536 3.684-36.996-4.733-8.187-14.144-11.597-27.972-10.127-28.93 3.069-51.245 4.708-72.354 5.315-17.181.494-33.444.225-48.906-.782 9.896-17.111 16.54-34.971 21.4-54.006 11.325 12.042 25.505 22.094 39.759 22.091 2.865 0 5.738-.407 8.586-1.285 34.114-10.519 36.878-67.374 38.363-97.92.086-1.774.167-3.435.249-4.961 1.637-30.446-14.51-36.827-24.28-37.921-15.405-1.728-32.628 2.946-49.184 8.847-.818-20.029-4.08-39.363-9.752-57.385 18.788 3.288 37.412 9.14 55.694 17.541 29.744 13.668 57.517 33.892 80.316 58.487 33.577 36.22 55.796 78.59 62.564 119.305 8.119 48.853-14.064 89.385-40.566 125.855zm-148.112-247.9c16.435-6.11 33.568-11.398 47.37-9.854 2.619.293 8.667.981 10.523 11.589-22.121 2.978-38.773 9.377-39.543 9.676-3.856 1.498-5.766 5.837-4.27 9.694 1.151 2.968 3.986 4.786 6.991 4.786.9 0 1.815-.163 2.704-.507.167-.064 14.895-5.7 34.351-8.543-.009.192-.018.37-.028.565-.329 6.759-.788 16.182-1.88 26.308l-31.687-5.567c-4.077-.714-7.962 2.008-8.678 6.084-.716 4.077 2.008 7.962 6.084 8.678l32.211 5.659c-1.554 8.844-3.749 17.514-6.9 24.79-13.707-6.1-25.417-13.737-25.642-13.885-3.458-2.274-8.105-1.315-10.38 2.144-2.274 3.458-1.314 8.106 2.144 10.38.566.372 11.815 7.728 25.77 14.145-2.571 2.621-5.502 4.554-8.85 5.587-10.268 3.164-22.719-6.72-29.225-12.895-3.904-3.705-7.482-7.755-10.629-11.788 3.21-16.357 5.521-33.602 7.749-51.981v.001c1.022-8.418 1.62-16.786 1.815-25.066z"/></g></g></svg>