<svg id="Layer_1" enable-background="new 0 0 508.92 508.92" height="512" viewBox="0 0 508.92 508.92" width="512" xmlns="http://www.w3.org/2000/svg"><path d="m291.378 268.648c20.357 38.817-6.712 62.192-44.76 82.146s-79.697 15.527-93.025-9.887 6.712-62.192 44.76-82.146c38.048-19.953 68.892-36.129 93.025 9.887z" fill="#f0a567"/><path d="m277.845 313.435c43.648 4.007 48.558 39.433 44.63 82.216s-30.278 75.339-58.855 72.715-48.558-39.433-44.63-82.216 7.112-77.466 58.855-72.715z" fill="#fdaa6a"/><path d="m312.331 433.034c-2.723-25.677-14.219-44.172-45.03-47-27.058-2.484-40.833 5.819-48.384 20.421 5.852 67.88 65.102 84.91 93.414 26.579z" fill="#fcbc80"/><g fill="#f0a567"><path d="m349.893 184.078c19.591-39.21 54.38-30.915 92.813-11.712s59.191 55.58 46.365 81.251-54.38 30.915-92.813 11.712-69.589-34.769-46.365-81.251z"/><path d="m171.604 249.138c0 43.832-34.828 51.96-77.792 51.96s-77.792-23.263-77.792-51.96 34.828-51.96 77.792-51.96 77.792 0 77.792 51.96z"/><path d="m382.788 92.336c0 43.832-34.828 51.96-77.792 51.96s-77.792-23.263-77.792-51.96 34.828-51.96 77.792-51.96 77.792-.001 77.792 51.96z"/><path d="m262.114 191.613c-22.288 37.742-56.411 27.031-93.405 5.185s-55.154-59.588-40.562-84.298 56.411-27.031 93.405-5.185 66.984 39.557 40.562 84.298z"/><path d="m467.254 379.109c-22.288 37.742-56.411 27.031-93.405 5.185s-55.154-59.588-40.562-84.298 56.411-27.031 93.405-5.185 66.984 39.556 40.562 84.298z"/></g><path d="m239.301 241.437c-27.118-34.436-4.784-62.37 28.97-88.95s75.509-29.851 93.263-7.306 4.784 62.37-28.97 88.95-61.116 48.129-93.263 7.306z" fill="#fdaa6a"/><path d="m361.533 145.181c-15.812-20.079-50.657-19.664-81.936-.56-21.047 21.713-29.843 44.967-8.399 72.197 22.567 28.657 42.829 27.259 64.482 14.773 31.421-26.522 43.051-64.572 25.853-86.41z" fill="#fcbc80"/><path d="m327.037 130.222c-14.988 19.148-19.022 39.691-.51 63.198 8.829 11.212 17.305 17.807 25.649 20.953 30.958-40.302 18.849-83.637-25.139-84.151z" fill="#f7caa9"/><path d="m272.584 345.358c-27.118-34.436-4.784-62.37 28.97-88.95s75.509-29.851 93.263-7.306 4.784 62.37-28.97 88.95c-33.753 26.58-61.116 48.128-93.263 7.306z" fill="#f0a567"/><path d="m394.817 249.102c-15.812-20.079-50.657-19.664-81.936-.56-21.047 21.713-29.843 44.967-8.399 72.197 22.567 28.657 42.829 27.259 64.482 14.773 31.42-26.523 43.05-64.572 25.853-86.41z" fill="#fdaa6a"/><path d="m360.32 234.143c-14.988 19.148-19.022 39.691-.51 63.198 8.829 11.212 17.305 17.807 25.649 20.953 30.959-40.302 18.849-83.637-25.139-84.151z" fill="#fcbc80"/><path d="m160.76 279.7c20.857 38.551-5.907 62.274-43.695 82.717-37.787 20.444-79.49 16.556-93.145-8.684s5.907-62.274 43.695-82.717 68.42-37.017 93.145 8.684z" fill="#f0a567"/><path d="m23.921 353.733c12.161 22.479 46.568 28.004 80.644 14.506 24.437-17.812 37.065-39.228 20.572-69.712-17.357-32.082-37.561-34.155-61.024-25.539-35.48 20.784-53.419 56.298-40.192 80.745z" fill="#fdaa6a"/><path d="m55.366 374.348c18.03-16.316 25.504-35.871 11.266-62.188-6.791-12.552-14.019-20.494-21.706-25.015-37.371 34.442-32.818 79.206 10.44 87.203z" fill="#fcbc80"/><path d="m218.777 105.739c-36.288-20.129-76.401-17.333-90.63 6.761-11.59 19.626-2.503 47.465 20.256 69.039 30.493 14.964 57.942 17.844 76.862-14.195 17.199-29.123 10.491-46.792-6.488-61.605z" fill="#fdaa6a"/><path d="m222.147 108.863c-1.073-1.056-2.194-2.098-3.37-3.124-32.003-17.752-77.457-20.546-91.965 9.276 3.803 5.737 8.493 11.314 13.99 16.525 37.097 18.205 63.829 14.997 81.345-22.677z" fill="#fcbc80"/><path d="m467.254 379.109c18.729-31.716 9.108-49.848-11.257-65.5-57.202-4.093-71.794 49.111-26.373 90.46 14.484-.42 27.323-7.506 37.63-24.96z" fill="#fdaa6a"/><path d="m449.258 226.366c14.667 7.328 29.783 11.084 43.588 11.516.44-23.243-19.069-49.991-50.141-65.515-15.793-7.891-30.97-13.936-44.73-15.604-12.719 37.616 16.256 52.102 51.283 69.603z" fill="#fcbc80"/><path d="m304.996 40.375c-11.74 0-22.863 1.747-32.844 4.857-12.975 33.357 25.039 65.063 75.293 65.063 12.032 0 23.424-.639 33.594-2.52 1.136-4.58 1.749-9.696 1.749-15.44 0-51.96-34.828-51.96-77.792-51.96z" fill="#fdaa6a"/><path d="m382.779 91.541c-.319-45.627-27.945-50.567-64.239-51.1.043 25.581 27.768 46.818 64.239 51.1z" fill="#f7caa9"/><path d="m503.384 260.768c17.033-34.09-6.479-79.208-53.526-102.715-21.793-10.889-47.724-21.337-71.464-16.561 10.811-9.245 20.395-24.419 20.395-49.157 0-29.987-10.794-50.171-32.082-59.993-17.268-7.967-38.855-7.967-61.71-7.967-49.034 0-88.157 25.95-93.228 60.346-80.926-32.448-136.678 33.497-84.541 97.503-10.547-1.041-21.816-1.046-33.415-1.046-82.041 0-119.793 67.389-74.254 109.943-51.893 70.286 28.136 142.25 129.812 70.503 11.344 10.986 29.687 18.78 54.19 17.638-9.226 97.817 66.862 134.579 111.168 79.84 18.914-23.367 24.276-51.841 24.802-81.403 19.484 19.802 58.387 41.144 85.844 42.333 40.564 1.768 55.657-34.696 55.657-32.787 15.248-25.821 16.218-48.69 2.882-67.972-7.322-10.587-18.21-19.035-30.582-26.995 21.013-2.43 40.622-12.635 50.052-31.51zm-67.829-74.089c15.561 7.774 28.558 19.371 35.659 31.817 20.15 35.31-16.027 50.853-54.986 37.827-6.487-21.498-24.633-34.765-47.362-37.608 10.215-14.939 15.941-30.95 16.609-46.005 11.134-1.599 30.484 4.178 50.08 13.969zm-122.377 122.417c-.303-.214-.605-.429-.917-.64 2.902-10.409 3.164-23.186-2.563-38.083 2.564-2.051 5.662-3.265 15.702-10.575 9.965-5.403 20.396-8.758 30.033-9.513 12.525-.982 25.36 2.276 29.787 14.031-41.297-4.021-67.208 17.673-72.042 44.78zm-125.605-62.676c-.195-8.687-1.339-16.509-3.41-23.466 11.573 5.176 21.747 8.148 31.279 9.195.161.406-13.316 6.102-27.869 14.271zm64.298-14.881c-6.321-8.027-12.009-17.998-6.262-31.091 4.462-10.165 14.808-21.411 32.561-35.39 37.447-29.491 87.054-25.079 72.98 18.131-7.213 22.147-24.465 35.862-43.009 49.58-5.141 2.915-10.158 6.234-14.991 9.931-16.584 9.208-26.604 7.472-41.279-11.161zm53.125-175.164c50.083 0 61.792 3.316 61.792 35.96 0 10.65-1.493 20.688-12.931 27.437-22.873-10.149-50.182-5.339-72.484 5.623-3.905-.988-7.65-2.217-11.178-3.672-6.656-6.544-14.71-12.317-23.466-17.875-14.766-23.624 18.955-47.473 58.267-47.473zm-134.446 51.961c13.567 0 28.997 4.566 42.867 12.756 14.782 8.729 28.814 17.028 36.515 25.719-16.5 14.002-32.824 31.166-37.399 52.387-9.565-2.328-21.17-7.604-35.688-16.179-42.835-25.293-54.738-74.683-6.295-74.683zm-76.737 104.842c49.05 0 61.284 3.2 61.768 33.998-29.1-24.493-61.73-8.002-94.753 9.317-6.64 3.482-12.882 7.463-18.631 11.85-28.955-25.739 8.245-55.165 51.616-55.165zm15.28 135.346c-42.361 22.214-90.132 8.642-68.431-31.182 6.855-12.583 19.623-24.433 35.027-32.511 22.041-11.559 36.067-17.991 46.465-17.991 9.821 0 16.405 5.749 23.438 18.332-8.988 14.274-14.129 31.069-11.303 47.831-6.459 4.94-14.76 10.049-25.196 15.521zm83.433-1.571c-45.279-4.811-28.929-51.897 13.258-74.022 11.219-5.884 20.354-10.431 27.998-13.485 12.462 13 27.474 21.567 45.39 20.619 7.086 15.578 6.565 32.147-39.984 56.559-15.406 8.079-32.416 11.844-46.662 10.329zm114.017 47.235c-4.371 47.598-41.716 80.374-63.365 40.497-10.984-20.234-9.053-41.664-6.781-62.013 17.911-6.31 45.017-21.754 59.481-36.778 8.809 7.356 13.891 23.157 10.665 58.294zm146.934-23.215c-5.195 8.797-12.422 17.72-26.718 17.089-11.09-.481-25.317-6.056-44.773-17.546-14.978-8.845-27.131-21.323-33.345-34.235-19.658-40.854 28.661-52.054 69.916-27.692 39.308 23.211 52.68 32.311 34.92 62.384z"/></svg>