<svg id="Capa_1" enable-background="new 0 0 511.979 511.979" height="512" viewBox="0 0 511.979 511.979" width="512" xmlns="http://www.w3.org/2000/svg"><g><g><path d="m334.88 101.068c-26.134 0-50.554 7.709-71.316 21.079-4.637 2.986-10.511 2.986-15.148 0-20.762-13.37-45.182-21.079-71.316-21.079-75.496 0-136.698 64.318-136.698 143.66.002 118.324 52.389 272.11 188.445 258.992 0 0 10.357-1.283 21.412-6.187 3.664-1.626 7.799-1.626 11.463 0 11.055 4.904 21.412 6.187 21.412 6.187 136.056 13.118 188.443-140.667 188.445-258.992-.001-79.342-61.203-143.66-136.699-143.66z" fill="#e94444"/></g><g><path d="m471.58 244.732c0 116.666-50.93 267.808-182.782 259.441 116.646-7.748 162.265-149.035 162.265-259.441 0-75.711-55.722-137.733-126.411-143.265 3.375-.269 6.779-.399 10.224-.399 75.501 0 136.704 64.318 136.704 143.664z" fill="#d83131"/></g><g><path d="m328.693 111.144c8.137-4.33 15.481-10.26 21.678-17.041 9.681-10.594 16.153-23.779 17.719-38.055.173-1.579-.603-3.115-1.978-3.911-12.261-7.094-26.503-9.723-40.592-8.316-11.454 1.143-23.326 4.426-32.914 11.044-15.27 10.54-27.662 26.252-31.589 44.746-.374 1.761-.672 3.537-.895 5.324-.037.296-.143 1.583-.243 2.821-.126 1.57.684 3.069 2.068 3.823 3.527 1.921 7.237 3.505 11.062 4.732 17.937 5.75 38.983 3.721 55.684-5.167z" fill="#00c27a"/></g><g><path d="m368.093 56.049c-1.568 14.277-8.037 27.457-17.722 38.05-6.2 6.789-13.539 12.72-21.676 17.043-16.704 8.886-37.751 10.923-55.682 5.172-3.824-1.228-7.538-2.816-11.063-4.733-1.388-.759-2.197-2.256-2.067-3.824.1-1.238.2-2.526.24-2.825.02-.14.03-.27.06-.41 17.542 5.102 37.8 2.926 53.975-5.691 8.137-4.323 15.476-10.254 21.676-17.033 9.056-9.904 15.306-22.085 17.353-35.294 4.483 1.378 8.816 3.255 12.93 5.631 1.367.798 2.146 2.336 1.976 3.914z" fill="#08b865"/></g><g><path d="m238.081 121.728c-2.595-17.763-6.077-65.83-2.832-95.288 1.461-13.263 14.587-21.948 27.332-17.996.182.057.365.113.548.169 10.205 3.136 16.441 13.41 14.589 23.924-3.269 18.555-7.51 62.884-7.812 87.024-.11 8.784-7.21 15.867-15.994 15.867-7.949 0-14.682-5.834-15.831-13.7z" fill="#d77f4a"/></g><g><path d="m277.716 32.536c-3.265 18.561-7.508 62.881-7.808 87.023-.11 8.786-7.209 15.865-15.995 15.865-3.694 0-7.139-1.258-9.864-3.405 3.694-2.895 6.08-7.398 6.14-12.46.3-24.142 4.543-68.462 7.808-87.023 1.657-9.375-3.125-18.561-11.412-22.655 4.723-2.476 10.394-3.175 15.995-1.438.18.06.369.11.549.17 10.204 3.135 16.444 13.409 14.587 23.923z" fill="#c86d36"/></g><g><path d="m273.305 149.439c-10.4 9.366-28.19 9.615-38.847.547-3.151-2.68-7.876-2.298-10.556.851-2.68 3.15-2.299 7.876.85 10.556 8.002 6.808 18.381 10.194 28.764 10.194 10.832 0 21.668-3.686 29.812-11.02 3.072-2.768 3.32-7.502.553-10.576-2.77-3.073-7.505-3.319-10.576-.552z"/><path d="m358.875 95.692c9.374-11.461 15.118-24.793 16.659-38.83.494-4.527-1.732-8.925-5.673-11.206-13.296-7.692-28.884-10.902-45.085-9.286-14.193 1.417-26.788 5.681-36.424 12.333-2.065 1.426-4.048 2.918-5.956 4.466.913-7.746 1.846-14.501 2.697-19.333 2.505-14.227-5.991-28.148-19.764-32.38l-.53-.164c-8.192-2.539-17.001-1.301-24.171 3.398-7.203 4.722-11.878 12.35-12.823 20.931-.566 5.142-.959 11.063-1.17 17.6-.134 4.133 3.109 7.592 7.243 7.726 4.181.138 7.593-3.109 7.726-7.243.199-6.152.564-11.685 1.088-16.444.453-4.12 2.694-7.781 6.146-10.044 3.417-2.241 7.621-2.831 11.525-1.619l.565.175c6.565 2.017 10.612 8.667 9.414 15.467-3.305 18.768-7.612 63.168-7.924 88.228-.058 4.672-3.875 8.473-8.507 8.473-4.193 0-7.813-3.136-8.421-7.294-1.09-7.462-2.667-23.001-3.523-42.238-.183-4.131-3.671-7.316-7.813-7.148-4.132.184-7.332 3.682-7.148 7.814.367 8.262.919 16.745 1.569 24.446-16.338-6.541-33.769-9.94-51.476-9.94-79.505 0-144.186 67.805-144.186 151.148.001 42.4 6.717 86.694 18.911 124.721 14.172 44.197 35.737 80.338 62.361 104.519 13.423 12.191 28.9 22.093 45.853 28.597 8.536 3.275 17.395 5.686 26.403 7.24 14.039 2.421 28.97 2.735 43.124 1.369.067-.006.135-.014.202-.022.468-.058 11.595-1.481 23.528-6.774 1.738-.772 3.651-.771 5.39 0 11.932 5.293 23.059 6.716 23.527 6.774.067.008.135.016.202.022 41.072 3.961 81.524-7.746 112.859-34.992 13.924-12.107 25.676-26.566 35.488-42.157 2.203-3.5 1.152-8.123-2.349-10.326-3.498-2.202-8.122-1.152-10.326 2.348-15.344 24.378-33.815 42.77-54.898 54.665-23.273 13.132-49.923 18.367-79.214 15.566-.927-.125-9.78-1.404-19.216-5.59-5.572-2.472-11.965-2.473-17.537 0-9.36 4.152-18.328 5.467-19.224 5.591-40.2 3.849-75.111-7.391-103.744-33.397-24.683-22.417-44.798-56.307-58.169-98.006-11.733-36.589-18.194-79.258-18.195-120.147 0-75.085 57.963-136.172 129.21-136.172 18.478 0 36.624 4.161 53.273 12.107.799 5.99 2.837 11.386 7.287 15.66 4.343 4.172 10.221 6.593 16.251 6.593 10.927 0 20.202-7.622 22.772-17.842 5.753 1.324 11.695 1.983 17.663 1.982 13.1 0 26.316-3.156 37.865-9.302 4.6-2.448 9.003-5.38 13.189-8.742 66.344 5.661 118.69 64.363 118.69 135.715-.001 53.508-10.967 108.682-30.085 151.372-1.691 3.774-.001 8.204 3.773 9.895 3.769 1.691 8.204.002 9.895-3.773 20.244-45.202 31.393-101.134 31.394-157.493 0-74.775-52.069-137.023-120.191-149.037zm-14.031-6.641c-5.837 6.388-12.639 11.741-19.668 15.482-14.187 7.55-32.152 9.519-47.497 5.338.422-9.885 1.251-21.516 2.271-32.919 4.6-5.945 10.307-11.365 16.911-15.923 7.557-5.216 17.725-8.59 29.404-9.756 12.239-1.223 23.967.933 34.084 6.237-1.742 11.454-7.073 22.316-15.505 31.541z"/></g></g></svg>