<svg height="512" viewBox="0 0 60 60" width="512" xmlns="http://www.w3.org/2000/svg"><g id="049---Spices" fill="none"><g id="Icons" transform="translate(1)"><path id="Shape" d="m40 36c.0015901 1.0523623-.2128343 2.0938521-.63 3.06-2.22 5.21-10 9-19.37 9-11 0-20-5.4-20-12.06 0-5.63 6.48-10.35 15.17-11.64-1.5009475 1.2203675-2.6045055 2.8600389-3.17 4.71-4.66 1.35-9.66 4.62-7.5 8.93 1.76 3.46 8 6 15.5 6s13.72-2.55 15.5-6c.504495-.9410689.6297261-2.0395248.35-3.07-1.06-1.85-2.72-5.86-4.24-8.69 4.25 1.84 8.33 5.14 8.39 9.76z" fill="#ff9801"/><path id="Shape" d="m40.0000377 36.05-.0000377 4.57c-.0571205 2.247357-.9607162 4.3902719-2.53 6-3.41 3.78-9.95 6.38-17.47 6.38s-14.06-2.6-17.47-6.38c-1.56928377-1.6097281-2.47287954-3.752643-2.53-6v-4.57c0 6.66 9 12.06 20 12.06 9.32 0 17.15-3.84 19.37-9 .418812-.9656283.6333078-2.0074647.6300377-3.06z" fill="#f57c00"/><path id="Shape" d="m37.47 46.62-.22 1.08c-1.2898908 6.5627665-7.0416736 11.2965717-13.73 11.3h-7c-6.70336918.015713-12.47722224-4.7224525-13.77-11.3l-.22-1.08c3.41 3.78 9.95 6.38 17.47 6.38s14.06-2.6 17.47-6.38z" fill="#a0522d"/><path id="Shape" d="m33.72 49.58c-1.9483824 5.6280812-7.2442185 9.4073825-13.2 9.42h3c6.6883264-.0034283 12.4401092-4.7372335 13.73-11.3l.22-1.08c-1.0894083 1.1746535-2.3544509 2.1731938-3.75 2.96z" fill="#783e22"/><path id="Shape" d="m12 29.08c-.53 2.37-3 4.71-5.21 6.41l-.25.18c-.87.66-1.7 1.21-2.34 1.61-.13122929-.4140467-.19866836-.8456568-.2-1.28 0-3 3.22-5.55 8-6.92z" fill="#783e22"/><path id="Shape" d="m36 36c-.0032185.6971986-.1747464 1.3833102-.5 2-1.78 3.45-8 6-15.5 6s-13.74-2.54-15.5-6c-.11691361-.2325977-.21716565-.4732026-.3-.72.64-.4 1.47-1 2.34-1.61l.25-.18c2.22-1.7 4.68-4 5.21-6.41.5654945-1.8499611 1.6690525-3.4896325 3.17-4.71.8767325-.8003441 1.8239077-1.5199295 2.83-2.15.44-.27.9-.53 1.35-.76 1.2146204-.6445648 2.5191763-1.1030134 3.87-1.36.5853451-.1194715 1.1849567-.1531576 1.78-.1 2.15.28 3.83 1.83 5.26 4 .4879453.7231304.9385354 1.4707763 1.35 2.24 1.17 2.18 2.23 4.64 3.3 6.86l.36.74c.18.37.37.74.57 1.09.0979607.3485527.1517155.7080378.16 1.07z" fill="#ffdc00"/><path id="Shape" d="m35.85 34.93c-.2-.35-.39-.72-.57-1.09-2.8-5.59-5.28-13.15-10.28-13.84-.7436587-.0771558-1.4950912-.0229985-2.22.16 4.95 1.42 7.43 10.1 10.07 14.73.2904618 1.0428766.1649916 2.1577693-.35 3.11-1.66 3.22-7.21 5.65-14 6h1.5c7.46 0 13.72-2.55 15.5-6 .504495-.9410689.6297261-2.0395248.35-3.07z" fill="#fec108"/><path id="Shape" d="m30 10.08c-.53 2.37-3 4.71-5.21 6.41l-.25.18c-.87.66-1.7 1.21-2.34 1.61-.1312293-.4140467-.1986684-.8456568-.2-1.28 0-3 3.22-5.55 8-6.92z" fill="#783e22"/><path id="Shape" d="m58 17v.05c-.0048886 1.0323222-.2192134 2.0529164-.63 3-2.22 5.21-10 9.05-19.37 9.05-.58 0-1.15 0-1.71-.05-1.4115241-1.1617091-2.984697-2.1116765-4.67-2.82-.4150163-.7660346-.8689426-1.5103403-1.36-2.23 2.5231575.6805547 5.1267277 1.0169333 7.74 1 7.46 0 13.72-2.55 15.5-6 .5105155-.9391784.6360177-2.0400116.35-3.07-.33-.58-.64-1.2-.94-1.83-1.07-2.22-2.13-4.68-3.3-6.86 5.06 2.18 8.39 5.76 8.39 9.76z" fill="#ff9801"/><path id="Shape" d="m33.17 5.36c-1.5009475 1.2203675-2.6045055 2.86003886-3.17 4.71-4.78 1.37-8 4-8 6.92.0013316.4343432.0687707.8659533.2 1.28.0828344.2467974.1830864.4874023.3.72.2084197.3933537.4599679.7622911.75 1.1-1.3508237.2569866-2.6553796.7154352-3.87 1.36-.8818972-1.2994256-1.3618392-2.8296753-1.38-4.4v-.05c0-5.63 6.48-10.35 15.17-11.64z" fill="#ff9801"/><path id="Shape" d="m58.0000377 17.05-.0000377 4.57c-.0571205 2.247357-.9607162 4.3902719-2.53 6-3.15 3.49-9 5.94-15.79 6.28-.6346077-1.9090101-1.8128212-3.5911792-3.39-4.84.56 0 1.13.05 1.71.05 9.32 0 17.15-3.84 19.37-9 .418812-.9656283.6333078-2.0074647.6300377-3.06z" fill="#f57c00"/><path id="Shape" d="m19.38 21.46c-.45.23-.91.49-1.35.76 0-.2 0-.4 0-.6v-4.57c.0073272 1.5706517.4768416 3.1043986 1.35 4.41z" fill="#f57c00"/><path id="Shape" d="m55.47 27.62-.22 1.08c-1.2898908 6.5627665-7.0416736 11.2965717-13.73 11.3h-1.52v-4c-.005396-.7117247-.1131668-1.4189705-.32-2.1 6.81-.34 12.64-2.79 15.79-6.28z" fill="#a0522d"/><path id="Shape" d="m51.72 30.59c-1.7931136 5.0908621-6.3530238 8.6975488-11.72 9.27v.14h1.52c6.6883264-.0034283 12.4401092-4.7372335 13.73-11.3l.22-1.08c-1.089 1.1778494-2.3540231 2.1797477-3.75 2.97z" fill="#783e22"/><path id="Shape" d="m54 17c-.0032185.6971986-.1747464 1.3833102-.5 2-1.78 3.45-8 6-15.5 6-2.6132723.0169333-5.2168425-.3194453-7.74-1-1.43-2.13-3.11-3.68-5.26-4-.5832144-.0634336-1.1724998-.0432295-1.75.06-.28761-.3251612-.5390823-.6805753-.75-1.06-.1169136-.2325977-.2171656-.4732026-.3-.72.64-.4 1.47-1 2.34-1.61l.25-.18c2.22-1.7 4.68-4 5.21-6.41.5654945-1.84996114 1.6690525-3.4896325 3.17-4.71 2.94-2.68 7.19-4.67 9.83-4.37 2.85.37 4.88 3 6.61 6.2 1.17 2.18 2.23 4.64 3.3 6.86.3.63.61 1.25.94 1.83.0979582.3619227.1483819.7350583.15 1.11z" fill="#f44335"/><path id="Shape" d="m53.85 15.93c-.33-.58-.64-1.2-.94-1.83-1.07-2.22-2.13-4.68-3.3-6.86-1.73-3.24-3.76-5.83-6.61-6.24-.7640891-.0774393-1.5358438-.01989619-2.28.17 2.47.68 4.31 3.1 5.89 6 1.17 2.18 2.23 4.64 3.3 6.86.3.63.61 1.25.94 1.83.3052358 1.0515901.1792981 2.1814312-.35 3.14-1.65 3.2-7.15 5.62-13.89 6h1.39c7.46 0 13.72-2.55 15.5-6 .5105155-.9391784.6360177-2.0400116.35-3.07z" fill="#c81e1e"/></g><g id="Layer_11" fill="#000"><circle id="Oval" cx="20" cy="29" r="1"/><circle id="Oval" cx="28" cy="34" r="1"/><circle id="Oval" cx="22" cy="39" r="1"/><circle id="Oval" cx="14" cy="38" r="1"/><circle id="Oval" cx="26" cy="26" r="1"/><path id="Shape" d="m51.33 6.47c-1.55-2.81-3.76-6-7.2-6.42-3.13-.4-7.55 1.87-10.41 4.37-9.19 1.46-15.62 6.58-15.72 12.58v4.73c-.7971806.52231-1.5588513 1.0969037-2.28 1.72-9.19 1.43-15.62 6.55-15.72 12.55v4.65c.06768873 2.3600873.98774454 4.6158226 2.59 6.35l.18.86c1.36821611 7.0443332 7.5340265 12.1329082 14.71 12.14h7c7.1786277.015791 13.362146-5.05679 14.75-12.1l.18-.87c1.5293017-1.6535045 2.4437278-3.7824579 2.59-6.03h.55c7.1522978-.0176452 13.29724-5.082618 14.68-12.1l.17-.83c1.6204848-1.7633637 2.5445546-4.0557677 2.6-6.45v-4.62c0-4.82-4.21-8.53-8.67-10.53zm4.4 20.53c-3 3.28-8.3 5.45-14.37 5.9-.4149458-.9986239-.9779262-1.9290587-1.67-2.76 7.89-.16 14.86-3 18.2-7.32-.3065755 1.5708334-1.0560506 3.0212067-2.16 4.18zm1.72-7.28c-2.69 6.32-12.68 8.76-19.8 8.41-1.3062493-1.0430546-2.7413857-1.9135472-4.27-2.59 1.8555811.3228682 3.7366143.4768318 5.62.46 7.79 0 14.37-2.63 16.39-6.54.6162935-1.1638588.7698905-2.517656.43-3.79-.027264-.0791651-.0607-.1560679-.1-.23-.73-1.28-1.61-3.29-2.84-5.89 3.75 2.36 6.29 6.08 4.57 10.12zm-21.54 15.58c.1795528.7581188.0727144 1.5558456-.3 2.24-1.61 3.16-7.78 5.46-14.61 5.46s-12.85-2.24-14.55-5.34c2.87-1.89 6.78-5 7.53-8.36 1-4.16 8.33-8.7 11.89-8.27 4.78.62 7.37 9.48 10.04 14.27zm-29.91.23c.29-1.79 2.17-3.52 5.09-4.74-1.41458392 1.8581268-3.13597262 3.4611489-5.09 4.74zm18-19c.29-1.78 2.17-3.5 5.08-4.72-1.4088809 1.851356-3.1275836 3.4448776-5.08 4.71zm19.87-14.53c4.79.62 7.41 9.56 10 14.27.1795528.7581188.0727144 1.5558456-.3 2.24-1.57 3.19-7.74 5.49-14.57 5.49-2.4009902.0088172-4.7934072-.2868748-7.12-.88-1.81-2.56-4.09-4.37-7.18-4.08-.0903616-.1253583-.1738189-.2555516-.25-.39 3.1-2 6.45-4.74 7.5-8.27.99-4.16 8.3-8.79 11.92-8.38zm-12.47 4.94c-.5181999.71502911-.9260817 1.50382525-1.21 2.34-5.14 1.61-8.19 4.46-8.19 7.72.0120605.8603075.2243351 1.7059818.62 2.47-.6221316.1964411-1.2330453.4267856-1.83.69-.5106541-.9756081-.7814674-2.0588615-.79-3.16 0-4.34 4.68-8.32 11.4-10.06zm-18 19c-.5300868.7107268-.9451531 1.500365-1.23 2.34-5.17 1.6-8.17 4.46-8.17 7.72.00019999.8542281.20963579 1.6954046.61 2.45 4.42 8.7 28.27 8.75 32.78 0 .3944357-.7568544.6035044-1.5965564.61-2.45.0048363-.532917-.0901326-1.0620298-.28-1.56-.72-1.28-1.67-3.44-2.84-5.89 3.74 2.35 6.3 6.07 4.57 10.12-2.12 5-9.71 8.44-18.45 8.44-10.48 0-19-5-19-11.1 0-4.35 4.68-8.33 11.41-10.07zm26.5 15.82c-.3335367 1.6283989-1.1204369 3.1294025-2.27 4.33-7.24 7.8-26 7.81-33.26 0-1.17381733-1.2122243-1.96650493-2.7419723-2.28-4.4 7.7 9.94 30.25 9.79 37.81.07zm-15.38 16.24h-7c-5.4460825-.0160881-10.30953629-3.4125329-12.2-8.52 8.39 6 23 6 31.44 0-1.8955654 5.1211773-6.7792652 8.5206154-12.24 8.52zm18-19h-.52c.0779389-1.3771133.0444968-2.7582725-.1-4.13 4.5729949-.3088242 8.9841252-1.8159891 12.79-4.37-1.8811913 5.0986108-6.7354263 8.4889967-12.17 8.5z"/><circle id="Oval" cx="38" cy="9" r="1"/><circle id="Oval" cx="44" cy="12" r="1"/><circle id="Oval" cx="43" cy="18" r="1"/><circle id="Oval" cx="36" cy="15" r="1"/><circle id="Oval" cx="44" cy="7" r="1"/></g></g></svg>