<svg id="Filled" height="512" viewBox="0 0 512 512" width="512" xmlns="http://www.w3.org/2000/svg"><path d="m488 472-16 16-16-16-16 16-16-16-16 16-16-16-16 16-16-16-16 16-16-16-16 16-16-16-16 16-16-16 8-24v-376l-8-32 16-16 16 16 16-16 16 16 16-16 16 16 16-16 16 16 16-16 16 16 16-16 16 16 16-16 16 16-8 32v376z" fill="#3397e8"/><path d="m376 360c-57.438 0-104 28.654-104 64v16h208v-16c0-35.346-46.562-64-104-64z" fill="#ffb632"/><path d="m240 472-16 16-16-16-16 16-16-16-16 16-16-16-16 16-16-16-16 16-16-16-16 16-16-16-16 16-16-16 8-24v-376l-8-32 16-16 16 16 16-16 16 16 16-16 16 16 16-16 16 16 16-16 16 16 16-16 16 16 16-16 16 16-8 32v376z" fill="#eb423f"/><path d="m64 200h128v208h-128z" fill="#ffb632"/><ellipse cx="128" cy="136" fill="#ffb632" rx="56" ry="32"/><path d="m104 200h16v208h-16z" fill="#eba72e"/><path d="m168 200h16v208h-16z" fill="#eba72e"/><path d="m408 200-32-16-32 16v-128h64z" fill="#eb423f"/><ellipse cx="376" cy="128" fill="#ffb632" rx="48" ry="24"/><path d="m408 256a8 8 0 0 0 -8 8v40h-16v-40a8 8 0 0 0 -16 0v40h-16v-40a8 8 0 0 0 -16 0v48a40.147 40.147 0 0 0 16 31.989v96.011a8 8 0 0 0 8 8h32a8 8 0 0 0 8-8v-96.011a40.147 40.147 0 0 0 16-31.989v-48a8 8 0 0 0 -8-8z" fill="#e9eef2"/><path d="m424 264h-112l14.933-32h97.067z" fill="#ffb632"/><circle cx="424" cy="248" fill="#eba72e" r="16"/><path d="m264 72.985v373.715l-7.59 22.768a8 8 0 0 0 1.933 8.187l16 16a8 8 0 0 0 11.314 0l10.343-10.342 10.343 10.344a8 8 0 0 0 11.314 0l10.343-10.344 10.343 10.344a8 8 0 0 0 11.314 0l10.343-10.344 10.343 10.344a8 8 0 0 0 11.314 0l10.343-10.344 10.343 10.344a8 8 0 0 0 11.314 0l10.343-10.344 10.343 10.344a8 8 0 0 0 11.314 0l10.343-10.344 10.343 10.344a8 8 0 0 0 11.314 0l16-16a8 8 0 0 0 1.933-8.187l-7.59-22.77v-373.715l7.761-31.045a8 8 0 0 0 -2.1-7.6l-16-16a8 8 0 0 0 -11.314 0l-10.347 10.347-10.343-10.344a8 8 0 0 0 -11.314 0l-10.343 10.344-10.343-10.344a8 8 0 0 0 -11.314 0l-10.343 10.344-10.343-10.344a8 8 0 0 0 -11.314 0l-10.343 10.344-10.343-10.344a8 8 0 0 0 -11.314 0l-10.343 10.344-10.343-10.344a8 8 0 0 0 -11.314 0l-10.343 10.344-10.343-10.344a8 8 0 0 0 -11.314 0l-16 16a8 8 0 0 0 -2.1 7.6zm208 403.7-10.343-10.344a8 8 0 0 0 -11.314 0l-10.343 10.346-10.343-10.344a8 8 0 0 0 -11.314 0l-10.343 10.344-10.343-10.344a8 8 0 0 0 -11.314 0l-10.343 10.344-10.343-10.344a8 8 0 0 0 -11.314 0l-10.343 10.344-10.343-10.344a8 8 0 0 0 -11.314 0l-10.343 10.344-10.343-10.344a8 8 0 0 0 -11.314 0l-10.343 10.344-6.847-6.848 6.437-19.309a8.032 8.032 0 0 0 .41-2.53h24a8 8 0 0 0 0-16h-24v-8c0-25.391 30.387-47.826 72-54.2v62.2h-16a8 8 0 0 0 0 16h136a8.032 8.032 0 0 0 .41 2.53l6.437 19.309zm-70.624-220.685h-76.814l7.466-16h69.348a23.944 23.944 0 0 0 0 16zm-17.376 48v-32h16v32zm16 65.8c41.613 6.37 72 28.805 72 54.2v8h-72zm-35.99-37.02a24.086 24.086 0 0 1 -10.617-12.78h45.214a24.086 24.086 0 0 1 -10.617 12.78 8 8 0 0 0 -3.99 6.93v92.29h-16v-92.29a8 8 0 0 0 -3.99-6.93zm-12.01-60.78h16v32h-16zm-72-236.687 10.343 10.344a8 8 0 0 0 11.314 0l10.343-10.344 10.343 10.344a8 8 0 0 0 11.314 0l10.343-10.344 10.343 10.344a8 8 0 0 0 11.314 0l10.343-10.344 10.343 10.344a8 8 0 0 0 11.314 0l10.343-10.344 10.343 10.344a8 8 0 0 0 11.314 0l10.343-10.344 10.343 10.344a8 8 0 0 0 11.314 0l10.343-10.344 7.141 7.141-5.387 21.546h-25.754a8 8 0 0 0 0 16h24v306.582c-15.455-16.525-41.036-28.692-72-32.95v-9.642a40.153 40.153 0 0 0 16-31.99v-40h8a24 24 0 0 0 0-48h-97.066a8 8 0 0 0 -7.249 4.617l-14.934 32a8 8 0 0 0 7.249 11.383h24v40a40.153 40.153 0 0 0 16 31.99v9.642c-30.964 4.258-56.545 16.425-72 32.95v-306.582h56v25.176c-9.992 5.718-16 13.711-16 22.824s6.008 17.106 16 22.824v49.176a8 8 0 0 0 11.578 7.155l28.422-14.211 28.422 14.211a8 8 0 0 0 11.578-7.155v-49.176c9.992-5.718 16-13.711 16-22.824s-6.008-17.106-16-22.824v-25.176a8 8 0 0 0 0-16h-137.754l-5.387-21.546zm136 212.687a8 8 0 1 1 8 8 8.009 8.009 0 0 1 -8-8zm-40-136c24.418 0 40 9.477 40 16s-15.582 16-40 16-40-9.477-40-16 15.582-16 40-16zm-24-13.12v-18.88h48v18.88a101.44 101.44 0 0 0 -48 0zm48 58.24v29.936l-20.422-10.211a8 8 0 0 0 -7.156 0l-20.422 10.211v-29.936a101.44 101.44 0 0 0 48 0z"/><path d="m8.41 469.47a8 8 0 0 0 1.933 8.187l16 16a8 8 0 0 0 11.314 0l10.343-10.344 10.343 10.344a8 8 0 0 0 11.314 0l10.343-10.344 10.343 10.344a8 8 0 0 0 11.314 0l10.343-10.344 10.343 10.344a8 8 0 0 0 11.314 0l10.343-10.344 10.343 10.344a8 8 0 0 0 11.314 0l10.343-10.344 10.343 10.344a8 8 0 0 0 11.314 0l10.343-10.344 10.343 10.344a8 8 0 0 0 11.314 0l16-16a8 8 0 0 0 1.933-8.187l-7.59-22.77v-373.715l7.761-31.045a8 8 0 0 0 -2.1-7.6l-16-16a8 8 0 0 0 -11.314 0l-10.347 10.347-10.343-10.344a8 8 0 0 0 -11.314 0l-10.343 10.344-10.343-10.344a8 8 0 0 0 -11.314 0l-10.343 10.344-10.343-10.344a8 8 0 0 0 -11.314 0l-10.343 10.344-10.343-10.344a8 8 0 0 0 -11.314 0l-10.343 10.344-10.343-10.344a8 8 0 0 0 -11.314 0l-10.343 10.344-10.343-10.344a8 8 0 0 0 -11.314 0l-16 16a8 8 0 0 0 -2.1 7.6l7.757 31.042v373.715zm23.59-434.157 10.343 10.344a8 8 0 0 0 11.314 0l10.343-10.344 10.343 10.344a8 8 0 0 0 11.314 0l10.343-10.344 10.343 10.344a8 8 0 0 0 11.314 0l10.343-10.344 10.343 10.344a8 8 0 0 0 11.314 0l10.343-10.344 10.343 10.344a8 8 0 0 0 11.314 0l10.343-10.344 10.343 10.344a8 8 0 0 0 11.314 0l10.343-10.344 7.141 7.141-5.387 21.546h-25.754a8 8 0 0 0 0 16h24v352h-136a8 8 0 0 0 0 16h136a8.032 8.032 0 0 0 .41 2.53l6.437 19.309-6.847 6.848-10.343-10.344a8 8 0 0 0 -11.314 0l-10.343 10.344-10.343-10.344a8 8 0 0 0 -11.314 0l-10.343 10.344-10.343-10.344a8 8 0 0 0 -11.314 0l-10.343 10.344-10.343-10.344a8 8 0 0 0 -11.314 0l-10.343 10.344-10.343-10.344a8 8 0 0 0 -11.314 0l-10.343 10.344-10.343-10.344a8 8 0 0 0 -11.314 0l-10.343 10.344-6.847-6.848 6.437-19.309a8.032 8.032 0 0 0 .41-2.53h24a8 8 0 0 0 0-16h-24v-352h136a8 8 0 0 0 0-16h-137.754l-5.387-21.546z"/><path d="m64 192a8 8 0 0 0 -8 8v208a8 8 0 0 0 8 8h128a8 8 0 0 0 8-8v-208a8 8 0 0 0 -8-8zm24 208h-16v-192h16zm32 0h-16v-192h16zm32 0h-16v-192h16zm32 0h-16v-192h16z"/><path d="m64 136c0 22.43 28.112 40 64 40s64-17.57 64-40-28.112-40-64-40-64 17.57-64 40zm112 0c0 11.352-19.713 24-48 24s-48-12.648-48-24 19.713-24 48-24 48 12.648 48 24z"/></svg>