<?xml version="1.0" encoding="iso-8859-1"?>
<!-- Generator: Adobe Illustrator 19.0.0, SVG Export Plug-In . SVG Version: 6.00 Build 0)  -->
<svg version="1.1" id="Layer_1" xmlns="http://www.w3.org/2000/svg" xmlns:xlink="http://www.w3.org/1999/xlink" x="0px" y="0px"
	 viewBox="0 0 511.998 511.998" style="enable-background:new 0 0 511.998 511.998;" xml:space="preserve">
<g>
	<path style="fill:#E8B459;" d="M393.027,88.353c5.692,4.637,11.196,9.6,16.499,14.903c84.403,84.416,84.391,221.257-0.013,305.659
		s-221.244,84.416-305.659,0c-5.29-5.29-10.228-10.768-14.865-16.448v-0.013"/>
	<path style="fill:#E8B459;" d="M423.7,119.028c5.692,4.637,11.196,9.6,16.499,14.903c84.403,84.416,84.391,221.256-0.013,305.659
		s-221.244,84.416-305.659,0c-5.29-5.29-10.228-10.768-14.865-16.448v-0.013"/>
</g>
<path style="fill:#FCCA5F;" d="M11.665,257.504c6.695,43.929,26.968,86.196,60.796,120.023c84.416,84.404,221.259,84.404,305.663,0
	c84.404-84.416,84.416-221.247,0-305.663C334.843,28.572,277.749,7.498,221.031,8.618l-2.169,2.169L9.226,220.435
	C8.978,232.823,9.791,245.223,11.665,257.504z"/>
<path style="fill:#E8B459;" d="M11.665,257.504c53.04-1.638,105.597-22.713,146.095-63.2c41.124-41.124,62.21-94.682,63.271-148.559
	c-0.33-12.541-1.073-24.174-2.169-34.959L9.226,220.435C8.978,232.823,9.791,245.223,11.665,257.504z"/>
<path style="fill:#F9E5C5;" d="M9.221,220.435c53.871-1.057,107.422-22.142,148.544-63.262S219.97,62.5,221.036,8.62
	C167.138,9.669,10.259,166.547,9.221,220.435z"/>
<path d="M446.167,127.943c-5.13-5.13-10.555-10.041-16.128-14.639c-4.574-5.553-9.421-10.91-14.547-16.037
	c-5.223-5.221-10.744-10.217-16.414-14.876c-4.692-5.708-9.69-11.22-14.983-16.514C340.457,22.241,282.502-1.141,220.762,0.043
	c-0.002,0-0.005,0-0.006,0c-0.054,0-0.107,0-0.16,0.001c-0.007,0-0.013,0-0.02,0c-0.009,0-0.019,0.001-0.029,0.002
	c-32.433,0.661-89.331,46.235-131.775,88.678C46.315,131.182,0.724,188.103,0.098,220.528c0,0.009,0.001,0.018,0.001,0.026
	c-0.469,23.742,2.778,47.268,9.652,69.925c1.157,3.817,4.664,6.276,8.456,6.276c0.85,0,1.715-0.124,2.569-0.383
	c4.672-1.418,7.311-6.354,5.893-11.025c-5.534-18.241-8.516-37.095-8.893-56.161c55.141-3.178,106.689-26.232,145.958-65.501
	c31.038-31.038,52.172-70.055,61.118-112.834c1.001-4.778-2.064-9.462-6.843-10.462c-4.779-1.002-9.462,2.064-10.462,6.843
	c-8.241,39.405-27.716,75.351-56.317,103.951c-35.521,35.523-81.949,56.661-131.707,60.19c7.585-24.641,39.171-67.569,81.75-110.149
	c48.744-48.744,97.946-83.082,119.65-83.505c0.002,0,0.004,0,0.006,0c56.933-1.139,110.416,20.411,150.664,60.658
	c39.155,39.154,60.717,91.211,60.715,146.58c-0.004,55.369-21.568,107.425-60.725,146.58c-80.82,80.821-212.328,80.822-293.15,0
	c-14.717-14.717-27.068-31.414-36.709-49.629c-2.284-4.315-7.637-5.964-11.949-3.677c-4.315,2.284-5.962,7.634-3.677,11.948
	c10.468,19.774,23.869,37.895,39.833,53.859c5.29,5.29,10.785,10.254,16.452,14.905c4.708,5.726,9.725,11.272,14.936,16.482
	c5.168,5.168,10.535,10.021,16.064,14.581c4.612,5.583,9.515,10.997,14.612,16.092c42.496,42.496,98.992,65.898,159.086,65.897
	c60.088-0.001,116.583-23.405,159.076-65.897C533.868,358.39,533.874,215.664,446.167,127.943z M433.652,433.602
	c-39.153,39.153-91.207,60.717-146.573,60.719c-32.719,0-64.278-7.533-92.705-21.772c20.239,5.77,41.131,8.669,62.026,8.669
	c57.611,0,115.222-21.929,159.081-65.788c37.432-37.432,60.54-87.049,65.067-139.711c0.417-4.863-3.186-9.146-8.05-9.565
	c-4.862-0.417-9.148,3.186-9.565,8.051c-4.17,48.517-25.463,94.232-59.954,128.723c-65.132,65.131-163.173,77.764-241.086,37.921
	c20.578,5.978,41.846,8.978,63.116,8.978c57.611,0,115.22-21.928,159.078-65.786c42.494-42.494,65.898-98.99,65.901-159.081
	c0.001-21.452-2.996-42.44-8.765-62.502c12.458,24.517,20.014,51.452,21.964,79.299c0.327,4.66,4.208,8.222,8.809,8.222
	c0.207,0,0.417-0.007,0.627-0.022c4.87-0.342,8.542-4.566,8.2-9.436c-1.086-15.489-3.774-30.715-7.95-45.463
	C511.149,272.551,498.074,369.179,433.652,433.602z"/>
<path d="M311.275,233.407c-7.265,0-13.176-5.911-13.176-13.176c0-4.882-3.957-8.84-8.84-8.84s-8.84,3.958-8.84,8.84
	c0,17.014,13.842,30.856,30.856,30.856c17.014,0,30.856-13.842,30.856-30.856s-13.842-30.856-30.856-30.856
	c-4.883,0-8.84,3.958-8.84,8.84c0,4.882,3.957,8.84,8.84,8.84c7.265,0,13.176,5.911,13.176,13.176
	C324.451,227.496,318.54,233.407,311.275,233.407z"/>
<path d="M140.475,266.811c-7.265,0-13.176-5.911-13.176-13.176c0-4.882-3.957-8.84-8.84-8.84s-8.84,3.958-8.84,8.84
	c0,17.014,13.842,30.856,30.856,30.856s30.855-13.842,30.855-30.856s-13.841-30.856-30.855-30.856c-4.883,0-8.84,3.958-8.84,8.84
	c0,4.882,3.957,8.84,8.84,8.84c7.264,0,13.175,5.911,13.175,13.176C153.65,260.9,147.739,266.811,140.475,266.811z"/>
<path d="M236.431,340.577c-7.265,0-13.176-5.911-13.176-13.176c0-4.882-3.957-8.84-8.84-8.84s-8.84,3.958-8.84,8.84
	c0,17.014,13.842,30.856,30.856,30.856s30.856-13.842,30.856-30.856c0-17.014-13.842-30.856-30.856-30.856
	c-4.883,0-8.84,3.958-8.84,8.84s3.957,8.84,8.84,8.84c7.265,0,13.176,5.911,13.176,13.176S243.696,340.577,236.431,340.577z"/>
<circle cx="333.29" cy="309.4" r="8.84"/>
<circle cx="269.253" cy="109.581" r="8.84"/>
<circle cx="171.235" cy="75.647" r="8.84"/>
<circle cx="118.455" cy="127.19" r="8.84"/>
<circle cx="146.566" cy="328.07" r="8.84"/>
<g>
</g>
<g>
</g>
<g>
</g>
<g>
</g>
<g>
</g>
<g>
</g>
<g>
</g>
<g>
</g>
<g>
</g>
<g>
</g>
<g>
</g>
<g>
</g>
<g>
</g>
<g>
</g>
<g>
</g>
</svg>
