<svg height="484pt" viewBox="0 0 484 484.21895" width="484pt" xmlns="http://www.w3.org/2000/svg"><path d="m209.644531 77.640625c34.402344 34.398437 90.9375 146.65625 56.570313 181.015625-34.371094 34.359375-146.648438-22.199219-181.015625-56.566406-33.976563-34.433594-33.789063-89.832032.414062-124.035156 34.203125-34.203126 89.601563-34.386719 124.03125-.414063zm0 0" fill="#c1272d"/><path d="m278.730469 81.125 45.257812-45.257812 45.253907 45.257812c56.234374 56.234375 56.234374 147.410156 0 203.644531l-45.253907 45.253907-45.257812-45.253907c-56.234375-56.234375-56.234375-147.410156 0-203.644531zm0 0" fill="#24420e"/><path d="m411.421875 123.863281h64v64c0 79.53125-64.472656 144-144 144h-64v-64c0-79.527343 64.46875-144 144-144zm0 0" fill="#406325"/><path d="m411.421875 259.863281c0 57.4375-46.5625 104-104 104s-104-46.5625-104-104 46.5625-104 104-104 104 46.5625 104 104zm0 0" fill="#203d4c"/><path d="m283.757812 426.496094c11.171876-11.171875 13.878907-28.265625 6.710938-42.34375 10.515625-6.6875 16.886719-18.28125 16.886719-30.746094 0-12.460938-6.371094-24.054688-16.886719-30.742188 6.429688-12.574218 5.015625-27.730468-3.628906-38.898437-8.644532-11.171875-22.960938-16.339844-36.746094-13.269531-3.410156-12.304688-13.023438-21.917969-25.328125-25.328125 3.0625-13.777344-2.101563-28.082031-13.261719-36.722657-11.160156-8.640624-26.304687-10.0625-38.875-3.644531-6.679687-10.523437-18.277344-16.898437-30.742187-16.898437-12.464844 0-24.066407 6.375-30.746094 16.898437-13.457031-6.871093-29.761719-4.726562-40.984375 5.390625-11.222656 10.117188-15.039062 26.113282-9.597656 40.207032-9.808594 3.566406-17.617188 11.167968-21.4375 20.882812-3.816406 9.710938-3.28125 20.597656 1.476562 29.886719-8.441406 5.355469-14.308594 13.949219-16.214844 23.761719-1.910156 9.816406.304688 19.980468 6.125 28.109374-.125.128907-.269531.242188-.398437.367188-9.054687 9.058594-12.699219 22.195312-9.601563 34.621094 3.097657 12.425781 12.484376 22.316406 24.730469 26.0625.222657 19.785156 16.210938 35.773437 36 36 3.742188 12.242187 13.636719 21.628906 26.058594 24.726562 12.425781 3.097656 25.566406-.546875 34.621094-9.601562.128906-.125.238281-.269532.367187-.398438 8.128906 5.820313 18.296875 8.035156 28.109375 6.128906 9.8125-1.910156 18.40625-7.773437 23.761719-16.21875 9.289062 4.757813 20.175781 5.292969 29.890625 1.476563 9.710937-3.820313 17.316406-11.625 20.878906-21.433594 13.441407 5.148438 28.65625 1.90625 38.832031-8.273437zm0 0" fill="#662d91"/><path d="m202.050781 165.238281 33.941407 33.941407c12.496093 12.496093 12.496093 32.757812 0 45.253906l-33.941407-33.941406c-12.496093-12.496094-12.496093-32.757813 0-45.253907zm0 0" fill="#406325"/><path d="m467.421875 371.863281c0 57.4375-46.5625 104-104 104s-104-46.5625-104-104 46.5625-104 104-104 104 46.5625 104 104zm0 0" fill="#29485a"/><path d="m419.421875 331.863281c0 13.253907-10.746094 24-24 24s-24-10.746093-24-24c0-13.253906 10.746094-24 24-24s24 10.746094 24 24zm0 0" fill="#1b323d"/><path d="m363.421875 219.863281c0 13.253907-10.746094 24-24 24s-24-10.746093-24-24c0-13.253906 10.746094-24 24-24s24 10.746094 24 24zm0 0" fill="#1b323d"/><path d="m11.421875 123.863281 33.941406-33.941406c12.496094-12.496094 32.757813-12.496094 45.253907 0l-33.941407 33.941406c-12.496093 12.496094-32.757812 12.496094-45.253906 0zm0 0" fill="#406325"/><path d="m90.050781 45.234375 33.9375-33.941406c12.5 12.496093 12.5 32.757812 0 45.253906l-33.9375 33.941406c-12.5-12.496093-12.5-32.757812 0-45.253906zm0 0" fill="#406325"/><path d="m123.332031 326.246094c-17.375 17.371094-17.375 45.539062 0 62.90625l11.289063-11.3125c-11.125-11.121094-11.125-29.15625 0-40.28125zm0 0"/><path d="m159.085938 231.535156c-11.804688-.03125-23.128907 4.65625-31.457032 13.023438l11.3125 11.3125c11.277344-10.746094 29.003906-10.746094 40.28125 0l11.3125-11.3125c-8.324218-8.363282-19.648437-13.054688-31.449218-13.023438zm0 0"/><path d="m199.132812 364.945312-11.3125 11.3125c17.386719 17.332032 45.519532 17.332032 62.90625 0l-11.304687-11.3125c-11.132813 11.101563-29.152344 11.101563-40.289063 0zm0 0"/><path d="m395.421875 299.863281c-17.671875 0-32 14.328125-32 32 0 17.675781 14.328125 32 32 32s32-14.324219 32-32c0-17.671875-14.328125-32-32-32zm0 48c-8.835937 0-16-7.164062-16-16 0-8.835937 7.164063-16 16-16s16 7.164063 16 16c0 8.835938-7.164063 16-16 16zm0 0"/><path d="m165.765625 105.519531c2.007813 2.082031 4.984375 2.914063 7.78125 2.183594 2.796875-.734375 4.980469-2.917969 5.710937-5.714844.734376-2.796875-.101562-5.773437-2.179687-7.78125l-16-16c-3.140625-3.03125-8.128906-2.988281-11.214844.097657-3.085937 3.085937-3.128906 8.078124-.097656 11.214843zm0 0"/><path d="m133.765625 137.519531c3.140625 3.03125 8.128906 2.988281 11.214844-.097656 3.085937-3.085937 3.128906-8.074219.097656-11.214844l-16-16c-2.007813-2.078125-4.984375-2.914062-7.78125-2.179687-2.796875.730468-4.980469 2.914062-5.714844 5.710937-.730469 2.796875.105469 5.773438 2.183594 7.78125zm0 0"/><path d="m107.421875 171.863281c3.234375 0 6.152344-1.949219 7.390625-4.9375s.550781-6.429687-1.734375-8.71875l-16-16c-2.007813-2.078125-4.984375-2.914062-7.78125-2.179687-2.796875.730468-4.980469 2.914062-5.714844 5.710937-.730469 2.796875.105469 5.773438 2.183594 7.78125l16 16c1.496094 1.507813 3.53125 2.351563 5.65625 2.34375zm0 0"/><path d="m403.863281 116.191406c-7.332031-15.085937-17.117187-28.851562-28.960937-40.726562l-50.914063-50.914063-50.910156 50.914063c-11.035156 11.050781-20.308594 23.730468-27.488281 37.597656-8.464844-14.816406-18.628906-28.597656-30.289063-41.0625-19.847656-19.902344-47.445312-30.066406-75.464843-27.792969 3.734374-13.746093-.148438-28.445312-10.191407-38.550781l-5.65625-5.65625-39.597656 39.601562c-6.128906 6.152344-10.066406 14.152344-11.199219 22.765626l-1.523437-1.519532c-15.941407-16.035156-37.632813-25.03125-60.246094-24.984375-4.417969 0-8 3.582031-8 8s3.582031 8 8 8c18.375-.050781 36.007813 7.253907 48.96875 20.28125l1.046875 1.046875c-8.230469 1.316406-15.835938 5.195313-21.734375 11.082032l-39.59375 39.589843 5.65625 5.65625c12.050781 12.164063 30.566406 15.175781 45.847656 7.457031-.796875 22.464844 6.40625 44.484376 20.328125 62.136719-16.3125 9.53125-24.738281 28.402344-20.945312 46.910157-.503906.289062-.949219.65625-1.445313.960937-.671875.421875-1.335937.855469-1.992187 1.320313-2.109375 1.445312-4.085938 3.070312-5.914063 4.855468-1.824219 1.863282-3.484375 3.882813-4.960937 6.03125-.4375.625-.796875 1.273438-1.238282 1.914063-1.070312 1.710937-2.027343 3.492187-2.855468 5.335937-.242188.542969-.527344 1.0625-.753906 1.597656-.949219 2.367188-1.691407 4.816407-2.214844 7.3125-.105469.511719-.160156 1.023438-.246094 1.535157-.398438 2.226562-.621094 4.476562-.664062 6.738281 0 .328125-.097657.640625-.097657.976562 0 .183594.054688.367188.054688.558594.039062 2.617188.308593 5.222656.800781 7.792969.113281.574219.304688 1.117187.433594 1.679687.304687 1.289063.558594 2.582032.984375 3.847657-.730469.632812-1.425781 1.289062-2.097657 1.960937-13.6875 13.597656-17 34.488282-8.191406 51.65625-.34375.453125-.601562.972656-.929687 1.4375-.574219.800782-1.09375 1.648438-1.597657 2.496094-.90625 1.472656-1.71875 3-2.441406 4.570312-.414062.902344-.800781 1.789063-1.183594 2.71875-.644531 1.707032-1.179687 3.453126-1.601562 5.230469-.207031.847657-.476562 1.664063-.628906 2.519531-.515625 2.664063-.78125 5.371094-.800782 8.082032h.007813c-.023437 8.777344 2.570313 17.363281 7.449219 24.664062 1.640625 2.4375 3.515625 4.710938 5.597656 6.785156 3.8125 3.808594 8.285156 6.894532 13.199219 9.109376.066406.464843.226562.90625.304687 1.367187.152344.882813.375 1.730469.578125 2.601563.40625 1.761718.921875 3.5 1.542969 5.199218.3125.875.648438 1.722656 1.023438 2.578125.757812 1.707031 1.628906 3.363281 2.609374 4.957031.4375.738282.800782 1.480469 1.320313 2.195313 2.964844 4.46875 6.765625 8.324219 11.199219 11.351563.605468.429687 1.269531.75 1.902344 1.152343 1.523437.980469 3.105468 1.867188 4.738281 2.65625.855469.398438 1.742187.703125 2.621093 1.046875 1.46875.59375 2.96875 1.105469 4.488282 1.535156 1.058594.289063 2.128906.496094 3.203125.703126.796875.160156 1.550781.417968 2.359375.53125.503906 1.109374 1.207031 2.117187 1.800781 3.199218.660156 1.199219 1.230469 2.398438 2.015625 3.574219 1.554688 2.296875 3.324219 4.4375 5.285156 6.402344 2.078125 2.082031 4.351563 3.957031 6.792969 5.597656 7.296875 4.878906 15.878906 7.472656 24.65625 7.449219h.046875c2.710938-.023438 5.410156-.292969 8.074219-.800782.839843-.152343 1.597656-.414062 2.453125-.617187 1.8125-.417969 3.59375-.953125 5.335937-1.597656.882813-.335938 1.738281-.738281 2.59375-1.128907 1.628907-.75 3.210938-1.59375 4.734375-2.535156.800782-.488281 1.601563-.976562 2.355469-1.519531.476563-.34375 1.023437-.609375 1.496094-.96875.636719.328125 1.316406.527344 1.972656.800781.9375.414063 1.867187.796875 2.816406 1.175782 1.828125.671874 3.699219 1.222656 5.601563 1.648437.617187.140625 1.207031.328125 1.816406.4375 5.320312.988281 10.78125.988281 16.101562 0 .449219-.078125.890626-.214844 1.335938-.3125 2.136719-.464844 4.238281-1.082031 6.28125-1.855469.679688-.261718 1.351562-.535156 2.015625-.800781 1.855469-.816406 3.65625-1.761719 5.386719-2.824219.628906-.390625 1.277344-.734375 1.902344-1.15625 2.304687-1.554687 4.464843-3.3125 6.449218-5.257812.664063-.671875 1.320313-1.367188 1.941406-2.089844 15.941407 5.269531 33.492188 1.085938 45.335938-10.8125 2.785156-2.777344 5.183594-5.917969 7.128906-9.335938 8.917969 1.726563 18.152344.683594 26.457032-2.992187 25.753906 32.921875 67.710937 48.746094 108.789062 41.03125 41.082031-7.71875 74.4375-37.6875 86.488281-77.710937 12.054688-40.023438.792969-83.429688-29.199219-112.546876 26.785157-28.058593 41.6875-65.382812 41.601563-104.175781v-72h-72c-2.527344 0-5.039063.234375-7.558594.328125zm-119.472656-29.414062 39.597656-39.601563 39.601563 39.601563c9.203125 9.21875 17.03125 19.710937 23.246094 31.160156-19.65625 3.253906-38.484376 10.335938-55.414063 20.847656v-47.488281c0-4.417969-3.582031-8-8-8s-8 3.582031-8 8v20.6875l-10.34375-10.34375c-3.140625-3.03125-8.128906-2.988281-11.214844.097656-3.085937 3.085938-3.128906 8.074219-.097656 11.214844l21.65625 21.65625v13.664063c-2.65625-.195313-5.296875-.410157-8-.410157-21.996094.046875-43.488281 6.578125-61.792969 18.777344 3.542969-30.230469 17.203125-58.375 38.761719-79.863281zm119.03125 173.085937c0 2.472657-.160156 4.9375-.34375 7.394531-36.023437-13.863281-76.664063-7.980468-107.273437 15.535157-3.242188-5.335938-7.609376-9.902344-12.800782-13.378907-.207031-.140624-.40625-.308593-.621094-.453124-2.164062-1.414063-4.449218-2.632813-6.824218-3.648438-.335938-.144531-.664063-.304688-1-.441406-2.332032-.9375-4.742188-1.667969-7.199219-2.191406l-1.257813-.253907c-2.449218-.449219-4.929687-.695312-7.417968-.730469-.246094 0-.484375-.0625-.734375-.0625-.246094 0-.566407.070313-.855469.078126-.585938 0-1.160156 0-1.746094 0-2.1875-4.769532-5.210937-9.109376-8.925781-12.816407l-.054687-.046875c12.253906-19.753906 36.425781-28.578125 58.527343-21.359375l2.527344-7.625c-.269531 17.175781 12.867187 31.601563 29.996094 32.9375 17.125 1.335938 32.339843-10.878906 34.738281-27.890625 2.398438-17.007812-8.84375-32.953125-25.675781-36.402344-16.828125-3.453124-33.4375 6.773438-37.929688 23.355469-18.695312-5.734375-38.96875-2.949219-55.425781 7.617188-.492188-9.777344-4.578125-19.03125-11.480469-25.976563l-1.742187-1.742187c20.625-20.746094 49.679687-30.785157 78.710937-27.203125.230469.050781.46875.085937.703125.105468 48.003906 6.035157 84.035156 46.816407 84.105469 95.199219zm-200.410156-82.34375 27.320312 27.3125c7.171875 7.203125 9.050781 18.132813 4.6875 27.3125l-27.316406-27.3125c-7.175781-7.199219-9.050781-18.132812-4.691406-27.3125zm120.410156 42.34375c0-8.835937 7.164063-16 16-16s16 7.164063 16 16c0 8.835938-7.164063 16-16 16s-16-7.164062-16-16zm-227.71875-168.96875 27.316406-27.308593c4.367188 9.179687 2.488281 20.109374-4.6875 27.308593l-27.320312 27.3125c-4.363281-9.179687-2.484375-20.113281 4.691406-27.3125zm-72 72 27.308594-27.308593c7.195312-7.195313 18.140625-9.074219 27.320312-4.691407l-27.3125 27.3125c-7.199219 7.179688-18.136719 9.054688-27.316406 4.6875zm45.695313-.4375 32.527343-32.527343 27.71875-27.714844c.34375-.34375.578125-.75.898438-1.09375l.109375.519531c26.539062-5.726563 54.167968 2.433594 73.335937 21.65625 13.238281 14.535156 24.554688 30.707031 33.679688 48.117187-5.667969 15.722657-8.703125 32.269532-8.984375 48.976563l-.078125.089844-25.320313-25.320313c-.125-1.859375-.90625-3.617187-2.207031-4.953125l-16-16c-2.007813-2.078125-4.984375-2.914062-7.78125-2.179687-2.796875.730468-4.980469 2.914062-5.714844 5.710937-.730469 2.796875.105469 5.773438 2.183594 7.78125l16 16c.96875.933594 2.167969 1.59375 3.472656 1.921875-6.53125 8.410156-9.414062 19.089844-8 29.648438-3.363281.285156-6.683593.953125-9.898437 1.988281-.632813-.722656-1.289063-1.425781-1.964844-2.109375-.800781-.800781-1.691406-1.351562-2.511719-2.066406 1.222657-2.984375.535157-6.414063-1.746093-8.695313l-16-16c-2.007813-2.078125-4.984376-2.914062-7.78125-2.179687-2.796876.730468-4.980469 2.914062-5.710938 5.710937-.734375 2.796875.101562 5.773438 2.179688 7.78125l2.671874 2.671875c-.855468-.046875-1.6875-.246094-2.550781-.246094-11.800781-.035156-23.125 4.65625-31.449219 13.023438-.671874.671875-1.328124 1.375-1.960937 2.09375-6.546875-2.132812-13.5-2.707031-20.308594-1.679688-17.46875-19.140624-24.488281-45.605468-18.808593-70.886718zm178.359374 304.839844-7.585937-2.914063-2.789063 7.632813c-4.777343 13.199219-18.515624 20.894531-32.265624 18.0625 5.820312-16.152344 1.820312-34.214844-10.28125-46.398437l-11.308594 11.3125c9.441406 9.488281 11.015625 24.261718 3.789062 35.527343-1.089844 1.714844-2.363281 3.308594-3.789062 4.753907-1.304688 1.296874-2.734375 2.460937-4.265625 3.480468-.425781.285156-.886719.484375-1.320313.75-1.101562.679688-2.246094 1.28125-3.433594 1.800782-.496093.214843-1.015624.359374-1.527343.542968-1.160157.429688-2.351563.785156-3.558594 1.054688-.527344.113281-1.0625.1875-1.601563.273437-1.199218.191407-2.410156.304688-3.621093.34375-.570313 0-1.144531 0-1.714844 0-1.136719-.039062-2.273437-.144531-3.398437-.320312-.664063-.101563-1.320313-.207031-1.976563-.359375-.949219-.214844-1.886719-.480469-2.808594-.800782 2.558594-4.25 4.378907-8.902343 5.382813-13.757812l-15.6875-3.160156c-1.097656 5.492187-3.804688 10.53125-7.773438 14.480468-8.253906 7.886719-20.34375 10.253907-30.960937 6.054688-3.492188-1.351562-6.664063-3.414062-9.320313-6.054688-1.496094-1.527343-2.816406-3.214843-3.9375-5.035156-.328125-.511718-.566406-1.0625-.855468-1.597656-.757813-1.375-1.398438-2.8125-1.910157-4.296875-3.679687-10.25-1.0625-21.707031 6.703125-29.34375l-11.304687-11.390625c-8.371094 8.320312-13.0625 19.644531-13.03125 31.445312 0 .257813.070312.503907.078125.761719-.4375-.160156-.894532-.265625-1.324219-.457031-1.007813-.472656-1.984375-1.003906-2.921875-1.597656-.585938-.335938-1.199219-.601563-1.761719-.984375-1.300781-.898438-2.523437-1.90625-3.65625-3.007813-.140625-.144531-.316406-.25-.460937-.394531-1.332032-1.335937-2.53125-2.804687-3.578125-4.375-.375-.558594-.621094-1.191406-.960938-1.777344-.59375-1-1.125-2.03125-1.597656-3.09375-.335937-.800781-.519531-1.671875-.800781-2.503906s-.617188-1.792969-.800782-2.714844c-.191406-1.164062-.320312-2.34375-.375-3.527343-.054687-.679688-.199218-1.359376-.199218-2.039063v-.183594c0-7.527343 2.992187-14.746093 8.320312-20.0625l-11.320312-11.289062c-5.394532 5.484375-9.257813 12.289062-11.199219 19.734375-1.140625-.765625-2.226563-1.613282-3.242187-2.535156-1.332032-1.328126-2.527344-2.78125-3.574219-4.34375-3.136719-4.667969-4.8125-10.167969-4.808594-15.792969 0-.222657.054687-.421875.0625-.648438.125-7.328125 3.09375-14.320312 8.28125-19.496093 11.273437-10.75 29-10.75 40.273437 0l11.308594-11.3125c-14.300781-14.414063-36.605468-17.183594-54-6.703126-3.351562-9.707031-1.15625-20.472656 5.730469-28.09375.863281 1.03125 1.597656 2.152344 2.566406 3.117188l11.3125-11.308594c-2.359375-2.398437-4.277343-5.191406-5.664062-8.257812-.3125-.679688-.597657-1.367188-.855469-2.0625-.359375-.992188-.664062-2-.910156-3.027344-.144532-.582031-.3125-1.167969-.417969-1.757812-.3125-1.660157-.480469-3.34375-.496094-5.03125.015625-1.734376.183594-3.464844.503907-5.167969.089843-.472657.230468-.9375.34375-1.410157.269531-1.167968.617187-2.316406 1.039062-3.4375.210938-.570312.441406-1.121093.691406-1.671874.476563-1.058594 1.027344-2.082032 1.636719-3.066407.289063-.472656.546875-.953125.855469-1.40625.972656-1.429687 2.066406-2.765625 3.273437-4 .320313-.3125.695313-.519531 1.023438-.800781 1.066406-.996094 2.203125-1.914062 3.410156-2.734375 11.351563-7.160156 26.117187-5.699219 35.847656 3.550781l11.3125-11.3125c-8.320312-8.382812-19.648437-13.085937-31.457031-13.0625-2.238281.050782-4.472656.269532-6.679688.65625-1.316406-10.441406 3.253907-20.75 11.867188-26.789062 8.617188-6.035156 19.867188-6.8125 29.226562-2.011719l6.464844 3.285156 3.914063-6.109375c1.101562-1.753906 2.398437-3.375 3.863281-4.839844 11.269531-10.753906 29-10.753906 40.269531 0 1.464844 1.464844 2.765625 3.089844 3.875 4.839844l3.902344 6.109375 6.464844-3.285156c4.5-2.25 9.511719-3.277344 14.535156-2.976563 1.585937 2.605469 3.464844 5.019532 5.601563 7.199219l21.160156 21.160157c.019531 2.070312-.179688 4.132812-.601563 6.160156l-1.597656 7.40625 7.300781 2.027344c7.070313 1.941406 13.097656 6.570312 16.800782 12.894531-9.484376 4.253906-17.140626 11.746093-21.597657 21.136719l14.398438 6.902343c1.40625-2.921875 3.300781-5.578125 5.601562-7.863281 9.726563-9.261719 24.503907-10.722656 35.855469-3.542969l.078125.054688c1.566406 1.007812 3.019531 2.179687 4.335937 3.496093 2.007813 2.386719 3.777344 4.964844 5.28125 7.695313-35.183593 35.785156-42.101562 90.675781-16.898437 134.074219-6.125 1.960937-12.738281 1.792968-18.757813-.480469zm211.664063-55.433594c0 53.019531-42.980469 96-96 96s-96-42.980469-96-96 42.980469-96 96-96c52.996094.058594 95.941406 43.003907 96 96zm8-184c.082031 35.007813-13.484375 68.664063-37.816406 93.832031-3.585938-2.664062-7.324219-5.113281-11.199219-7.335937.644531-4.804687.984375-9.648437 1.015625-14.496094-.011719-16.828125-3.839844-33.433593-11.199219-48.566406h27.199219c4.417969 0 8-3.582031 8-8s-3.582031-8-8-8h-20.6875l34.335937-34.335937c3.03125-3.140626 2.988282-8.128907-.097656-11.214844-3.085937-3.085938-8.074218-3.128906-11.214844-.097656l-18.335937 18.335937v-12.6875c0-4.417969-3.582031-8-8-8s-8 3.582031-8 8v28.6875l-7.496094 7.496094c-14.300781-18.527344-34.035156-32.121094-56.441406-38.878907 21.570313-13.5 46.492187-20.683593 71.9375-20.738281h56zm0 0"/></svg>