<svg height="512pt" viewBox="-64 0 512 512" width="512pt" xmlns="http://www.w3.org/2000/svg"><path d="m72.625 151.648438v-32.03125l-16.015625-32.03125c0-44.226563 35.855469-80.078126 80.082031-80.078126 44.222656 0 80.078125 35.851563 80.078125 80.078126l-16.015625 32.03125v32.03125l64.0625 256.25-64.0625 64.0625h-128.128906l-64.0625-64.0625zm0 0" fill="#e4e8ed"/><path d="m264.816406 407.898438h-24.023437l-64.0625-256.25h24.023437zm0 0" fill="#c8d1da"/><path d="m264.816406 407.898438-64.0625 64.0625h-128.128906l-64.0625-64.0625zm0 0" fill="#c8d1da"/><path d="m216.769531 87.585938-16.015625 32.03125h-128.128906l-16.015625-32.03125c0-44.222657 35.855469-80.078126 80.082031-80.078126 22.109375 0 42.128906 8.96875 56.625 23.453126 14.484375 14.492187 23.453125 34.511718 23.453125 56.625zm0 0" fill="#68676b"/><path d="m216.769531 87.585938-16.015625 32.03125h-128.128906l-16.015625-32.03125zm0 0" fill="#48474a"/><path d="m72.625 119.617188h128.128906v32.03125h-128.128906zm0 0" fill="#db380e"/><path d="m176.730469 119.617188h24.023437v32.03125h-24.023437zm0 0" fill="#be310c"/><path d="m88.640625 352.34375h16.019531v15.015625h-16.019531zm0 0" fill="#fff"/><path d="m168.722656 352.34375h16.015625v15.015625h-16.015625zm0 0" fill="#fff"/><path d="m152.707031 47.546875c0 8.84375-7.171875 16.015625-16.015625 16.015625-8.847656 0-16.015625-7.171875-16.015625-16.015625s7.167969-16.015625 16.015625-16.015625c8.84375 0 16.015625 7.171875 16.015625 16.015625zm0 0" fill="#48474a"/><path d="m328.878906 295.789062v16.015626h-64.0625v-16.015626c0-8.847656 3.582032-16.855468 9.378906-22.652343 5.792969-5.796875 13.800782-9.378907 22.652344-9.378907 17.683594 0 32.03125 14.34375 32.03125 32.03125zm0 0" fill="#8edf78"/><path d="m296.847656 263.757812c-4.253906 0-8.304687.835938-12.015625 2.335938 11.734375 4.753906 20.023438 16.257812 20.023438 29.695312v16.015626h24.023437v-16.015626c0-17.6875-14.347656-32.03125-32.03125-32.03125zm0 0" fill="#31a469"/><path d="m264.816406 311.804688c0 70.761718-57.367187 128.125-128.125 128.125h64.0625c70.757813 0 128.125-57.363282 128.125-128.125" fill="#db380e"/><path d="m304.855469 311.804688c0 70.761718-57.367188 128.125-128.125 128.125h24.023437c70.757813 0 128.125-57.363282 128.125-128.125zm0 0" fill="#be310c"/><path d="m376.925781 359.851562v16.015626h-64.0625v-16.015626c0-8.847656 3.582031-16.855468 9.378907-22.652343 5.792968-5.796875 13.800781-9.378907 22.652343-9.378907 17.6875 0 32.03125 14.34375 32.03125 32.03125zm0 0" fill="#8edf78"/><path d="m344.894531 327.820312c-4.253906 0-8.304687.835938-12.015625 2.335938 11.734375 4.753906 20.023438 16.257812 20.023438 29.695312v16.015626h24.023437v-16.015626c0-17.6875-14.34375-32.03125-32.03125-32.03125zm0 0" fill="#31a469"/><path d="m312.863281 375.867188c0 70.761718-57.367187 128.125-128.125 128.125h64.0625c70.757813 0 128.125-57.363282 128.125-128.125" fill="#db380e"/><path d="m352.902344 375.867188c0 70.761718-57.367188 128.125-128.125 128.125h24.023437c70.757813 0 128.125-57.363282 128.125-128.125zm0 0" fill="#be310c"/><path d="m128.683594 352.84375h16.015625v15.015625h-16.015625zm0 0"/><path d="m136.691406 24.023438c-12.972656 0-23.523437 10.550781-23.523437 23.523437 0 12.96875 10.550781 23.523437 23.523437 23.523437 12.96875 0 23.519532-10.554687 23.519532-23.523437 0-12.972656-10.550782-23.523437-23.519532-23.523437zm0 32.03125c-4.695312 0-8.511718-3.816407-8.511718-8.507813s3.816406-8.507813 8.511718-8.507813c4.6875 0 8.507813 3.816407 8.507813 8.507813s-3.816407 8.507813-8.507813 8.507813zm0 0"/><path d="m353.058594 321.222656c2.890625-10.328125 12.628906-17.925781 23.867187-17.925781v-15.015625c-19.449219 0-35.652343 14.121094-38.925781 32.644531-.65625.117188-1.554688.246094-2.199219.394531.222657-3.164062.082031-6.339843.082031-9.515624v-16.015626c0-18.914062-13.101562-34.757812-30.871093-38.628906 2.886719-10.328125 12.628906-17.925781 23.863281-17.925781v-15.015625c-19.449219 0-35.902344 14.121094-39.175781 32.644531-18.523438 3.273438-32.894531 19.476563-32.894531 38.925781v16.015626c0 33.066406-13.128907 63.316406-34.753907 85.128906l-44.285156-237.277344h17.125l40.617187 162.226562 14.316407-3.769531-42.066407-167.390625v-29.335937l16.015626-32.03125v-1.769531c0-48.296876-39.289063-87.585938-87.585938-87.585938-48.292969 0-87.585938 39.289062-87.585938 87.585938v1.773437l16.015626 32.03125v29.335937l-64.617188 259.726563 69.519531 69.515625h134.34375l18.214844-18.464844-10.617187-10.492187-13.816407 13.941406h-53.949219v-17.015625h57.058594c25.914063 0 51.109375-7.585938 72.859375-21.460938 10.863281-6.933593 20.613281-15.457031 29.027344-25.027343-11.714844 54.324219-60.125 95.035156-117.902344 95.035156v15.515625h64.0625c74.785157 0 135.128907-61.34375 135.128907-136.132812v-16.015626c0-18.914062-13.101563-34.757812-30.871094-38.628906zm-8.667969 14.105469c13.523437 0 24.527344 11 24.527344 24.523437v9.007813h-49.050781v-9.007813c0-13.523437 11-24.523437 24.523437-24.523437zm-72.570313-39.539063c0-13.523437 11-24.523437 24.523438-24.523437s24.527344 11 24.527344 24.523437v9.007813h-49.050782zm-79.074218-151.148437h-113.113282v-17.015625h113.113282zm3.367187-32.03125h-118.847656l-8.507813-17.015625h135.863282zm-131.585937-32.03125c3.769531-37.035156 34.683594-65.0625 72.164062-65.0625 37.476563 0 68.390625 28.027344 72.160156 65.0625zm13.960937 79.078125h17.125l-45.234375 241.234375h-32.199218zm-2.75 305.296875-49.050781-49.046875h26.816406l49.046875 49.046875zm52.945313 0h-4.898438l-49.050781-49.046875h53.945313v49.046875zm0-81.078125v17.015625h-63.027344l45.230469-241.234375h17.796875v176.171875h15.011718v-176.171875h18.796876l45.230468 241.234375h-64.027344v-17.015625zm15.011718 48.308594v-16.277344h54.699219c-16.042969 9.007812-34.679687 15.058594-54.699219 16.277344zm121.589844-18.367188c-19.332031 12.335938-41.484375 19.105469-64.53125 19.105469h-2.070312c41.597656-22.019531 70.707031-64.0625 73.414062-113.109375h49.035156c-.203124 3.003906-.777343 6.265625-1.238281 9.484375-9.011719 7.253906-15.039062 18.113281-15.039062 30.554687v12.054688c-9.011719 16.84375-23.082031 31.390625-39.570313 41.910156zm-16.484375 83.167969h-2.070312c41.597656-22.019531 70.707031-64.0625 73.414062-113.109375h49.03125c-3.890625 62.058594-56.390625 113.109375-120.375 113.109375zm0 0"/></svg>