<svg height="512" viewBox="0 0 512 512" width="512" xmlns="http://www.w3.org/2000/svg"><g id="filled_outline" data-name="filled outline"><path d="m260 152a20 20 0 0 1 -20-20v-76a32 32 0 0 0 -32-32 32 32 0 0 0 -32 32v76a20 20 0 0 1 -20 20h-52a24 24 0 0 0 -24 24v288a24 24 0 0 0 24 24h208a24 24 0 0 0 24-24v-288a24 24 0 0 0 -24-24z" fill="#bd9070"/><path d="m336 256h94a2 2 0 0 1 2 2v174a0 0 0 0 1 0 0h-96a0 0 0 0 1 0 0v-176a0 0 0 0 1 0 0z" fill="#dc4d41"/><path d="m26 256h54a0 0 0 0 1 0 0v176a0 0 0 0 1 0 0h-54a2 2 0 0 1 -2-2v-172a2 2 0 0 1 2-2z" fill="#dc4d41"/><path d="m80 232h256v176h-256z" fill="#dc4d41"/><circle cx="192" cy="344" fill="#ebebeb" r="80"/><circle cx="432" cy="416" fill="#dbdbdb" r="56"/><circle cx="432" cy="416" fill="#fbedbf" r="47"/><circle cx="424" cy="424" fill="#dc4d41" r="16"/><path d="m448 384h16v16h-16z" fill="#aac16b"/><path d="m456 416h16v16h-16z" fill="#6b9777"/><path d="m432 392h-16a8 8 0 0 1 0-16h16a8 8 0 0 1 0 16z" fill="#da922a"/><path d="m208 72a8 8 0 0 1 -8-8v-8a8 8 0 0 1 16 0v8a8 8 0 0 1 -8 8z" fill="#a88064"/><path d="m80 456h256a0 0 0 0 1 0 0v8a24 24 0 0 1 -24 24h-208a24 24 0 0 1 -24-24v-8a0 0 0 0 1 0 0z" fill="#cd9c7a"/><circle cx="192" cy="312" fill="#dbdbdb" r="80"/><path d="m192 367.5a55.631 55.631 0 0 1 -52.271-36.806 8 8 0 0 1 15.066-5.388 39.594 39.594 0 0 0 37.205 26.194 8 8 0 0 1 0 16z" fill="#d3d3d3"/><circle cx="224" cy="264" fill="#ebebeb" r="80"/><g fill="#fbd699"><path d="m176 264 8-8"/><path d="m176 272a8 8 0 0 1 -5.657-13.657l8-8a8 8 0 0 1 11.314 11.314l-8 8a7.976 7.976 0 0 1 -5.657 2.343z"/><path d="m192 224 16 8"/><path d="m207.994 240a7.976 7.976 0 0 1 -3.572-.847l-16-8a8 8 0 1 1 7.156-14.31l16 8a8 8 0 0 1 -3.584 15.157z"/><path d="m240 208-8 8"/><path d="m232 224a8 8 0 0 1 -5.657-13.657l8-8a8 8 0 0 1 11.314 11.314l-8 8a7.976 7.976 0 0 1 -5.657 2.343z"/></g><path d="m224 324.5a60.686 60.686 0 0 1 -27.662-6.682 8 8 0 0 1 7.324-14.225 44.6 44.6 0 0 0 40.676 0 8 8 0 0 1 7.324 14.225 60.686 60.686 0 0 1 -27.662 6.682z" fill="#e4e4e2"/><path d="m270.7 296a8 8 0 0 1 -7.106-11.663 44.624 44.624 0 0 0 1.1-38.388 8 8 0 0 1 14.622-6.5 60.067 60.067 0 0 1 5.184 24.551 60.686 60.686 0 0 1 -6.682 27.662 8 8 0 0 1 -7.118 4.338z" fill="#e4e4e2"/><path d="m239.7 271.668a8 8 0 0 1 -5.192-14.089l8.612-7.337a8 8 0 1 1 10.376 12.179l-8.612 7.337a7.968 7.968 0 0 1 -5.184 1.91z" fill="#fbd699"/><path d="m216 288a7.976 7.976 0 0 1 -5.657-2.343l-8-8a8 8 0 0 1 11.314-11.314l8 8a8 8 0 0 1 -5.657 13.657z" fill="#fbd699"/><path d="m112 208a8 8 0 0 1 -8-8v-8a16.019 16.019 0 0 1 16-16h16a8 8 0 0 1 0 16h-16v8a8 8 0 0 1 -8 8z" fill="#a88064"/><path d="m64 256h16v176h-16z" fill="#c7463b"/><path d="m336 256h16v176h-16z" fill="#c7463b"/><path d="m440 352.518v-96.518a8 8 0 0 0 -8-8h-88v-72a32.036 32.036 0 0 0 -32-32h-52a12.013 12.013 0 0 1 -12-12v-76a40 40 0 0 0 -80 0v76a12.013 12.013 0 0 1 -12 12h-52a32.036 32.036 0 0 0 -32 32v72h-48a8 8 0 0 0 -8 8v176a8 8 0 0 0 8 8h48v24a32.036 32.036 0 0 0 32 32h208a32.036 32.036 0 0 0 32-32v-24h28.687a63.991 63.991 0 1 0 67.313-87.482zm-112 95.482h-240v-32h53.413a87.969 87.969 0 0 0 101.173 0h85.414zm0-192v144h-68.065a87.241 87.241 0 0 0 20.065-56 88.25 88.25 0 0 0 -.771-11.544 87.962 87.962 0 0 0 29.444-92.456h19.327zm-179.2 145.605a71.681 71.681 0 0 1 -24.819-33.856 87.837 87.837 0 0 0 136.019.071 72.06 72.06 0 0 1 -111.2 33.785zm-28.8-89.605a72.113 72.113 0 0 1 16.046-45.283 87.989 87.989 0 0 0 119.273 79.518 71.991 71.991 0 0 1 -133.837-19.661c-.009-.05-.019-.1-.029-.149 0-.018-.007-.037-.01-.056a71.8 71.8 0 0 1 -1.443-14.369zm176-48a72 72 0 1 1 -72-72 72.081 72.081 0 0 1 72 72zm-157.187-22.107a87.839 87.839 0 0 0 -33.328 86.112 87.909 87.909 0 0 0 18.581 72h-36.066v-160.005h51.327q-.269.942-.514 1.893zm-34.813-81.893h52a28.032 28.032 0 0 0 28-28v-76a24 24 0 0 1 48 0v76a28.032 28.032 0 0 0 28 28h52a16.019 16.019 0 0 1 16 16v48h-25.628a87.981 87.981 0 0 0 -156.744 0h-57.628v-48a16.019 16.019 0 0 1 16-16zm-72 264v-160h40v160zm280 56h-208a16.019 16.019 0 0 1 -16-16h240a16.019 16.019 0 0 1 -16 16zm32-56v-160h80v88.518a63.849 63.849 0 0 0 -55.482 71.482zm88 40a48 48 0 1 1 48-48 48.055 48.055 0 0 1 -48 48z"/><path d="m424 400a23.845 23.845 0 0 0 -16.97 7.029 24 24 0 1 0 16.97-7.029zm5.656 29.657a8 8 0 1 1 -11.313-11.313 8 8 0 1 1 11.312 11.314z"/><path d="m448 384h16v16h-16z"/><path d="m456 416h16v16h-16z"/><path d="m416 392h16a8 8 0 0 0 0-16h-16a8 8 0 0 0 0 16z"/><path d="m208 72a8 8 0 0 0 8-8v-8a8 8 0 0 0 -16 0v8a8 8 0 0 0 8 8z"/><path d="m192 367.5a8 8 0 0 0 0-16 39.594 39.594 0 0 1 -37.205-26.194 8 8 0 0 0 -15.066 5.388 55.631 55.631 0 0 0 52.271 36.806z"/><path d="m178.343 250.343-8 8a8 8 0 0 0 11.314 11.314l8-8a8 8 0 0 0 -11.314-11.314z"/><path d="m188.422 231.155 16 8a8 8 0 0 0 7.156-14.31l-16-8a8 8 0 1 0 -7.156 14.31z"/><path d="m232 224a7.976 7.976 0 0 0 5.657-2.343l8-8a8 8 0 0 0 -11.314-11.314l-8 8a8 8 0 0 0 5.657 13.657z"/><path d="m244.338 303.593a44.6 44.6 0 0 1 -40.676 0 8 8 0 0 0 -7.324 14.225 60.6 60.6 0 0 0 55.324 0 8 8 0 0 0 -7.324-14.225z"/><path d="m268.751 235.391a8 8 0 0 0 -4.062 10.559 44.624 44.624 0 0 1 -1.1 38.388 8 8 0 1 0 14.225 7.324 60.686 60.686 0 0 0 6.686-27.662 60.067 60.067 0 0 0 -5.189-24.547 8 8 0 0 0 -10.56-4.062z"/><path d="m243.118 250.242-8.612 7.337a8 8 0 0 0 10.376 12.179l8.612-7.337a8 8 0 1 0 -10.376-12.179z"/><path d="m202.343 266.343a8 8 0 0 0 0 11.314l8 8a8 8 0 1 0 11.314-11.314l-8-8a8 8 0 0 0 -11.314 0z"/><path d="m112 208a8 8 0 0 0 8-8v-8h16a8 8 0 0 0 0-16h-16a16.019 16.019 0 0 0 -16 16v8a8 8 0 0 0 8 8z"/></g></svg>