<svg id="Capa_1" enable-background="new 0 0 514.252 514.252" height="512" viewBox="0 0 514.252 514.252" width="512" xmlns="http://www.w3.org/2000/svg"><g><g><path d="m427.156 62.918-25.848-9.134-18.165-6.139-37.383 180.753 9.86 4.636 20.959 4.419 19.162-49.199 37.18-113.623c1.579-4.822-.981-10.022-5.765-11.713z" fill="#e8ad8c"/><path d="m374.011 180.833 27.11-133.592c1.044-5.146-2.388-10.132-7.568-10.993l-21.981-3.656c-5.18-.861-10.041 2.745-10.718 7.952l-16.627 127.779-11.895 83.245 24.216 5.264z" fill="#ecbba3"/><path d="m492.896 299.821v-16.674c0-8.357-4.088-16.185-10.947-20.96-3.042-2.118-5.587-4.873-7.457-8.074l-16.007-27.389c-4.266-7.3-11.869-12.016-20.305-12.593l-14.18-.972c-8.703-.596-16.499-5.592-20.676-13.25l-3.145-5.766c-4.475-8.205-13.075-13.31-22.421-13.31h-10.34c-6.686 0-13.105-2.622-17.88-7.302l-13.188-12.931c-5.36-5.255-12.76-7.886-20.234-7.194l-9.644.893c-6.049.56-12.099-1.054-17.065-4.553l-3.921-2.762c-17.308-12.195-40.413-12.195-57.721 0l-3.921 2.762c-4.966 3.499-11.016 5.113-17.065 4.553l-9.644-.893c-7.474-.692-14.874 1.939-20.234 7.194l-13.189 12.93c-4.774 4.681-11.194 7.302-17.88 7.302h-10.34c-9.346 0-17.946 5.105-22.421 13.31l-3.145 5.766c-4.177 7.658-11.973 12.654-20.676 13.25l-14.18.971c-8.436.578-16.039 5.293-20.305 12.593l-16.005 27.391c-1.87 3.201-4.415 5.955-7.457 8.074-6.858 4.775-10.947 12.603-10.947 20.96v16.674l11.521 37.246h454.764z" fill="#faf7f7"/><path d="m90.811 378.95 21.163 64.473 27.671 34.036c2.229 2.741 5.573 4.333 9.106 4.333h215.752c3.533 0 6.877-1.591 9.106-4.333l27.671-34.036 31.173-64.473z" fill="#e19974"/><g><path d="m492.673 279.821h-361.902c-14.81 0-24.022-16.084-16.539-28.864.003-.006.005-.008.005-.008 4.266-7.3 11.869-12.016 20.305-12.594l14.18-.971c8.702-.596 16.499-5.592 20.676-13.25l3.146-5.767c4.476-8.205 13.076-13.31 22.422-13.31h10.339c6.686 0 13.105-2.622 17.88-7.302l13.189-12.93c5.36-5.255 12.761-7.886 20.235-7.194l9.643.893c6.049.56 12.099-1.054 17.065-4.553l3.921-2.762c17.308-12.195 40.413-12.195 57.721 0l3.921 2.762c1.261.889 2.57 1.648 3.954 2.289-1.172-.814-2.261-1.718-3.293-2.73l-13.191-12.93c-5.36-5.255-12.76-7.886-20.233-7.194l-9.645.893c-6.049.56-12.099-1.054-17.065-4.553l-3.92-2.762c-17.308-12.195-40.413-12.195-57.721 0l-3.92 2.762c-4.966 3.499-11.016 5.113-17.065 4.553l-9.644-.893c-7.474-.692-14.875 1.939-20.235 7.194l-13.187 12.929c-4.774 4.681-11.194 7.303-17.88 7.303h-10.34c-9.346 0-17.946 5.105-22.421 13.31l-3.145 5.765c-4.177 7.658-11.974 12.655-20.676 13.251l-14.18.971c-8.435.578-16.038 5.293-20.304 12.593l-16.029 27.425c-1.915 3.276-4.592 6.007-7.681 8.211-6.712 4.79-10.703 12.531-10.703 20.788v16.674l11.521 37.246h454.764l6.255-37.246v-16.674c0-1.12-.079-2.23-.223-3.325z" fill="#f9f3f1"/><path d="m88.028 434.625-79.402-107.178c-.731-.987-1.126-2.183-1.126-3.411v-18.484c0-3.165 2.566-5.731 5.731-5.731h487.791c3.165 0 5.731 2.566 5.731 5.731v18.484c0 1.228-.395 2.424-1.126 3.411l-79.402 107.178c-4.1 5.534-10.58 8.798-17.467 8.798h-303.263c-6.888 0-13.367-3.264-17.467-8.798z" fill="#ecbba3"/><path d="m447.965 405.28-21.741 29.346c-4.1 5.534-10.579 8.798-17.466 8.798h-303.263c-6.887 0-13.367-3.264-17.467-8.798l-79.402-107.179c-.731-.987-1.126-2.183-1.126-3.411v-18.484c0-3.165 2.566-5.73 5.73-5.73h64.584l55.051 73.327c14.531 19.355 37.284 30.793 61.486 30.91z" fill="#e8ad8c"/></g></g><g><path d="m501.021 292.321h-.625v-9.174c0-10.805-5.294-20.941-14.161-27.115-2.135-1.486-3.956-3.458-5.268-5.703l-16.007-27.388c-5.523-9.453-15.343-15.544-26.268-16.292l-14.181-.971c-6.179-.423-11.639-3.922-14.604-9.358l-3.146-5.767c-.767-1.406-1.633-2.736-2.576-3.995l35.865-109.596c2.82-8.621-1.843-18.093-10.395-21.115l-21.132-7.468c.796-4.386-.138-8.81-2.675-12.494-2.604-3.784-6.534-6.283-11.065-7.036l-21.98-3.656c-4.531-.754-9.058.339-12.747 3.076-3.688 2.737-6.047 6.752-6.64 11.307l-2.715 20.863c-.534 4.107 2.362 7.871 6.47 8.405 4.109.535 7.871-2.362 8.405-6.47l2.715-20.863c.08-.618.426-.992.702-1.197s.733-.426 1.349-.325l21.98 3.656c.614.102.976.461 1.171.744.194.283.4.749.276 1.359l-25.89 127.584h-.46c-4.752 0-9.236-1.832-12.629-5.158l-2.644-2.592 9.304-71.5c.534-4.107-2.362-7.871-6.47-8.405-4.109-.526-7.869 2.362-8.405 6.47l-7.881 60.568c-6.585-5.104-14.873-7.554-23.269-6.777l-9.645.893c-4.273.393-8.55-.747-12.054-3.216l-3.921-2.762c-19.846-13.983-46.514-13.984-66.359 0l-3.922 2.763c-3.504 2.469-7.781 3.609-12.053 3.216l-9.645-.893c-9.7-.899-19.229 2.495-26.177 9.307l-13.188 12.93c-3.394 3.326-7.878 5.158-12.63 5.158h-10.34c-12.098 0-23.212 6.598-29.006 17.219l-3.144 5.766c-2.966 5.437-8.426 8.936-14.605 9.359l-14.181.971c-2.347.161-4.715.588-7.037 1.27-3.975 1.166-6.251 5.333-5.085 9.308 1.166 3.974 5.328 6.252 9.308 5.085 1.283-.376 2.575-.611 3.841-.698l14.179-.971c11.318-.774 21.317-7.183 26.75-17.142l3.144-5.765c3.163-5.799 9.231-9.402 15.837-9.402h10.34c8.702 0 16.917-3.355 23.131-9.447l13.188-12.93c3.794-3.719 9.004-5.571 14.293-5.082l9.645.893c7.813.721 15.657-1.368 22.075-5.89l3.922-2.763c14.678-10.342 34.401-10.342 49.081 0l3.92 2.762c6.417 4.522 14.253 6.611 22.076 5.891l9.645-.893c5.292-.491 10.499 1.362 14.292 5.081l13.189 12.93c6.213 6.092 14.428 9.447 23.13 9.447h10.34c6.605 0 12.674 3.603 15.836 9.401l3.146 5.767c5.432 9.958 15.431 16.367 26.748 17.141l14.18.971c5.965.409 11.326 3.734 14.342 8.896l16.007 27.388c2.402 4.111 5.738 7.723 9.647 10.445 4.842 3.371 7.732 8.905 7.732 14.805v9.174h-36.121c-4.143 0-7.5 3.358-7.5 7.5s3.357 7.5 7.5 7.5h49.977v16.13l-79.055 106.71c-2.673 3.608-6.949 5.762-11.44 5.762h-303.263c-4.491 0-8.768-2.154-11.44-5.762l-79.055-106.71v-16.13h402.313c4.143 0 7.5-3.358 7.5-7.5s-3.357-7.5-7.5-7.5h-389.458v-9.174c0-5.899 2.891-11.434 7.733-14.805 3.908-2.722 7.244-6.333 9.646-10.444l8.87-15.178c2.09-3.576.885-8.169-2.691-10.259s-8.171-.885-10.26 2.691l-8.87 15.178c-1.312 2.245-3.133 4.216-5.267 5.702-8.868 6.174-14.162 16.311-14.162 27.115v9.193c-7.119.201-12.854 6.042-12.854 13.211v18.484c0 2.817.924 5.615 2.6 7.876l79.402 107.179c5.489 7.41 14.271 11.833 23.493 11.833h2.91l25.419 31.267c3.669 4.513 9.109 7.102 14.926 7.102h215.752c5.816 0 11.257-2.588 14.926-7.102l25.419-31.267h3.91c9.222 0 18.004-4.424 23.493-11.833l79.401-107.177c1.677-2.262 2.601-5.06 2.601-7.877v-18.484c0-7.296-5.936-13.231-13.231-13.231zm-95.493-229.091 19.129 6.76c.935.331 1.444 1.367 1.137 2.309l-34.079 104.144c-2.718-1.268-5.614-2.168-8.62-2.659zm-37.739 409.498c-.808.994-2.006 1.563-3.287 1.563h-215.752c-1.281 0-2.479-.57-3.287-1.563l-17.727-21.805h257.779z"/><path d="m239.065 274.723c2.122 0 4.231-.896 5.715-2.638 2.977-3.496 7.317-5.507 11.909-5.517h.035c4.579 0 8.915 1.991 11.884 5.448l.065.077c2.69 3.15 7.422 3.525 10.574.835 3.15-2.689 3.524-7.423.836-10.574l-.081-.094c-5.839-6.798-14.32-10.692-23.278-10.692-.022 0-.045 0-.067 0-8.983.02-17.476 3.954-23.299 10.793-2.685 3.154-2.305 7.887.849 10.572 1.412 1.202 3.14 1.79 4.858 1.79z"/><path d="m300.863 233.034c2.122 0 4.23-.896 5.714-2.638 2.978-3.497 7.319-5.508 11.912-5.518h.033c4.579 0 8.915 1.991 11.92 5.489l.066.077c2.712 3.13 7.449 3.469 10.579.758 3.131-2.712 3.471-7.449.759-10.58l-.046-.053c-5.838-6.797-14.319-10.692-23.277-10.692-.022 0-.045 0-.066 0-8.983.019-17.477 3.953-23.3 10.793-2.686 3.154-2.306 7.887.848 10.573 1.411 1.203 3.14 1.791 4.858 1.791z"/><path d="m387.241 263.93c2.978-3.497 7.319-5.508 11.911-5.518h.034c4.579 0 8.915 1.991 11.884 5.448l.065.077c1.484 1.738 3.59 2.631 5.709 2.631 1.722 0 3.452-.59 4.865-1.795 3.15-2.689 3.524-7.423.836-10.574l-.081-.094c-5.839-6.798-14.319-10.692-23.278-10.692-.021 0-.045 0-.066 0-8.983.02-17.476 3.953-23.299 10.793-2.686 3.154-2.306 7.887.848 10.573 3.154 2.685 7.888 2.304 10.572-.849z"/><path d="m183.743 230.444.087-.101c2.984-3.475 7.319-5.465 11.899-5.465h.033c4.593.01 8.935 2.021 11.912 5.518 1.483 1.742 3.592 2.638 5.714 2.638 1.719 0 3.447-.588 4.858-1.79 3.153-2.686 3.533-7.419.848-10.573-5.823-6.84-14.316-10.774-23.3-10.793-.022 0-.044 0-.066 0-8.958 0-17.439 3.895-23.257 10.668l-.066.077c-2.712 3.131-2.372 7.868.759 10.58 3.128 2.71 7.865 2.372 10.579-.759z"/><path d="m103.116 263.936.05-.059c2.984-3.475 7.32-5.465 11.899-5.465h.034c4.592.01 8.934 2.021 11.911 5.518 1.483 1.742 3.592 2.638 5.714 2.638 1.719 0 3.447-.588 4.858-1.79 3.153-2.686 3.533-7.419.848-10.573-5.823-6.84-14.315-10.773-23.299-10.793-.022 0-.044 0-.066 0-8.958 0-17.439 3.895-23.294 10.709l-.065.077c-2.688 3.151-2.314 7.885.836 10.574 3.152 2.689 7.886 2.314 10.574-.836z"/></g></g></svg>