<?xml version="1.0"?>
<svg xmlns="http://www.w3.org/2000/svg" viewBox="0 0 512 512" width="512" height="512"><g id="Filled_outline" data-name="Filled outline"><path d="M305.1,210.455,288,276.348l62.64,17.719a51.434,51.434,0,0,0,40.718-5.592l65.565-39.612a64.74,64.74,0,0,0,28.886-39.293h0c8.963-34.536-10.387-70.062-43.218-79.348h0a59.1,59.1,0,0,0-46.787,6.426l-65.566,39.612A56.347,56.347,0,0,0,305.1,210.455Z" style="fill:#5f8c46"/><path d="M309.545,206.9,243.652,224l-17.719-62.64a51.434,51.434,0,0,1,5.592-40.718l39.612-65.565A64.74,64.74,0,0,1,310.43,26.191h0c34.536-8.963,70.062,10.387,79.348,43.218h0a59.1,59.1,0,0,1-6.426,46.787l-39.612,65.566A56.347,56.347,0,0,1,309.545,206.9Z" style="fill:#5f8c46"/><path d="M448.2,248.4h0c36.191,18.978,50.274,63.948,31.455,100.445h0a74.029,74.029,0,0,1-43.289,36.663l-86.3,27.482a63.8,63.8,0,0,1-49.013-4.3L262.691,391.2a46.266,46.266,0,0,0-30.359-2.8l-.331.082a331.2,331.2,0,0,0-115.4,62.356L81.67,479.941A34.771,34.771,0,0,1,59.411,488h-.647A34.693,34.693,0,0,1,32,475.423L56,456s1,3.669,41-28.331c29.844-23.876,77.11-55.008,129.232-71.6a35.122,35.122,0,0,0,19.749-15.688l21.925-37.535a64.419,64.419,0,0,1,37.674-31.907l86.3-27.483A73.306,73.306,0,0,1,448.2,248.4Z" style="fill:#6a9c46"/><path d="M263.6,63.8h0c-18.978-36.191-63.948-50.274-100.445-31.455h0a74.029,74.029,0,0,0-36.663,43.289l-27.482,86.3a63.8,63.8,0,0,0,4.3,49.013L120.8,249.309a46.266,46.266,0,0,1,2.8,30.359l-.082.331A331.2,331.2,0,0,1,61.166,395.4L32.059,430.33A34.771,34.771,0,0,0,24,452.589v.647A34.693,34.693,0,0,0,36.577,480L56,456s-3.669-1,28.331-41c23.876-29.844,55.008-77.11,71.6-129.232a35.122,35.122,0,0,1,15.688-19.749l37.535-21.925a64.419,64.419,0,0,0,31.907-37.674l27.483-86.3A73.306,73.306,0,0,0,263.6,63.8Z" style="fill:#6a9c46"/><path d="M302.461,136h0a73.539,73.539,0,0,0-52,21.539l-64.849,64.849A60.132,60.132,0,0,0,168,264.908V320L96.779,391.221a353.873,353.873,0,0,1-53.936,44.217l-7.24,4.827A26.055,26.055,0,0,0,24,461.944h0A26.055,26.055,0,0,0,50.055,488h0a26.055,26.055,0,0,0,21.679-11.6l4.827-7.24a353.873,353.873,0,0,1,44.217-53.936L192,344h55.092a60.13,60.13,0,0,0,42.52-17.612l64.849-64.849a73.539,73.539,0,0,0,21.539-52h0A73.54,73.54,0,0,0,302.461,136Z" style="fill:#79ad54"/><path d="M467.094,251.619a72.591,72.591,0,0,0,26.46-40.042A76.2,76.2,0,0,0,496,192.47c0-32.653-21.068-61.416-51.23-69.948A66.723,66.723,0,0,0,426.6,120a67.555,67.555,0,0,0-34.94,9.805l8.279,13.691A51.556,51.556,0,0,1,426.6,136a50.729,50.729,0,0,1,13.813,1.918C463.721,144.511,480,166.943,480,192.47a60.21,60.21,0,0,1-1.934,15.092,56.323,56.323,0,0,1-25.1,34.337c-.353-.192-.692-.4-1.048-.585a81.289,81.289,0,0,0-57.3-6.935l3.842,15.531a65.313,65.313,0,0,1,46.028,5.575c32.251,16.914,44.836,57.153,28.052,89.7a65.982,65.982,0,0,1-38.594,32.7L347.63,405.368a55.421,55.421,0,0,1-42.867-3.764c-.129-.068-.261-.132-.394-.193l-38.358-17.489a54.377,54.377,0,0,0-35.567-3.3l-.33.08c-.15.036-.3.077-.447.122a337.251,337.251,0,0,0-118.188,63.857L92.27,460.693a346.611,346.611,0,0,1,34.166-39.815l15.395-15.4c29.437-18.758,58.646-32.82,86.829-41.79A43.163,43.163,0,0,0,247.2,352a67.684,67.684,0,0,0,48.068-19.953L360.118,267.2a81.022,81.022,0,0,0,21.52-38.072l26.991-16.306c10.663,12.77,23.892,16.555,34.627,16.555a40.852,40.852,0,0,0,14.286-2.438l-5.692-14.954a27.7,27.7,0,0,1-29.294-7.577l34.971-21.128-8.274-13.693-34.577,20.889c-3-15.429,12.262-28.161,13.013-28.777l-10.045-12.453c-10.281,8.293-25.149,28.165-17.2,49.829l-16.455,9.941a81.1,81.1,0,0,0-17.348-49.679L390.2,120.34A67.565,67.565,0,0,0,400,85.4a66.666,66.666,0,0,0-2.522-18.168C388.946,37.067,360.182,16,327.53,16a76.2,76.2,0,0,0-19.107,2.446,73.234,73.234,0,0,0-36.192,21.8l11.885,10.713a57.259,57.259,0,0,1,28.322-17.028A60.113,60.113,0,0,1,327.53,32c25.527,0,47.959,16.279,54.553,39.591A50.662,50.662,0,0,1,384,85.4a51.557,51.557,0,0,1-7.5,26.663l-21.341,35.328a81.181,81.181,0,0,0-44.416-18.972l6.08-10.064A36.482,36.482,0,0,0,328,120.024c21.8,0,43.714-16.78,44.907-17.709L363.1,89.678c-6.664,5.152-24.064,15.7-37.538,14.218l24.857-41.148-13.694-8.275L311.738,95.832c-10.212-12.279-7.848-30.488-7.819-30.7L296,64l-7.916-1.16c-.188,1.288-4.026,29.436,15.078,47.189L291.884,128.7a80.865,80.865,0,0,0-19.251,4.93l3.53-11.081a80.785,80.785,0,0,0-5.478-62.464c-20.984-40.01-70.868-55.642-111.2-34.847A81.987,81.987,0,0,0,118.867,73.2L91.388,159.511a71.307,71.307,0,0,0,4.732,54.953l17.4,38.167a38.4,38.4,0,0,1,2.3,25.153l-.026.105A321.348,321.348,0,0,1,55.024,390.278l-29.109,34.93C15.232,438.027,9.539,457.031,18,474.5c12.429,25.661,48.686,28.346,68.792,11.586l34.93-29.11A321.348,321.348,0,0,1,234.113,396.2l.152-.037a38.359,38.359,0,0,1,25.106,2.316l38.166,17.4a71.313,71.313,0,0,0,54.95,4.732l86.307-27.479a81.992,81.992,0,0,0,47.966-40.618A83.061,83.061,0,0,0,467.094,251.619ZM182.635,364.679,195.313,352h18Q198.109,357.436,182.635,364.679ZM67.315,400.522a337.274,337.274,0,0,0,63.857-118.189c.045-.147.086-.3.122-.447l.069-.282a54.419,54.419,0,0,0-3.284-35.614l-17.49-38.359c-.061-.133-.125-.265-.193-.4a55.424,55.424,0,0,1-3.763-42.869l27.481-86.313a65.3,65.3,0,0,1,12.469-22.511A65.993,65.993,0,0,1,166.816,39.46c32.545-16.779,72.786-4.195,89.7,28.054a64.893,64.893,0,0,1,4.4,50.178l-8.839,27.751a82.881,82.881,0,0,0-7.274,6.439L179.955,216.73A67.684,67.684,0,0,0,160,264.8a43.156,43.156,0,0,0-11.7,18.544c-8.968,28.176-23.029,57.383-41.785,86.821l-15.4,15.4a346.53,346.53,0,0,1-39.814,34.166ZM160,298.689v18l-12.68,12.679Q154.551,313.909,160,298.689ZM32,461.944a18.021,18.021,0,0,1,8.04-15.023l7.24-4.826a362.809,362.809,0,0,0,55.156-45.217l71.221-71.221A8,8,0,0,0,176,320V264.907a51.791,51.791,0,0,1,15.269-36.862L256.118,163.2A65.539,65.539,0,1,1,348.8,255.882L283.955,320.73A51.787,51.787,0,0,1,247.092,336H192a8,8,0,0,0-5.657,2.343l-71.221,71.22A362.816,362.816,0,0,0,69.906,464.72l-4.828,7.24A18.055,18.055,0,0,1,32,461.944Z"/><path d="M392.121,270.506a109.883,109.883,0,0,0-10.395,17.536c-4.455,9.387-6.929,18.129-7.429,26.134-12.569,4.167-24.9,8.633-36.345,13a71.851,71.851,0,0,1,7.352-18.942L331.24,300.6c-4.769,8.791-9.834,20.917-10.179,33.18-24.859,9.968-42.669,18.147-44.414,18.952l6.706,14.528c.411-.19,17.1-7.854,40.947-17.472,9.415,16.3,40.424,26.472,47.212,28.531l4.646-15.31c-17.673-5.377-31.7-13.5-36.669-19.221,11.59-4.478,24.206-9.118,37.08-13.454,3.525,7.65,12.095,14.707,26.046,21.446a170.083,170.083,0,0,0,22.064,8.7l4.642-15.312c-15.088-4.574-32.368-13.227-37.271-19.851,20.073-6.225,40.015-11.272,56.942-13.388l-1.984-15.876c-16.858,2.107-36.25,6.852-55.776,12.744,2.7-11.931,10.055-23.872,13.647-28.646Z"/><path d="M159.338,188.57a344.365,344.365,0,0,1-14.649,40.181l14.622,6.5a366.449,366.449,0,0,0,15.756-43.278c.313.007.617.029.933.029,37.337,0,47.188-28.267,47.589-29.47l-15.178-5.06c-.059.176-5.887,16.793-28.812,18.394,4.25-16.079,7.68-32.026,10.425-46.785,1.329.112,2.644.189,3.928.189,23.669,0,39.574-18.431,45.2-29.69l-14.31-7.156a47.6,47.6,0,0,1-10.113,12.557c-6.648,5.817-14,8.568-21.932,8.253,5.174-31.471,7.023-54.616,7.177-56.619l-15.954-1.227c-.036.476-1.821,22.765-6.818,53.5-16.753-9.1-17.2-28.008-17.205-28.926L152,80h-8c0,12.022,6.574,35.418,30.367,45.236-2.781,15.064-6.274,31.393-10.617,47.75-4.836-2.595-9.079-6.857-12.686-12.763a62.981,62.981,0,0,1-7.223-17.812l-15.686,3.158C130.712,158.352,140.2,180.186,159.338,188.57Z"/><path d="M205.657,317.657l19.979-19.979c7.866,5.956,17.425,8.99,28.289,8.99a69.159,69.159,0,0,0,15.54-1.873,96.261,96.261,0,0,0,25.318-9.935l-8.22-13.727c-.32.19-29.746,17.4-49.432,5.05l36.505-36.5c7.866,5.956,17.425,8.99,28.289,8.99a69.159,69.159,0,0,0,15.54-1.873,96.261,96.261,0,0,0,25.318-9.935l-8.22-13.727c-.32.19-29.746,17.4-49.432,5.05l48.526-48.526-11.314-11.314-47.7,47.7c-8.575-19.487,6.713-45.64,6.893-45.941l-6.867-4.1-6.86-4.116a96.263,96.263,0,0,0-9.935,25.317c-3.653,15.826-1.922,29.683,4.946,40.667l-36.177,36.177c-8.575-19.487,6.713-45.64,6.893-45.941l-6.867-4.1-6.86-4.116a96.263,96.263,0,0,0-9.935,25.317c-3.653,15.826-1.922,29.683,4.946,40.667l-20.475,20.475Z"/></g></svg>
