<?xml version="1.0" encoding="iso-8859-1"?>
<!-- Generator: Adobe Illustrator 19.0.0, SVG Export Plug-In . SVG Version: 6.00 Build 0)  -->
<svg version="1.1" id="Capa_1" xmlns="http://www.w3.org/2000/svg" xmlns:xlink="http://www.w3.org/1999/xlink" x="0px" y="0px"
	 viewBox="0 0 512 512" style="enable-background:new 0 0 512 512;" xml:space="preserve">
<path style="fill:#D1E7F8;" d="M391.822,152.546L379.737,347.78l-8.996,145.22c-0.403,6.44-5.736,11.452-12.186,11.452H153.287
	c-6.45,0-11.784-5.021-12.186-11.452l-15.608-253.529l-5.354-86.925L391.822,152.546L391.822,152.546z"/>
<path style="fill:#C2DFF6;" d="M189.514,504.453h-36.227c-6.45,0-11.784-5.021-12.186-11.452l-15.608-253.529l-5.354-86.925h36.227
	l5.354,86.925l15.608,253.529C177.73,499.431,183.064,504.453,189.514,504.453z"/>
<path style="fill:#EBE5DD;" d="M335.379,171.812l-23.342-9.384l59.922-146.994c2.591-6.445,9.917-9.571,16.363-6.98l0,0
	c6.445,2.591,9.571,9.917,6.98,16.363L335.379,171.812z"/>
<path style="fill:#78B9EB;" d="M116.048,167.121c-8.249,0-15.138-6.47-15.565-14.801c-0.44-8.599,6.171-15.926,14.767-16.374
	c0.604-0.033,47.506-10.07,81.516-21.783c44.695-15.391,78.148-39.958,99.427-73.018c4.662-7.243,14.314-9.336,21.557-4.673
	s9.336,14.315,4.673,21.558c-24.967,38.786-65.227,68.505-116.43,85.946c-38.181,13.005-87.843,23.057-89.137,23.123
	C116.588,167.114,116.317,167.121,116.048,167.121z"/>
<path style="fill:#96C8EF;" d="M428.563,154.046v3.23c0,10.516-8.594,19.11-19.1,19.11H102.498c-10.506,0-19.1-8.594-19.1-19.11
	v-3.23c0-10.506,8.594-19.11,19.1-19.11h306.965c9.198,0,16.926,6.591,18.707,15.286
	C428.432,151.46,428.563,152.738,428.563,154.046z"/>
<path style="fill:#B3D8F4;" d="M428.17,150.222H132.688c-9.198,0-16.926-6.581-18.707-15.286h295.483
	C418.661,134.936,426.389,141.527,428.17,150.222z"/>
<path style="fill:#96C8EF;" d="M379.737,347.78l-7.245,116.913l-0.936,15.095l-0.815,13.213c-0.403,6.44-5.736,11.452-12.186,11.452
	H153.287c-6.45,0-11.784-5.021-12.186-11.452l-0.815-13.213l-0.926-15.095l-13.867-225.222
	C125.493,239.471,149.966,346.07,379.737,347.78z"/>
<g>
	<path style="fill:#78B9EB;" d="M302.471,273.003h-93.456c-15.774,0-28.68-12.906-28.68-28.68l0,0
		c0-15.774,12.906-28.68,28.68-28.68h93.456c15.774,0,28.68,12.906,28.68,28.68l0,0
		C331.151,260.097,318.245,273.003,302.471,273.003z"/>
	<path style="fill:#78B9EB;" d="M177.328,493.001L164.94,291.81c-33.51-26.466-39.447-52.338-39.447-52.338l13.867,225.222
		l0.926,15.095l0.815,13.213c0.403,6.43,5.736,11.452,12.186,11.452h36.227C183.064,504.453,177.73,499.431,177.328,493.001z"/>
</g>
<path d="M409.463,127.389h-47.82l28.116-68.993c1.58-3.854-0.282-8.262-4.136-9.832c-3.854-1.58-8.262,0.272-9.842,4.136
	l-30.451,74.688h-10.868l44.499-109.134c1.058-2.622,3.989-3.819,6.541-2.798c2.671,1.077,3.797,4.057,2.808,6.511l-1.127,2.777
	c-1.58,3.854,0.272,8.262,4.136,9.842c3.864,1.57,8.262-0.282,9.842-4.146c0.534-1.592,2.596-4.98,2.596-10.315
	c0-8.262-4.951-15.588-12.619-18.677C388.733,0.483,386.207,0,383.631,0c-8.262,0-15.598,4.951-18.667,12.589l-46.793,114.8h-58.134
	c28.67-17.198,51.986-39.256,68.731-65.269c16.637-25.83-22.579-50.495-38.914-25.057c-20.348,31.598-52.489,55.136-95.539,69.969
	c-26.486,9.117-61.747,17.409-75.071,20.358h-16.745c-14.692,0-26.647,11.955-26.647,26.657c0.04,0.101-1.065,29.887,26.647,29.887
	h12.005l19.07,309.531c0.634,10.395,9.298,18.536,19.714,18.536h205.267c10.415,0,19.07-8.141,19.714-18.536l19.18-309.531h12.015
	C445.041,183.933,445.046,127.389,409.463,127.389z M302.543,45.234c5.627-8.808,19.356-0.319,13.535,8.715
	c-20.016,31.095-50.356,56.182-88.575,73.44h-47.468C230.4,112.515,273.872,89.772,302.543,45.234z M372.64,340.136
	c-9.659-0.168-19.146-0.521-28.275-1.072c-4.166-0.261-7.736,2.918-7.988,7.079c-0.252,4.161,2.918,7.737,7.079,7.988
	c9.132,0.55,18.608,0.911,28.25,1.088l-6.778,109.471h-45.475c-4.168,0-7.547,3.378-7.547,7.547c0,4.169,3.379,7.547,7.547,7.547
	h44.539l-0.79,12.752c-0.151,2.445-2.194,4.367-4.649,4.367H153.286c-2.455,0-4.498-1.922-4.649-4.367l-0.786-12.752h141.413
	c4.168,0,7.547-3.378,7.547-7.547c0-4.169-3.379-7.547-7.547-7.547H146.922l-11.826-191.99
	c39.73,50.941,113.661,71.505,177.917,78.806c4.178,0.468,7.883-2.533,8.351-6.647c0.471-4.141-2.506-7.88-6.647-8.351
	c-84.262-9.574-129.293-36.075-152.231-56.621c-22.413-20.076-28.578-38.476-29.514-41.659l-3.345-54.297h252.684L372.64,340.136z
	 M409.463,168.839c-1.977,0.001-307.215,0.299-308.957,0c-11.159-1.946-9.492-14.566-9.56-14.793
	c0-6.303,5.128-11.563,11.552-11.563c38.987,0,275.095,0,306.965,0c6.37,0,11.552,5.182,11.552,11.563
	C420.98,154.146,422.526,168.839,409.463,168.839z"/>
<path d="M209.015,280.55h93.456c19.976,0,36.227-16.251,36.227-36.227s-16.251-36.227-36.227-36.227h-93.456
	c-19.976,0-36.227,16.251-36.227,36.227S189.04,280.55,209.015,280.55z M209.015,223.19h93.456c11.653,0,21.132,9.48,21.132,21.132
	c0,11.652-9.479,21.133-21.132,21.133h-93.456c-11.653,0-21.132-9.48-21.132-21.133C187.883,232.671,197.363,223.19,209.015,223.19z
	"/>
<path d="M228.172,367.763h-67.088c-4.168,0-7.547,3.378-7.547,7.547c0,4.169,3.379,7.547,7.547,7.547h67.088
	c4.168,0,7.547-3.378,7.547-7.547C235.72,371.141,232.341,367.763,228.172,367.763z"/>
<path d="M228.172,394.597h-67.088c-4.168,0-7.547,3.378-7.547,7.547c0,4.169,3.379,7.547,7.547,7.547h67.088
	c4.168,0,7.547-3.378,7.547-7.547C235.72,397.975,232.341,394.597,228.172,394.597z"/>
<path d="M228.172,421.432h-67.088c-4.168,0-7.547,3.378-7.547,7.547c0,4.169,3.379,7.547,7.547,7.547h67.088
	c4.168,0,7.547-3.378,7.547-7.547C235.72,424.81,232.341,421.432,228.172,421.432z"/>
<g>
</g>
<g>
</g>
<g>
</g>
<g>
</g>
<g>
</g>
<g>
</g>
<g>
</g>
<g>
</g>
<g>
</g>
<g>
</g>
<g>
</g>
<g>
</g>
<g>
</g>
<g>
</g>
<g>
</g>
</svg>
