<svg id="avocado_x5F_toast" enable-background="new 0 0 300 300" height="512" viewBox="0 0 300 300" width="512" xmlns="http://www.w3.org/2000/svg"><g><circle cx="133.701" cy="144.94" fill="#eaeaea" r="92"/><g><path d="m235.701 148.94h-96c-9.941 0-18 8.059-18 18s8.059 18 18 18h2v68h92v-68h2c9.941 0 18-8.059 18-18s-8.059-18-18-18z" fill="#bf7e68"/><path d="m233.701 256.94h-92c-2.211 0-4-1.791-4-4v-64.09c-11.199-1.014-20-10.453-20-21.91 0-12.131 9.871-22 22-22h96c12.129 0 22 9.869 22 22 0 11.457-8.801 20.896-20 21.91v64.09c0 2.209-1.789 4-4 4zm-88-8h84v-64c0-2.209 1.789-4 4-4h2c7.719 0 14-6.281 14-14s-6.281-14-14-14h-96c-7.719 0-14 6.281-14 14s6.281 14 14 14h2c2.211 0 4 1.791 4 4z" fill="#4c241d"/></g><g fill="#4c241d"><path d="m69.701 56.94c-2.211 0-4-1.791-4-4v-8c0-2.209 1.789-4 4-4s4 1.791 4 4v8c0 2.209-1.789 4-4 4z"/><path d="m69.701 80.94c-2.211 0-4-1.791-4-4v-8c0-2.209 1.789-4 4-4s4 1.791 4 4v8c0 2.209-1.789 4-4 4z"/><path d="m61.701 64.94h-8c-2.211 0-4-1.791-4-4s1.789-4 4-4h8c2.211 0 4 1.791 4 4s-1.789 4-4 4z"/><path d="m85.701 64.94h-8c-2.211 0-4-1.791-4-4s1.789-4 4-4h8c2.211 0 4 1.791 4 4s-1.789 4-4 4z"/><path d="m215.701 88.94c-7.719 0-14-6.281-14-14s6.281-14 14-14 14 6.281 14 14-6.281 14-14 14zm0-20c-3.309 0-6 2.691-6 6s2.691 6 6 6 6-2.691 6-6-2.692-6-6-6z"/><circle cx="134.029" cy="39.331" r="4.276"/><circle cx="262.029" cy="103.331" r="4.276"/></g><g><path d="m129.99 145.069c.151-2.455.064-4.976-.286-7.543-2.319-16.994-16.338-30.598-33.397-32.374-22.703-2.364-41.871 15.38-41.871 37.601 0 1.032.042 2.053.124 3.064.931 11.415-2.978 22.544-8.941 32.322-6.234 10.223-9.195 22.652-7.4 35.868 3.312 24.397 23.352 43.89 47.824 46.59 32.905 3.631 60.753-22.035 60.753-54.205 0-10.396-2.921-20.096-7.978-28.351-6.098-9.954-9.544-21.321-8.828-32.972z" fill="#77a052"/><path d="m92.345 264.945c-2.23 0-4.477-.125-6.738-.373-26.211-2.893-47.809-23.932-51.352-50.027-1.852-13.619.898-26.93 7.949-38.49 6.324-10.369 9.141-20.434 8.367-29.914-.09-1.117-.137-2.248-.137-3.389 0-11.822 5.039-23.146 13.828-31.066 8.91-8.033 20.441-11.766 32.457-10.514 18.844 1.963 34.383 17.025 36.949 35.813.375 2.793.48 5.594.312 8.328-.625 10.213 2.227 20.809 8.246 30.639 5.605 9.143 8.566 19.67 8.566 30.439 0 16.625-7.105 32.525-19.5 43.625-10.876 9.746-24.509 14.929-38.947 14.929zm-.132-156.007c-8.391 0-16.301 3.02-22.594 8.689-7.105 6.406-11.184 15.564-11.184 25.125 0 .922.039 1.838.113 2.74.91 11.201-2.289 22.885-9.516 34.729-6.082 9.973-8.449 21.469-6.848 33.246 3.055 22.512 21.684 40.658 44.297 43.152 14.633 1.613 28.629-2.854 39.477-12.562 10.699-9.584 16.836-23.312 16.836-37.666 0-9.293-2.555-18.375-7.387-26.26-6.883-11.238-10.137-23.447-9.41-35.307 0-.002 0-.002 0-.004.137-2.213.051-4.486-.258-6.758-2.07-15.178-14.625-27.348-29.848-28.934-1.233-.128-2.464-.19-3.678-.19z" fill="#4c241d"/></g><g><path d="m115.953 147.66c.432-2.095.593-4.289.445-6.545-.813-12.341-11.424-22.384-23.79-22.563-13.531-.196-24.561 10.714-24.561 24.2 0 1.635.162 3.232.472 4.775 2.473 12.335-1.674 24.911-9.079 35.082-5.368 7.373-8.304 16.628-7.63 26.599 1.377 20.363 18.44 36.901 38.834 37.688 23.118.892 42.14-17.585 42.14-40.504 0-9.221-3.082-17.713-8.27-24.514-7.494-9.822-11.058-22.119-8.561-34.218z" fill="#a9ba5a"/><path d="m92.267 250.928c-.594 0-1.184-.012-1.777-.035-22.418-.863-41.16-19.057-42.672-41.416-.707-10.441 2.273-20.82 8.387-29.221 7.48-10.273 10.461-21.617 8.391-31.943-.367-1.826-.551-3.697-.551-5.561 0-7.611 2.984-14.744 8.406-20.088 5.32-5.242 12.332-8.113 19.789-8.113.145 0 .285 0 .426.002 14.344.207 26.781 12.004 27.723 26.299.168 2.564-.004 5.125-.516 7.611v.006c-2.145 10.367.707 21.66 7.82 30.982 5.945 7.795 9.09 17.111 9.09 26.939 0 12.223-4.852 23.621-13.66 32.096-8.375 8.061-19.278 12.442-30.856 12.442zm-.023-128.377c-5.344 0-10.367 2.057-14.176 5.813-3.883 3.826-6.023 8.938-6.023 14.389 0 1.338.133 2.68.395 3.99 2.516 12.545-.953 26.119-9.766 38.221-5.086 6.986-7.461 15.275-6.871 23.975 1.238 18.334 16.609 33.252 34.992 33.963 10.082.379 19.562-3.229 26.781-10.178 7.227-6.955 11.207-16.305 11.207-26.332 0-8.061-2.574-15.697-7.449-22.088-8.516-11.162-11.906-24.812-9.297-37.445.367-1.787.488-3.631.367-5.48-.672-10.232-9.578-18.678-19.855-18.824-.102-.004-.204-.004-.305-.004zm23.711 25.109h.039z" fill="#4c241d"/></g><circle cx="101.329" cy="172.014" fill="#4c241d" r="4.276"/><circle cx="81.329" cy="172.014" fill="#4c241d" r="4.276"/><g><circle cx="91.701" cy="206.94" fill="#bf7e68" r="22"/><path d="m91.701 232.94c-14.336 0-26-11.664-26-26s11.664-26 26-26 26 11.664 26 26-11.664 26-26 26zm0-44c-9.926 0-18 8.074-18 18s8.074 18 18 18 18-8.074 18-18-8.074-18-18-18z" fill="#4c241d"/></g><g><path d="m221.701 236.94h-68v-5.143c0-5.996 4.861-10.857 10.857-10.857h46.286c5.996 0 10.857 4.861 10.857 10.857z" fill="#a9ba5a"/><path d="m221.701 240.94h-68c-2.211 0-4-1.791-4-4v-5.143c0-8.193 6.664-14.857 14.855-14.857h46.289c8.191 0 14.855 6.664 14.855 14.857v5.143c.001 2.209-1.788 4-3.999 4zm-64-8h60v-1.143c0-3.781-3.074-6.857-6.855-6.857h-46.289c-3.781 0-6.855 3.076-6.855 6.857v1.143z" fill="#4c241d"/></g><g><path d="m221.701 220.94h-68v-5.143c0-5.996 4.861-10.857 10.857-10.857h46.286c5.996 0 10.857 4.861 10.857 10.857z" fill="#a9ba5a"/><path d="m221.701 224.94h-68c-2.211 0-4-1.791-4-4v-5.143c0-8.193 6.664-14.857 14.855-14.857h46.289c8.191 0 14.855 6.664 14.855 14.857v5.143c.001 2.209-1.788 4-3.999 4zm-64-8h60v-1.143c0-3.781-3.074-6.857-6.855-6.857h-46.289c-3.781 0-6.855 3.076-6.855 6.857v1.143z" fill="#4c241d"/></g><g><path d="m221.701 204.94h-68v-5.143c0-5.996 4.861-10.857 10.857-10.857h46.286c5.996 0 10.857 4.861 10.857 10.857z" fill="#a9ba5a"/><path d="m221.701 208.94h-68c-2.211 0-4-1.791-4-4v-5.143c0-8.193 6.664-14.857 14.855-14.857h46.289c8.191 0 14.855 6.664 14.855 14.857v5.143c.001 2.209-1.788 4-3.999 4zm-64-8h60v-1.143c0-3.781-3.074-6.857-6.855-6.857h-46.289c-3.781 0-6.855 3.076-6.855 6.857v1.143z" fill="#4c241d"/></g></g></svg>