<svg id="Capa_1" enable-background="new 0 0 510 510" height="512" viewBox="0 0 510 510" width="512" xmlns="http://www.w3.org/2000/svg"><g><g><g><g><path d="m67.5 352.496h375.001v150.005h-375.001z" fill="#b6e6fa"/></g><g><path d="m90 480.001v-127.505h-22.5v150.005h375.001v-22.5z" fill="#94b7f7"/></g><g><path d="m291.5 502.501h151.001v-150.005z" fill="#b6e6fa"/></g><g><path d="m347.999 479.501 94.502-93.878v-33.127l-151.001 150.005h151.001v-23z" fill="#94b7f7"/></g><g><path d="m417.499 52.508h-323.997l-26.002 24.994v274.994h375.001v-274.994z" fill="#fcc062"/></g><g><path d="m90 329.996v-274.128l-22.5 21.634v274.994h375.001v-22.334z" fill="#fbb03b"/></g><g><path d="m104.5 82.5-7 7v262.996h315.001v-269.996z" fill="#faef93"/></g><g><path d="m119.167 330.829v-248.329h-14.667l-7 7v262.996h315.001v-21.667z" fill="#fde31d"/></g><g><path d="m97.5 7.5v45.008h224.334v59.993c0 8.284 6.716 15 15 15h.333c8.284 0 15-6.716 15-15v-15.001c0-8.284 6.716-15 15-15h.334c8.284 0 15 6.716 15 15v45c0 8.284 6.716 15 15 15s15-6.716 15-15v-135z" fill="#faef93"/></g><g><g><path d="m344.834 89.501v-59.993h-224.334v-22.008h-23v45.008h224.334v59.993c0 8.284 6.716 15 15 15h.333c8.284 0 15-6.716 15-15v-10.125c-4.386-2.617-7.333-7.396-7.333-12.875z" fill="#fde31d"/></g><g><g><path d="m409.623 129.81c-2.727 3.746-7.134 6.191-12.122 6.191-8.284 0-15-6.716-15-15v21.499c0 8.284 6.716 15 15 15s15-6.716 15-15v-10.327c-1.056-.667-2.022-1.463-2.878-2.363z" fill="#fde31d"/></g></g></g><g><path d="m90 374.5h15v15h-15z" fill="#fff"/></g><g><path d="m120 374.5h15v15h-15z" fill="#fff"/></g></g></g><g><path d="m420 42.007v-42.007h-330v42.007l-30 29.386v438.607h390v-30.5h-15v15.5h-124.398l124.398-124.398v63.898h15v-363.206zm15 35.699v267.29h-15v-165.496h-15v165.496h-300v-252.39l2.606-2.606h206.728v22.501c0 29.098 45.333 29.134 45.333 0v-15.001c0-9.639 15.334-9.776 15.334 0v45c0 28.937 45 29.018 45 0v-79.136zm-360-.099 17.605-17.599h206.895v-15h-194.5v-30.008h300v127.5c0 9.672-15 9.672-15 0v-45c0-29.098-45.334-29.135-45.334 0v15.001c0 9.639-15.333 9.776-15.333 0v-83.001h-15v45.5h-212.94l-11.393 11.394v258.602h-15zm0 417.393v-135.004h349.394l-135.004 135.004z"/><path d="m435 449.5h15v15h-15z"/><path d="m163.305 184.986h75v15h-75z" transform="matrix(.707 -.707 .707 .707 -77.294 198.368)"/><path d="m154.754 206.434h135v15h-135z" transform="matrix(.707 -.707 .707 .707 -86.178 219.818)"/><path d="m269.37 291.051h75v15h-75z" transform="matrix(.707 -.707 .707 .707 -121.227 304.433)"/><path d="m218.629 270.31h135v15h-135z" transform="matrix(.707 -.707 .707 .707 -112.636 283.693)"/><path d="m156.95 254.164h120.001v15h-120.001z" transform="matrix(.707 -.707 .707 .707 -121.481 230.048)"/><path d="m267.787 195.827h15v15h-15z" transform="matrix(.707 -.707 .707 .707 -63.143 254.218)"/><path d="m286.803 169.311h30v15h-30z" transform="matrix(.707 -.707 .707 .707 -36.628 265.194)"/><path d="m191.58 307.433h30v15h-30z" transform="matrix(.707 -.707 .707 .707 -162.186 238.316)"/><path d="m225.596 280.917h15v15h-15z" transform="matrix(.707 -.707 .707 .707 -135.668 249.291)"/><path d="m231.432 222.58h120v15h-120z" transform="matrix(.707 -.707 .707 .707 -77.333 273.463)"/></g></g></svg>