<svg id="Capa_1" enable-background="new 0 0 512 512" height="512" viewBox="0 0 512 512" width="512" xmlns="http://www.w3.org/2000/svg"><g><g><path d="m207.748 143.837-109.478-123.529c-15.225-17.105-41.692-16.995-56.783-.165-14.025 15.64-12.715 39.687 2.924 53.712l122.887 110.198c10.657 9.578 27.04 9.842 38.019.111 11.807-10.465 12.895-28.52 2.431-40.327z" fill="#c7c5cb"/><path d="m353.395 66.772h-16.523c-9.316 0-17.426 6.1-20.31 14.959-6.297 19.344-24.476 33.325-45.921 33.325s-39.624-13.981-45.921-33.325c-2.884-8.858-10.994-14.959-20.31-14.959h-16.523c-18.452 0-31.583 18.019-25.845 35.557 14.948 45.684 57.92 78.684 108.599 78.684s93.651-33 108.599-78.684c5.738-17.538-7.393-35.557-25.845-35.557z" fill="#f9ed80"/><path d="m196.111 153.353c18.172-15.86 38.64-29.441 60.897-40.252-15.26-4.483-27.382-16.297-32.289-31.371-2.884-8.858-10.994-14.959-20.31-14.959h-16.523c-18.452 0-31.583 18.02-25.845 35.557 6.549 20.012 18.475 37.589 34.07 51.025z" fill="#f9d888"/><path d="m147.863 191.349h249.028v109.696h-249.028z" fill="#ffbe73"/><path d="m442.297 254.734c0-58.216-47.194-105.41-105.41-105.41-25.099 0-48.144 8.778-66.247 23.423l34.465 50.778c8.084-8.231 19.334-13.342 31.782-13.342 24.605 0 44.551 19.946 44.551 44.551z" fill="#ffca8a"/><path d="m159.843 254.734c0-24.605 19.946-44.551 44.551-44.551s44.551 19.946 44.551 44.551h60.859c0-58.216-47.194-105.41-105.41-105.41s-105.41 47.194-105.41 105.41z" fill="#f9d888"/><path d="m81.847 286.689v140.396c0 42.755 34.66 77.414 77.414 77.414h222.759c42.755 0 77.414-34.66 77.414-77.414v-140.396z" fill="#ff6f7f"/><path d="m200.753 149.393c-56.53 1.92-101.769 48.343-101.769 105.34h25.764c15.632-40.904 42.03-77.011 76.005-105.34z" fill="#ffbe73"/><path d="m108.775 341.241c0-18.722 2.16-36.968 6.224-54.552h-33.152v140.396c0 42.755 34.66 77.415 77.414 77.415h12.074c-39.084-44.385-62.56-101.256-62.56-163.259z" fill="#fc5c70"/><path d="m437.234 243.691h-333.187c-23.747 0-42.998 19.251-42.998 42.998 0 23.747 19.251 42.998 42.998 42.998h333.187c23.747 0 42.998-19.251 42.998-42.998 0-23.747-19.251-42.998-42.998-42.998z" fill="#dcdcdc"/><g><g><g><ellipse cx="167.048" cy="427.081" fill="#fff" rx="38.223" ry="30.439"/></g><g><ellipse cx="374.233" cy="427.081" fill="#fff" rx="38.224" ry="30.439"/></g></g></g><path d="m129.282 243.691h-25.235c-23.747 0-42.998 19.251-42.998 42.999 0 23.747 19.251 42.998 42.998 42.998h5.018c1.435-30.331 8.492-59.291 20.217-85.997z" fill="#cececc"/></g><g><path d="m189.313 405.279c4.142 0 7.5-3.358 7.5-7.5v-15.626c0-4.142-3.358-7.5-7.5-7.5s-7.5 3.358-7.5 7.5v15.626c0 4.141 3.358 7.5 7.5 7.5z"/><path d="m351.946 405.279c4.142 0 7.5-3.358 7.5-7.5v-15.626c0-4.142-3.358-7.5-7.5-7.5s-7.5 3.358-7.5 7.5v15.626c0 4.141 3.358 7.5 7.5 7.5z"/><path d="m297.723 402.24c2.721-3.122 2.396-7.86-.727-10.581-3.123-2.722-7.86-2.397-10.582.727-8.359 9.592-23.218 9.582-31.569 0-2.722-3.123-7.459-3.448-10.582-.727s-3.448 7.459-.727 10.581c14.34 16.454 39.863 16.436 54.187 0z"/><path d="m353.385 59.268h-16.523c-12.493 0-23.521 8.093-27.442 20.138-5.48 16.835-21.069 28.146-38.789 28.146-17.721 0-33.31-11.311-38.79-28.146-3.921-12.045-14.949-20.137-27.442-20.137h-16.523c-12.234 0-23.439 6.205-29.898 17.111l-54.116-61.061c-18.26-20.514-49.957-20.274-67.972-.187-16.763 18.693-15.192 47.539 3.501 64.303l95.899 85.996c-23.295 18.051-38.182 43.935-42.5 72.036-22.448 5.127-39.254 25.241-39.254 49.221 0 16.75 8.204 31.613 20.798 40.805v99.592c0 46.822 38.093 84.915 84.915 84.915h222.76c46.822 0 84.915-38.093 84.915-84.915v-99.592c12.594-9.192 20.798-24.055 20.798-40.805 0-23.984-16.812-44.101-39.267-49.224-2.934-19.087-10.716-37.097-22.717-52.388-2.559-3.259-7.273-3.826-10.531-1.269-3.258 2.558-3.826 7.272-1.269 10.531 9.657 12.303 16.174 26.632 19.095 41.851h-47.505c-11.884-31.287-49.668-42.96-76.992-25.134-6.128-14.629-15.136-27.393-25.964-37.777 33.652-22.408 77.949-22.033 111.221 1.781 3.368 2.41 8.053 1.634 10.464-1.734 2.411-3.369 1.635-8.053-1.733-10.464-11.783-8.433-24.872-14.418-38.695-17.798 10.007-11.908 17.703-25.656 22.529-40.405 7.319-22.368-9.352-45.39-32.973-45.39zm-303.979 8.999c-12.536-11.241-13.589-30.585-2.348-43.121 11.867-13.232 33.118-13.876 45.588.134l60.524 68.292c-.229 15.588 14.179 39.54 24.26 51.506-10.263 2.517-20.116 6.463-29.283 11.734zm89.155 113.98c56.853-51.658 147.726-20.349 161.976 53.942h-47.503c-7.594-19.993-26.832-33.509-48.652-33.509s-41.057 13.515-48.651 33.509h-47.506c3.969-20.689 14.551-39.599 30.336-53.942zm97.912 53.942h-64.181c14.206-24.616 49.932-24.691 64.181 0zm204.456 15.194c17.839 1.858 31.794 16.982 31.794 35.305 0 13.254-7.306 24.826-18.097 30.923-11.442 6.437 3.613 4.463-279.892 4.575-4.142 0-7.5 3.358-7.5 7.5 0 4.131 3.347 7.5 7.5 7.5 286.082-.185 266.687 1.008 277.191-2.182v92.08c0 38.552-31.364 69.915-69.915 69.915h-222.76c-38.552 0-69.915-31.363-69.915-69.915v-92.08c11.101 3.371 15.891 1.802 55.399 2.182 4.123 0 7.5-3.336 7.5-7.5 0-4.142-3.358-7.5-7.5-7.5-44.076-.218-47.388 1.453-58.095-4.573-10.794-6.096-18.102-17.671-18.102-30.926 0-19.655 16.009-35.498 35.498-35.498 356.851 0 333.977-.107 336.894.194zm-104.052-33.703c13.499 0 25.603 7.268 32.09 18.508h-53.202c-.572-3.46-1.304-6.879-2.19-10.25 6.577-5.346 14.705-8.258 23.302-8.258zm35.225-117.687c-5.179 15.828-14.124 30.355-25.963 42.209-26.897-2.176-53.716 5.311-75.506 21.098-22.516-16.339-49.84-23.344-75.51-21.097-10.299-10.236-28.405-36.043-26.836-50.411 1.02-9.432 9.021-17.524 19.589-17.524h16.523c5.978 0 11.274 3.931 13.178 9.78 7.497 23.03 28.818 38.503 53.054 38.503s45.556-15.473 53.053-38.503c1.904-5.85 7.2-9.781 13.178-9.781h16.523c13.376.001 22.87 13.034 18.717 25.726z"/></g></g></svg>