<svg id="Layer_1" enable-background="new 0 0 512 512" height="512" viewBox="0 0 512 512" width="512" xmlns="http://www.w3.org/2000/svg"><g><g><path d="m296.28 10.767c-24.682 0-48.381 9.675-66.01 26.949l-222.77 218.284 222.77 218.284c17.629 17.274 41.327 26.949 66.009 26.949h.001c118.084-19.249 208.22-121.707 208.22-245.233s-90.136-225.983-208.22-245.233z" fill="#efedff"/><path d="m189.179 406.125c-28.699-43.794-44.821-95.73-44.821-150.125 0-58.904 18.902-114.927 52.214-160.847 25.475-35.117 59.375-64.327 99.708-84.387-13.113-2.136-26.563-3.266-40.28-3.266-137.242 0-248.5 111.258-248.5 248.5s111.258 248.5 248.5 248.5c13.716 0 27.167-1.129 40.28-3.266-44.371-22.069-80.955-55.21-107.101-95.109z" fill="#d4d4ff"/></g><g><path d="m427.034 126.192c-8.192-2.825-15.476-7.922-20.17-15.205-5.782-8.972-15.505-14.67-26.037-15.484-8.965-.692-17.441-4.131-24.246-10.009-7.855-6.786-18.478-9.637-28.678-7.689-8.805 1.681-17.859.483-25.93-3.417-9.332-4.51-20.301-4.506-29.629.009-8.101 3.922-17.186 5.053-26.033 3.4-10.172-1.901-20.802.923-28.664 7.773-5.967 5.199-13.29 8.434-21.076 9.584l-61.585 61.585v249.387h54.192l108.478-108.468 137.254-137.242c10.621-10.62 6.945-29.115-7.876-34.224z" fill="#ffce71"/><path d="m196.572 95.153c-1.011.149-2.028.268-3.052.346-10.313.792-19.835 6.266-25.657 14.895-4.989 7.395-12.241 12.896-20.665 15.831-9.796 3.412-17.561 11.184-20.976 20.971-2.949 8.453-8.49 15.701-15.9 20.726-8.604 5.835-14.1 15.364-14.857 25.721-.654 8.938-4.159 17.367-10.009 24.157-6.772 7.861-9.628 18.485-7.661 28.699 1.695 8.799.453 17.844-3.433 25.918-4.487 9.324-4.493 20.291.04 29.624 3.927 8.085 5.031 17.165 3.383 26.001-1.896 10.163.923 20.785 7.766 28.645 5.856 6.726 9.264 15.166 9.921 24.059.781 10.561 6.488 20.254 15.392 26.045 7.771 5.054 12.405 12.183 15.473 20.699 5.115 14.188 23.393 18.079 34.059 7.414l28.782-28.779c-28.699-43.794-44.821-95.73-44.821-150.125.001-58.904 18.903-114.927 52.215-160.847z" fill="#ffb357"/></g><g fill="#30cd9c"><path d="m378.084 280.869c18.558-18.558 25.346-44.42 20.383-68.331-1.641-7.904-7.789-14.052-15.692-15.692-23.911-4.963-49.772 1.825-68.331 20.383-21.745 21.745-27.33 53.515-16.788 80.427 26.913 10.543 58.684 4.958 80.428-16.787z"/><path d="m267.657 343.484c0 17.497 8.991 32.888 22.603 41.82 4.499 2.952 10.296 2.952 14.795 0 13.611-8.932 22.603-24.323 22.603-41.82 0-20.501-12.344-38.111-30-45.828-17.657 7.718-30.001 25.327-30.001 45.828z"/></g><g fill="#0caf7b"><path d="m189.348 227.959c-5.857-5.858-15.355-5.858-21.213 0s-5.858 15.355 0 21.213l11.855 11.855c5.858 5.859 15.356 5.858 21.213 0 5.858-5.858 5.858-15.355 0-21.213z"/><path d="m169.99 327.959-11.855 11.855c-5.858 5.858-5.858 15.355 0 21.213 5.858 5.859 15.356 5.858 21.213 0l11.855-11.855c5.858-5.858 5.858-15.355 0-21.213-5.857-5.858-15.355-5.858-21.213 0z"/><path d="m124.669 264.111c-8.284 0-15 6.716-15 15v16.766c0 8.284 6.716 15 15 15s15-6.716 15-15v-16.766c0-8.284-6.716-15-15-15z"/><path d="m364.669 123.111c-8.284 0-15 6.716-15 15v16.766c0 8.284 6.716 15 15 15s15-6.716 15-15v-16.766c0-8.284-6.716-15-15-15z"/></g><g fill="#ff8e9e"><ellipse cx="164.628" cy="183.3" rx="27.5" ry="21.9"/><ellipse cx="317.752" cy="183.3" rx="27.5" ry="21.9"/></g><g><path d="m186.241 169.394v-12c0-4.142-3.358-7.5-7.5-7.5s-7.5 3.358-7.5 7.5v12c0 4.142 3.358 7.5 7.5 7.5s7.5-3.358 7.5-7.5z"/><path d="m296.139 157.394v12c0 4.142 3.358 7.5 7.5 7.5s7.5-3.358 7.5-7.5v-12c0-4.142-3.358-7.5-7.5-7.5s-7.5 3.358-7.5 7.5z"/><path d="m219.799 163.383c-3.123 2.721-3.448 7.458-.727 10.582 5.578 6.402 13.64 10.073 22.118 10.073s16.54-3.671 22.119-10.073c2.721-3.123 2.396-7.86-.727-10.582-3.123-2.721-7.86-2.396-10.582.727-2.729 3.132-6.669 4.928-10.81 4.928s-8.081-1.796-10.81-4.928c-2.721-3.123-7.459-3.448-10.581-.727z"/><path d="m238.828 113.5h12c4.142 0 7.5-3.358 7.5-7.5s-3.358-7.5-7.5-7.5h-12c-4.142 0-7.5 3.358-7.5 7.5s3.358 7.5 7.5 7.5z"/><path d="m313.767 125.546c1.464 1.464 3.384 2.197 5.303 2.197s3.839-.732 5.303-2.197c2.929-2.929 2.929-7.678 0-10.606l-8.485-8.485c-2.929-2.929-7.678-2.929-10.606 0-2.929 2.929-2.929 7.678 0 10.606z"/><path d="m245.282 216.454c-2.929 2.929-2.929 7.678 0 10.606l8.485 8.485c1.464 1.464 3.384 2.197 5.303 2.197s3.839-.732 5.303-2.197c2.929-2.929 2.929-7.678 0-10.606l-8.485-8.485c-2.929-2.929-7.678-2.929-10.606 0z"/><path d="m235.888 305.546 8.485-8.485c2.929-2.929 2.929-7.678 0-10.606-2.929-2.929-7.678-2.929-10.606 0l-8.485 8.485c-2.929 2.929-2.929 7.678 0 10.606 2.929 2.929 7.677 2.929 10.606 0z"/><path d="m134.374 235.546c2.929-2.929 2.929-7.678 0-10.606l-8.485-8.485c-2.929-2.929-7.678-2.929-10.606 0-2.929 2.929-2.929 7.678 0 10.606l8.485 8.485c2.928 2.929 7.677 2.929 10.606 0z"/><path d="m117.328 350v12c0 4.142 3.358 7.5 7.5 7.5s7.5-3.358 7.5-7.5v-12c0-4.142-3.358-7.5-7.5-7.5s-7.5 3.358-7.5 7.5z"/><path d="m206.506 234.512-11.855-11.855c-8.791-8.793-23.026-8.796-31.82 0-8.793 8.792-8.795 23.026 0 31.819l11.855 11.855c8.791 8.793 23.026 8.796 31.82 0 8.794-8.792 8.795-23.026 0-31.819zm-10.607 21.213c-2.931 2.931-7.675 2.93-10.605 0l-11.855-11.855c-2.931-2.931-2.932-7.675 0-10.607 2.93-2.93 7.674-2.932 10.606 0l11.855 11.855c2.931 2.931 2.932 7.675-.001 10.607z"/><path d="m184.651 366.331 11.855-11.855c8.792-8.791 8.795-23.025 0-31.819-8.791-8.793-23.026-8.796-31.82 0l-11.855 11.855c-8.794 8.793-8.794 23.024 0 31.819 8.791 8.793 23.026 8.796 31.82 0zm-21.213-21.213 11.856-11.856c2.93-2.93 7.674-2.932 10.606 0 2.931 2.931 2.931 7.675 0 10.606l-11.856 11.856c-2.931 2.931-7.675 2.93-10.605 0-2.932-2.931-2.932-7.675-.001-10.606z"/><path d="m147.169 295.877v-16.766c0-12.407-10.093-22.5-22.5-22.5s-22.5 10.093-22.5 22.5v16.766c0 12.407 10.093 22.5 22.5 22.5s22.5-10.093 22.5-22.5zm-15 0c0 4.136-3.364 7.5-7.5 7.5s-7.5-3.364-7.5-7.5v-16.766c0-4.136 3.364-7.5 7.5-7.5s7.5 3.364 7.5 7.5z"/><path d="m387.169 154.877v-16.766c0-12.407-10.094-22.5-22.5-22.5s-22.5 10.093-22.5 22.5v16.766c0 12.407 10.094 22.5 22.5 22.5s22.5-10.093 22.5-22.5zm-30 0v-16.766c0-4.136 3.364-7.5 7.5-7.5s7.5 3.364 7.5 7.5v16.766c0 4.136-3.364 7.5-7.5 7.5s-7.5-3.364-7.5-7.5z"/><path d="m429.479 119.102c-7.118-2.455-12.759-6.666-16.312-12.178-6.984-10.837-18.858-17.902-31.764-18.898-7.486-.579-14.375-3.417-19.92-8.207-9.662-8.348-22.607-11.742-34.987-9.381-7.107 1.357-14.506.461-21.26-2.803-5.586-2.7-11.833-4.127-18.067-4.127-6.242 0-12.499 1.431-18.094 4.139-12.485 6.044-20.933 2.071-29.027 2.071-10.075 0-19.781 3.622-27.329 10.198-5.425 4.727-12.263 7.53-19.775 8.106-12.571.965-24.272 7.761-31.3 18.178-4.067 6.029-9.917 10.505-16.915 12.943-11.879 4.138-21.446 13.703-25.59 25.583-2.438 6.987-6.943 12.862-13.028 16.99-10.431 7.074-17.208 18.806-18.127 31.381-.538 7.347-3.377 14.197-8.211 19.809-8.295 9.628-11.737 22.56-9.344 35.012 1.395 7.242.337 14.677-2.827 21.248-5.38 11.18-5.571 24.573.052 36.153 3.278 6.747 4.091 14.189 2.757 21.348-2.268 12.148.946 25.142 9.482 34.945 4.749 5.455 7.549 12.262 8.098 19.687.951 12.87 7.973 24.75 18.783 31.78 5.701 3.708 9.675 9.095 12.506 16.955 7.049 19.552 31.985 24.608 46.417 10.174l49.739-49.734c2.929-2.929 2.93-7.678.001-10.606-2.93-2.93-7.678-2.929-10.607-.001l-49.74 49.735c-6.783 6.783-18.443 4.379-21.699-4.653-3.942-10.942-9.974-18.938-18.44-24.444-6.907-4.492-11.393-12.085-12.001-20.311-.79-10.682-4.851-20.514-11.745-28.432-5.376-6.174-7.518-14.468-6.049-22.345 1.893-10.155.746-20.86-4.01-30.652-3.513-7.232-3.535-15.808-.029-23.094 8.268-17.178 3.566-29.928 3.566-35.57 0-6.394 2.292-12.575 6.453-17.405 6.95-8.068 11.032-17.925 11.806-28.504.588-8.04 4.92-15.54 11.587-20.062 8.773-5.95 15.264-14.409 18.771-24.463 2.65-7.598 8.767-13.713 16.361-16.359 10.08-3.512 18.522-9.984 24.415-18.719 4.488-6.653 11.97-10.994 20.013-11.611 10.755-.825 20.604-4.89 28.481-11.753 4.816-4.196 11.022-6.507 17.475-6.507 5.518 0 18.667 4.609 35.563-3.57 7.131-3.452 15.966-3.456 23.098-.007 9.427 4.555 20.322 5.993 30.599 4.032 7.938-1.514 16.22.685 22.369 5.998 7.988 6.901 17.868 10.985 28.572 11.812 8.258.638 15.851 5.149 20.31 12.069 5.393 8.366 13.701 14.671 24.031 18.233 9.458 3.26 11.803 15.041 5.017 21.83l-37.371 37.368c-2.462-1.381-5.129-2.395-7.937-2.977-61.447-12.758-113.697 44.884-95.836 104.458-9.969 5.869-17.93 14.59-22.88 25.159l-39.504 39.5c-2.929 2.929-2.929 7.678 0 10.607 2.93 2.929 7.677 2.929 10.607 0l23.518-23.516c.712 18.573 10.291 35.594 25.94 45.863 6.992 4.588 16.031 4.589 23.024 0 27.406-17.984 34.1-54.848 15.46-81.251.135.001.27.009.405.009 52.095 0 91.467-47.821 80.778-99.32-.583-2.803-1.594-5.466-2.972-7.924l37.373-37.37c14.447-14.443 9.5-39.647-10.73-46.619zm-128.54 259.932c-1.994 1.309-4.57 1.309-6.565 0-23.862-15.659-25.751-49.702-4.217-67.957v31.511c0 4.142 3.358 7.5 7.5 7.5s7.5-3.358 7.5-7.5v-31.49c21.551 18.308 19.628 52.289-4.218 67.936zm10.951-85.004 39.678-39.678c2.929-2.929 2.929-7.678 0-10.606-2.93-2.929-7.678-2.929-10.607 0l-39.677 39.678c-9.376-47.191 32.382-89.106 79.968-79.235 4.977 1.033 8.839 4.891 9.873 9.874 9.875 47.577-32.042 89.342-79.235 79.967z"/><path d="m256 0c-62.936 0-123.436 23.051-170.354 64.907-3.091 2.757-3.361 7.499-.604 10.589 2.757 3.092 7.499 3.362 10.589.604 44.167-39.401 101.121-61.1 160.369-61.1 135.218 0 241 108.483 241 241 0 132.888-108.112 241-241 241s-241-108.112-241-241c0-58.714 21.356-115.28 60.133-159.278 2.739-3.107 2.44-7.847-.667-10.585-3.106-2.738-7.846-2.44-10.585.667-41.194 46.739-63.881 106.828-63.881 169.196 0 141.489 114.497 256 256 256 140.96 0 256-114.008 256-256 0-141.597-114.924-256-256-256z"/></g></g></svg>