<svg id="Layer_1" enable-background="new 0 0 512 512" viewBox="0 0 512 512" xmlns="http://www.w3.org/2000/svg"><path d="m374.5 255.8c-13.3-3.8-25.1-11.8-33.4-22.9l-.2.1c-4.8 4.2-9.8 7.9-15.1 11.3l-23.4 50.3-34.7 74.3 26.5 13.2 86.7-123.9.1-.9c-2.2-.4-4.4-.9-6.5-1.5z" fill="#becc69"/><path d="m345.1 237.8c-1.4-1.6-2.8-3.2-4.1-4.9l-.2.1c-4.7 4.1-9.8 7.9-15.1 11.3l-58 122.9 16.5 10.5 51-108.4c4.3-9.2 10.8-17.1 18.6-23.5l.1-.1c-3.2-2.4-6.1-5-8.8-7.9z" fill="#adbc55"/><path d="m415 254c-10.8 4.3-22.5 5.6-34 3.7l-.1.9-76.2 110.2c-5.6 8.1-15.9 11.4-25.1 8-7.3-2.7-12.6-9.1-13.9-16.7l-13-78.4-3.6-20.3c-15.4-2.4-30.1-8.2-43.1-16.8l8.1 97.5c0 22.3-21 28.5-31.5 9.7-7.9-14.1-30.1-57.2-42.7-81.9-5.3-10.3-8.9-17.4-9.1-17.8-10.3.3-20.6-2.2-29.6-7.3-6 3.5-12.6 5.9-19.4 7l102 215.6c6 17.2 22.2 24.7 40.4 24.7h64.1c18.7 0 34.7-8.4 40.8-26.1 16.5-47.6 22-96.1 64-158.3 8.5-12.5 18.1-25.7 29.2-39.5l.3-.3c-3.5-4.3-6-9.1-7.6-13.9z" fill="#cadd78"/><path d="m296.7 488.4h-46.1c-18.2 0-34.4-11.5-40.4-28.7l-111.1-214c-5.4 3-11.3 5-17.4 5.9l104 215.6c6 17.2 22.2 28.7 40.4 28.7h54.1c9.1 0 18-3 25.3-8.5-2.9.7-5.8 1-8.8 1z" fill="#adbc55"/><path d="m211.1 354.6c9.6 2.7 19.5-5 19.5-20.3l-6.7-80.3c-6.3-2.7-12.3-5.9-18-9.6l8.1 97.5c.1 4.4-.9 8.8-2.9 12.7z" fill="#adbc55"/><path d="m81.7 251.7 32.8 63.1-.4.2c-21.6 9.9-47.2.5-57.2-21.1-6-13-5.1-28.2 2.3-40.4l.7-2.8c1.3.3 2.7.6 4.1.9 5.9 1 11.9 1 17.7.1z" fill="#3b601c"/><path d="m62.1 289.4c-3.8-3.6-6.8-7.9-9.1-12.6.5 23.8 20.1 42.7 43.9 42.2 5.9-.1 11.8-1.5 17.1-3.9l.4-.2-8.2-15.9c-15.3 5.4-32.4 1.7-44.1-9.6z" fill="#67a829"/><path d="m445.3 283-.1.3c-2.8 18.8-20.3 31.9-39.2 29.1-4.6-.7-9-2.3-12.9-4.7l-.1-.1c8.5-12.6 18.1-25.7 29.2-39.5l.3-.3c5.8 7.4 13.7 12.8 22.8 15.2z" fill="#3b601c"/><path d="m439.4 281c-7.1 15.6-24.6 23.5-41 18.8-1.9 2.6-3.7 5.3-5.4 7.9l.1.1c16.3 9.9 37.5 4.8 47.4-11.5 2.4-3.9 4-8.3 4.7-12.9l.1-.3c-2.1-.6-4-1.3-5.9-2.1z" fill="#67a829"/><path d="m180.4 222.5c7.5 8.3 16.1 15.7 25.4 21.9-4.5 30-42.7 45.2-66.1 25.4-5.3-10.3-8.9-17.4-9.1-17.8 13-.4 25.5-5 35.6-13.1 5.8-4.6 10.6-10.1 14.2-16.4z" fill="#3b601c"/><path d="m196.7 237.7c-13.5 20.7-42.7 29.4-64.8 16.6 1.5 3 4.3 8.4 7.9 15.4 23.4 19.8 61.5 4.7 66.1-25.4-3.2-2-6.2-4.2-9.2-6.6z" fill="#315112"/><path d="m325.8 244.4-23.4 50.3c-18.2 8.9-41.8-1.5-49.8-13.3l-3.6-20.3c5.4.8 10.8 1.2 16.2 1.2 21.5 0 42.5-6.2 60.6-17.9z" fill="#4e7a25"/><path d="m258.9 263.5-.2-1.4c-3.3-.2-6.5-.5-9.7-1l3.6 20.3c7.9 11.8 31.6 22.1 49.8 13.3l5.7-12.2c-19.6 3.6-41.2-7-49.2-19z" fill="#2c4415"/><path d="m88.6 156c-19.3 20.8-21.4 52.7-3.5 75 4.4 5.5 9.9 10.1 16 13.6-11.1 6.6-24.3 9.1-37.1 6.9-1.4-.2-2.7-.5-4.1-.9-29.2-7.3-47-36.9-39.7-66.1 6.9-27.7 33.9-45.4 62.1-40.6l1.4-.4c1.1 4.4 2.8 8.6 4.9 12.5z" fill="#3b601c"/><path d="m87.4 153.6c-1.6-3.2-2.8-6.5-3.7-9.9l-1.4.4c-.9-.2-1.9-.3-2.8-.4 2.3 3.4 5 6.8 7.9 9.9z" fill="#67a829"/><path d="m85.6 231.6c-32.3-7.5-54.7-36.9-53.2-70.1-20 22.5-18 57 4.5 77 6.6 5.9 14.5 10 23.1 12.2 1.3.3 2.7.6 4.1.9 12.8 2.2 25.9-.3 37.1-6.9-6-3.4-11.3-7.8-15.6-13.1z" fill="#67a829"/><path d="m415 253.6c-10.8 4.4-22.5 5.7-34 3.7-2.2-.4-4.4-.9-6.6-1.5-13.4-3.7-25.1-11.8-33.4-22.8l-.2.1c-4.7 4.1-9.8 7.9-15.1 11.3-18 11.7-39.1 17.9-60.6 18-5.4 0-10.8-.4-16.2-1.2-15.4-2.4-30.1-8.1-43.1-16.8-9.4-6.2-17.9-13.5-25.4-21.9-3.7 6.2-8.5 11.8-14.1 16.3-10.1 8.2-22.6 12.8-35.6 13.1-10.3.3-20.6-2.2-29.6-7.3-6.2-3.5-11.6-8.1-16-13.6-17.8-22.2-15.8-54.1 3.5-75-2.2-3.9-3.8-8.1-5-12.4-11.7-44.2 31.9-99.3 90.2-67.6 32.9-88.1 154.6-69.1 181.8-7.6 41.9-20.6 86.8 21.8 71.1 54.9h1.5c34.8 0 63 28.2 63 63 0 11-2.9 21.9-8.4 31.4 14.9 15.9 14.1 40.9-1.8 55.8-7.3 6.9-17 10.7-27 10.7-2.9 0-5.8-.4-8.7-1.1-9-2.5-17-7.8-22.8-15.2-3.4-4.3-5.9-9.1-7.5-14.3z" fill="#4d841e"/><path d="m482.7 217.6c13.2-22.9 10.7-51.5-6.2-71.8 1.1 2.8 1.8 5.6 2.3 8.6 3.7 22.9-11.7 44.4-34.2 48-3 .5-6.1.6-9.2.3-9.8-1.1-18.9-5.4-26.1-12.2-1.3-1.3-2.6-2.6-3.8-4-4.2-5-11.2-6.8-17.3-4.4-7.5 2.8-15.5 4.3-23.6 4.2-2.4 0-4.7-.2-7.1-.4-12.2-1.5-23.8-6.3-33.3-14-.9-.7-1.7-1.4-2.6-2.2-1.4-1.2-3.5-1.1-4.8.3-3 3.3-8.2 8.9-11.5 11.9-16.7 15.2-37.4 25.3-59.6 28.9-5.6.9-11.3 1.4-17 1.4-16.4 0-32.6-3.6-47.4-10.5-5.8-2.6-11.3-5.7-16.6-9.1-6.8-4.4-15.9-2.7-20.6 3.9-1.4 2-3 4-4.7 5.9-9 10.2-21.2 17.1-34.6 19.7-8.7 1.6-17.6 1.3-26.1-.9 4.9 9.9 12.7 18.2 22.4 23.6 9 5.1 19.3 7.6 29.6 7.3 13-.4 25.5-5 35.6-13.1 5.7-4.5 10.5-10.1 14.1-16.3 7.5 8.3 16.1 15.7 25.4 21.9 13 8.6 27.7 14.4 43.1 16.8 5.4.8 10.8 1.2 16.2 1.2 21.5-.1 42.5-6.3 60.6-18 5.3-3.4 10.3-7.1 15.1-11.3l.2-.1c8.3 11.1 20.1 19.1 33.4 22.9 2.2.6 4.4 1.1 6.6 1.5 11.5 1.9 23.2.6 34-3.7 1.6 5.2 4.1 10 7.5 14.3 5.7 7.4 13.7 12.7 22.8 15.2 2.8.7 5.8 1.1 8.7 1.1 21.8 0 39.5-17.7 39.5-39.5-.1-10.4-3.9-20-10.8-27.4z" fill="#67a829"/><path d="m-331 216.9c4.7-9.5 7.2-20 7.2-30.6 0-35.7-27.3-65.2-62.2-68.6 3.2-14.6-2.1-30.8-14.7-43.2-16.8-16.6-40.5-21.7-61.8-13.8-8-14.8-21.2-27.3-38.5-36.5-18.3-9.7-40-14.7-60.9-14.1-19.7.6-38.1 6.1-53.3 15.9-15.4 10-27.2 24-35 41.7-22.7-10.4-45.1-9.5-63.8 2.6-20.6 13.3-33 38.8-31.1 63.5.1 1.2.2 2.3.4 3.5-30.3-1.6-57.7 19.7-62.9 50.3-4.9 29.1 11.8 56.9 38.5 66.8-6.4 13.1-6.6 28.5-.4 41.9 8.3 18 26.1 28.6 44.7 28.6 5.1 0 10.4-.8 15.4-2.5l82.3 159.2c6.8 13.2 20.2 21.3 34.9 21.3h.6l53.3-.8c16.4-.2 31.1-10.8 36.5-26.2 16.4-46.3 39.3-103.8 76.1-160.4 5 2.1 10.4 3.2 15.7 3.2 7.5 0 15.1-2.1 21.7-6.4 8.2-5.3 14.2-13.3 17-22.5 1.4.1 2.7.2 4.1.2 25.1 0 45.5-20.4 45.5-45.5.1-10-3.2-19.7-9.3-27.6zm-464.7-27.2c4.4-25.7 28.3-43.3 54-40 .7 1.9 1.4 3.7 2.2 5.5-8.7 10.7-13.9 23.9-14.6 37.6-.8 15.3 4 30.2 13.5 42.1 2.6 3.3 5.5 6.2 8.7 8.9-7.7 2.7-16 3.4-24.1 2-26.4-4.6-44.2-29.7-39.7-56.1zm37.1 101.7c-5-10.9-4.4-23.4 1.4-33.8 3.1.5 6.2.7 9.3.7 1.7 0 3.5-.1 5.2-.2l27.7 53.5c-17.2 4.8-35.9-3.5-43.6-20.2zm245.6 180.6c-3.8 10.7-14 18.1-25.4 18.2l-53.3.8c-.1 0-.3 0-.4 0-10.3 0-19.6-5.6-24.3-14.8l-114-220.4c3.6-1.1 7.2-2.5 10.6-4.3 6.7 3.3 14.1 5.5 21.9 6.2 1.3.1 2.6.2 4 .2 7.8 15.3 40.2 78.7 50.3 96.6 5 9 13 14.2 21.1 14.2 1.6 0 3.3-.2 4.9-.6 10.2-2.7 16.8-13 16.7-26.2 0-.2 0-.3 0-.5l-7.1-86c9.9 5.2 20.3 8.9 31 10.9l20.9 118.5c0 .3.1.5.2.7 3 9.5 8.2 12.3 12.1 12.9.7.1 1.4.2 2.1.2 4.7 0 9.7-2.5 15.1-7.4 3.9-3.6 6.7-7.4 6.8-7.6l.1-.1 83.1-119.7c2.4.3 4.8.4 7.2.4 6.8 0 13.5-1 20-3 1 2.2 2.2 4.4 3.5 6.4-55.6 70.3-86.4 146.1-107.1 204.4zm-126.7-240c5.7 5.7 11.7 10.7 17.9 15.1-2.8 10.4-10.9 19.2-21.9 23.3-11.6 4.3-23.7 2.7-32.8-4.5-1.7-3.4-3.2-6.3-4.5-8.8 10.8-1.8 21.1-6.4 30-13.5 4.3-3.5 8-7.4 11.3-11.6zm26.7 110.2c0 7.5-3.1 13.1-7.8 14.3-4.3 1.1-9.1-1.9-12.5-7.8-6.2-11.2-21.8-41.1-34.2-65.3 3.5.9 7.2 1.3 10.9 1.3 5.7 0 11.4-1 17.1-3.2 8.1-3 15-8 20.2-14.2zm132.6-100.3c8.4 9.1 19 15.8 30.8 19.3l-80.1 115.4c-4 5.4-10.1 10.4-12.3 10-.3-.1-1.5-1-2.6-4.3l-2.3-12.9 56.3-120.9c3.3-2.2 6.6-4.5 9.8-7.1.1.2.3.4.4.5zm-79.2 55c7.5 4.3 16.6 7.2 26 7.2 1.4 0 2.7-.1 4.1-.2l-20.9 44.9zm36.4-6.8c-14.4 5.7-32.8-2.2-39.6-11.1l-1.9-11c2.9.2 5.9.4 8.9.4 16.5 0 32.5-3.4 47.5-10.1zm128.6 12.2c-7.4 4.7-16.2 5.7-24.2 3 6.5-9.5 13.3-19 20.6-28.3 4.5 4.3 9.8 7.7 15.4 10-2 6.3-6.2 11.7-11.8 15.3zm27.5-24.2c-12.7 0-25.6-9.1-31.3-21.4 5.5-2.8 10.8-6.4 15.5-10.8 9-8.3 15.6-18.8 19.2-30.4 1-3.2-.8-6.5-4-7.5s-6.5.8-7.5 4c-2.9 9.6-8.4 18.2-15.8 25.1-5 4.6-10.7 8.2-16.8 10.8-.3.1-.5.2-.7.3-11.4 4.6-24.1 5.3-36.4 1.9-10.2-2.8-19.3-8.5-26.5-16.3-12.5-13.5-17.6-32.3-13.8-50.4 1.9-9.3 6.2-18 12.4-25.2.4-.2.7-.5 1-.8 2.4-2.2 2.6-6 .4-8.5l-.2-.2c-1.1-1.2-2.7-1.9-4.4-1.9-1.7 0-3.3.7-4.4 2-8.3 9-13.9 20.2-16.4 32.2-3.7 17.6-.3 35.9 9.1 50.9-20 16.1-43.4 24.5-67.8 24.5-28.6 0-55.3-12-77.4-34.8 5.8-11.7 8.1-25.1 6.1-38.2-.5-3.3-3.6-5.5-6.8-5-3.3.5-5.5 3.6-5 6.8 2.8 18.4-4.6 37.1-19.4 49-11 8.8-24.6 12.9-38.4 11.6-13.7-1.3-25.9-7.9-34.4-18.5-14-17.5-14.3-42.6-1.6-61.1 6.7 8.8 15.9 16 27.2 21 3 1.4 6.6 0 7.9-3s0-6.6-3-7.9c-19.4-8.6-30.9-24-32.4-43.3-1.6-20.5 8.6-41.6 25.5-52.5 16.5-10.7 36.9-10.4 57.5.8 1.5.8 3.3 1 5 .3 1.6-.6 2.9-1.9 3.5-3.5 12.9-34.5 42-54.9 79.9-56 39.5-1.2 77.8 19.3 90.8 48.8.7 1.5 1.9 2.7 3.4 3.2 1.5.6 3.2.5 4.7-.3 21.4-10.7 42.1-1.8 53.2 9.2 13.8 13.6 13.9 28.4 9.5 37.7-.9 1.9-.7 4.1.4 5.9 1.2 1.8 3.1 2.8 5.3 2.7h1.2c31.4 0 57 25.5 57 57 0 10-2.6 19.8-7.6 28.4-1.3 2.3-1 5.2.8 7.1 5.8 6.2 9.1 14.3 9.1 22.9-.1 18.4-15.1 33.4-33.6 33.4z" fill="#151515"/><path d="m490 216.9c4.7-9.5 7.2-20 7.2-30.6 0-35.7-27.3-65.2-62.2-68.6 3.2-14.6-2.1-30.8-14.7-43.2-16.8-16.6-40.5-21.7-61.8-13.8-8-14.8-21.2-27.3-38.5-36.5-18.3-9.7-40-14.7-60.9-14.1-19.7.6-38.1 6.1-53.3 15.9-15.4 10-27.2 24-35 41.7-22.7-10.4-45.1-9.5-63.8 2.6-20.6 13.3-33 38.8-31.1 63.5.1 1.2.2 2.3.4 3.5-30.3-1.6-57.7 19.7-62.9 50.3-4.9 29.1 11.8 56.9 38.5 66.8-6.4 13.1-6.6 28.5-.4 41.9 8.3 18 26.1 28.6 44.7 28.6 4.1 0 8.2-.5 12.3-1.6l71.6 153.9c5.9 12.7 18.7 20.8 32.6 20.8h.4l86.4-.9c15.7-.2 29.3-10.3 34-25.3 1.5-5 3.1-10.1 4.7-15.3 12.6-41.2 27.5-90.3 57.9-140.6 4.8 1.9 9.9 2.9 14.9 2.9 7.5 0 15.1-2.1 21.7-6.4 8.2-5.3 14.2-13.3 17-22.5 1.4.1 2.7.2 4.1.2 25.1 0 45.5-20.4 45.5-45.5.1-10.1-3.2-19.8-9.3-27.7zm-464.7-27.2c4.4-25.7 28.3-43.3 54-40 .7 1.9 1.4 3.7 2.2 5.5-8.7 10.7-13.9 23.9-14.6 37.6-.8 15.3 4 30.2 13.5 42.1 2.6 3.3 5.5 6.2 8.7 8.9-7.7 2.7-16 3.4-24.1 2-26.4-4.6-44.2-29.7-39.7-56.1zm37.1 101.7c-5-10.9-4.4-23.4 1.4-33.8 3.1.5 6.2.7 9.3.7 1.7 0 3.3-.1 5-.2l25.2 54.2c-16.4 3.2-33.6-5-40.9-20.9zm264.3 161.6c-1.6 5.2-3.1 10.3-4.7 15.3-3.1 10-12.2 16.8-22.7 16.9l-86.4.9c-.1 0-.2 0-.3 0-9.3 0-17.8-5.4-21.8-13.9l-100.5-216.4c3.7-1.1 7.4-2.6 10.9-4.4 6.7 3.3 14.1 5.5 21.9 6.2 1.3.1 2.6.2 4 .2 7.8 15.3 40.2 78.7 50.3 96.6 5 9 13 14.2 21.1 14.2 1.6 0 3.3-.2 4.9-.6 10.2-2.7 16.8-13 16.7-26.2 0-.2 0-.3 0-.5l-7.1-86.1c9.9 5.2 20.3 8.9 31 11l17.8 100.9c2.1 11.9 12.3 20.2 24 20.2 1.2 0 2.3-.1 3.5-.3 6.7-1 12.7-4.7 16.6-10.2l78.5-113.1c2.4.3 4.8.4 7.2.4 6.8 0 13.5-1 20-3 1 2.2 2.2 4.4 3.5 6.4-52 66.1-72.1 132.2-88.4 185.5zm-149.4-182.7c-11.6 4.3-23.7 2.7-32.8-4.5-1.7-3.4-3.2-6.3-4.5-8.8 10.8-1.8 21.1-6.4 30-13.5 4.2-3.4 8-7.3 11.2-11.5 5.7 5.7 11.7 10.7 17.9 15.1-2.8 10.4-10.8 19.1-21.8 23.2zm24.5-3 6.2 74.8c0 7.5-3.1 13.1-7.8 14.3-4.3 1.1-9.1-1.9-12.5-7.8-6.2-11.2-21.8-41.1-34.2-65.3 3.5.9 7.2 1.3 10.9 1.3 5.7 0 11.4-1 17.1-3.2 8.1-2.9 15-7.8 20.3-14.1zm128.7-18.8c3.3-2.2 6.6-4.5 9.7-7 .1.2.3.3.4.5 8.4 9.1 19 15.8 30.8 19.3l-75.6 108.8c-2 2.8-5 4.7-8.4 5.2-5.4.8-10.5-2-12.9-6.7zm-60 100.3-9.2-51.9c7.5 4.3 16.6 7.2 26 7.2 1.4 0 2.7-.1 4.1-.2zm27.3-58.7c-14.4 5.7-32.8-2.2-39.6-11.1l-1.9-11c2.9.2 5.9.4 8.9.4 16.5 0 32.5-3.5 47.5-10.1zm128.6 12.2c-7.2 4.6-15.8 5.7-23.7 3.2 6.1-9.5 12.8-19 20.2-28.5 4.5 4.3 9.8 7.7 15.4 9.9-2.1 6.4-6.3 11.8-11.9 15.4zm27.5-24.2c-12.7 0-25.6-9.1-31.3-21.4 5.5-2.8 10.8-6.4 15.5-10.8 7.3-6.7 13-14.9 16.9-24 1.4-3.3-.4-7.1-3.9-8.1-2.9-.8-6 .7-7.2 3.5-3.1 7.5-7.9 14.2-13.9 19.8-14.6 13.5-34.8 18.3-54 13-10.2-2.8-19.3-8.5-26.5-16.3-12.5-13.5-17.6-32.3-13.8-50.4 1.6-7.8 4.9-15.1 9.5-21.5 1.6-2.2 1.6-5.1 0-7.2-2.4-3.2-7.3-3.2-9.6 0-5.7 7.8-9.6 16.7-11.6 26.2-3.7 17.6-.3 35.9 9.1 50.9-20 16.1-43.4 24.5-67.8 24.5-28.6 0-55.3-12-77.4-34.8 4.8-9.7 7.2-20.6 6.7-31.5-.2-3.6-3.4-6.3-6.9-5.7-3.1.5-5.2 3.2-5.1 6.3.8 16.6-6.6 32.9-20 43.6-11 8.8-24.6 12.9-38.4 11.6-13.7-1.3-25.9-7.9-34.4-18.5-14-17.5-14.3-42.6-1.6-61.1 6.7 8.8 15.9 16 27.2 21 3 1.4 6.6 0 7.9-3s0-6.6-3-7.9c-19.4-8.6-30.9-24-32.4-43.3-1.6-20.5 8.6-41.6 25.5-52.5 16.5-10.7 36.9-10.4 57.5.8 1.5.8 3.3 1 5 .3 1.6-.6 2.9-1.9 3.5-3.5 12.9-34.5 42-54.9 79.9-56 39.5-1.2 77.8 19.3 90.8 48.8.7 1.5 1.9 2.7 3.4 3.2 1.5.6 3.2.5 4.7-.3 21.8-10.7 42.5-1.8 53.6 9.2 13.8 13.6 13.9 28.4 9.5 37.7-.9 1.9-.7 4.1.4 5.9 1.2 1.8 3.1 2.8 5.3 2.7h1.2c31.4 0 57 25.5 57 57 0 10-2.6 19.8-7.6 28.4-1.3 2.3-1 5.2.8 7.1 5.8 6.2 9.1 14.3 9.1 22.9-.1 18.4-15.1 33.4-33.6 33.4z"/></svg>