<svg id="Layer_1" enable-background="new 0 0 512 512" height="512" viewBox="0 0 512 512" width="512" xmlns="http://www.w3.org/2000/svg"><g><g><g><g><g><path d="m7.5 149.099h207.134v202.185h-207.134z" fill="#fff136"/><path d="m214.634 149.099 222.477-108.647v202.184l-222.477 108.648z" fill="#fff56b"/><path d="m394.111 61.451v200.684l-179.477 87.649v1.5l222.477-108.648v-202.184z" fill="#fff136"/><path d="m229.977 40.452h207.134l-222.477 108.647h-207.134z" fill="#ffe11c"/></g></g><g><path d="m504.5 407.224h-258.725l25.796-116.555h207.133z" fill="#ffe11c"/><path d="m478.704 290.669h-40l25.796 116.555h40z" fill="#f7d705"/><path d="m245.775 407.224h258.725v64.324h-258.725z" fill="#fff56b"/><path d="m464.5 407.224h40v64.324h-40z" fill="#fff136"/></g></g></g><g><path d="m511.959 406.442c-.001-.008-.003-.017-.004-.025-.028-.264-.072-.523-.127-.779-.003-.012-.003-.023-.006-.035l-25.796-116.556c-.76-3.435-3.805-5.879-7.323-5.879h-28.823c-9.697 0-9.697 15 0 15h22.803l22.476 101.556h-240.043l22.476-101.556h132.408c9.697 0 9.697-15 0-15h-38.796l69.199-33.793c2.576-1.258 4.209-3.873 4.209-6.739v-202.185c0-4.063-3.435-7.5-7.5-7.5h-207.135c-1.141 0-2.266.26-3.291.761l-222.477 108.648c-2.542 1.242-4.209 3.91-4.209 6.74v202.185c0 4.143 3.358 7.5 7.5 7.5h30.517c9.697 0 9.697-15 0-15h-23.017v-187.185h192.134v187.185h-129.289c-9.697 0-9.697 15 0 15h136.789c1.124 0 2.28-.266 3.291-.761l34.821-17.005-14.294 64.586c-.003.012-.003.023-.006.035-.055.255-.098.514-.127.779-.001.008-.003.017-.004.025-.027.257-.041.518-.041.783v64.324c0 4.143 3.358 7.5 7.5 7.5h258.726c4.142 0 7.5-3.357 7.5-7.5v-64.324c0-.267-.014-.528-.041-.785zm-299.059-264.842h-172.951l191.761-93.649h172.952zm9.234 197.674v-185.491l207.477-101.323v185.493l-89.648 43.779c-.766.374-1.434.866-2.005 1.437h-66.386c-3.518 0-6.563 2.444-7.323 5.879l-7.36 33.254zm274.866 124.775h-243.725v-49.324h243.725z"/><path d="m186.5 246v-59c0-4.143-3.358-7.5-7.5-7.5s-7.5 3.357-7.5 7.5v59c0 4.143 3.358 7.5 7.5 7.5s7.5-3.357 7.5-7.5z"/></g></g></svg>