<?xml version="1.0" encoding="iso-8859-1"?>
<!-- Generator: Adobe Illustrator 19.0.0, SVG Export Plug-In . SVG Version: 6.00 Build 0)  -->
<svg version="1.1" id="Capa_1" xmlns="http://www.w3.org/2000/svg" xmlns:xlink="http://www.w3.org/1999/xlink" x="0px" y="0px"
	 viewBox="0 0 512 512" style="enable-background:new 0 0 512 512;" xml:space="preserve">
<path style="fill:#FED42D;" d="M10,190.142v41.71c11.65,4.12,20,15.23,20,28.29c0,13.06-8.35,24.17-20,28.29v41.71
	c22.09,0,40,17.91,40,40s-17.91,40-40,40v40h472c11.05,0,20-8.95,20-20v-240H10z"/>
<g>
	<circle style="fill:#FEA832;" cx="406" cy="280.14" r="30"/>
	<path style="fill:#FEA832;" d="M502,190.142c0-66.34-58.03-103.24-140.71-127.5c-4.27-1.25-8.9-0.99-13.04,0.63l-132.31,49.12
		c-1.17,21.04-18.6,37.75-39.94,37.75c-10.86,0-20.72-4.33-27.93-11.36L10,190.142h231.35c-3.4,5.89-5.35,12.72-5.35,20
		c0,22.09,17.91,40,40,40s40-17.91,40-40c0-7.28-1.95-14.11-5.35-20H502z"/>
	<circle style="fill:#FEA832;" cx="276" cy="370.14" r="40"/>
	<circle style="fill:#FEA832;" cx="146" cy="340.14" r="30"/>
</g>
<path style="fill:#FED42D;" d="M382,110.142c11.05,0,20,8.95,20,20s-8.95,20-20,20s-20-8.95-20-20S370.95,110.142,382,110.142z"/>
<path d="M376,400.142c-5.52,0-10,4.48-10,10s4.48,10,10,10s10-4.48,10-10S381.52,400.142,376,400.142z"/>
<path d="M10,460.142h472c16.542,0,30-13.458,30-30v-240c0-77.969-72.994-115.119-147.9-137.097
	c-6.301-1.845-13.187-1.53-19.405,0.88L212.46,103.017c-3.729,1.385-6.283,4.848-6.504,8.82
	c-0.883,15.872-14.041,28.305-29.956,28.305c-7.875,0-15.314-3.026-20.949-8.52c-2.768-2.699-6.845-3.562-10.467-2.212L6.514,180.77
	C2.57,182.238,0,186.069,0,190.142v41.71c0,4.237,2.671,8.015,6.666,9.428C14.642,244.101,20,251.681,20,260.142
	s-5.358,16.042-13.334,18.862C2.671,280.418,0,284.195,0,288.432v41.71c0,5.523,4.477,10,10,10c16.542,0,30,13.458,30,30
	s-13.458,30-30,30c-5.523,0-10,4.477-10,10v40C0,455.665,4.477,460.142,10,460.142z M146.06,150.2
	c8.602,6.45,19.021,9.942,29.94,9.942c24.234,0,44.634-17.309,49.097-40.482L351.73,72.646c0.055-0.02,0.109-0.041,0.164-0.063
	c2.144-0.838,4.482-0.959,6.58-0.347c85.333,25.039,127.96,59.498,133.013,107.905H315.98c-9.376-12.457-24.2-20-39.98-20
	c-15.777,0-30.599,7.54-39.979,20H65.566L146.06,150.2z M306,210.142c0,16.542-13.458,30-30,30s-30-13.458-30-30
	c0-5.268,1.387-10.455,4.005-14.992c5.356-9.257,15.317-15.008,25.995-15.008c10.674,0,20.632,5.747,25.989,14.999
	C304.613,199.687,306,204.875,306,210.142z M20,419.138c22.794-4.646,40-24.85,40-48.996s-17.206-44.349-40-48.996v-26.36
	c12.198-7.054,20-20.208,20-34.645c0-14.437-7.802-27.591-20-34.645v-25.455h207.017c-0.669,3.28-1.017,6.63-1.017,10
	c0,27.57,22.43,50.1,50,50.1s50-22.43,50-50c0-3.37-0.348-6.72-1.017-10H492v230c0,5.514-4.486,10-10,10H20V419.138z"/>
<path d="M276,320.142c-27.57,0-50,22.43-50,50s22.43,50,50,50s50-22.43,50-50S303.57,320.142,276,320.142z M276,400.142
	c-16.542,0-30-13.458-30-30s13.458-30,30-30s30,13.458,30,30S292.542,400.142,276,400.142z"/>
<path d="M382,160.142c16.542,0,30-13.458,30-30s-13.458-30-30-30s-30,13.458-30,30S365.458,160.142,382,160.142z M382,120.142
	c5.514,0,10,4.486,10,10c0,5.514-4.486,10-10,10s-10-4.486-10-10C372,124.628,376.486,120.142,382,120.142z"/>
<path d="M462,400.142h-46c-5.522,0-10,4.477-10,10s4.478,10,10,10h46c5.522,0,10-4.477,10-10S467.522,400.142,462,400.142z"/>
<path d="M146,300.142c-22.056,0-40,17.944-40,40s17.944,40,40,40s40-17.944,40-40S168.056,300.142,146,300.142z M146,360.142
	c-11.028,0-20-8.972-20-20s8.972-20,20-20s20,8.972,20,20S157.028,360.142,146,360.142z"/>
<path d="M406,320.142c22.056,0,40-17.944,40-40s-17.944-40-40-40s-40,17.944-40,40S383.944,320.142,406,320.142z M406,260.142
	c11.028,0,20,8.972,20,20s-8.972,20-20,20s-20-8.972-20-20S394.972,260.142,406,260.142z"/>
<g>
</g>
<g>
</g>
<g>
</g>
<g>
</g>
<g>
</g>
<g>
</g>
<g>
</g>
<g>
</g>
<g>
</g>
<g>
</g>
<g>
</g>
<g>
</g>
<g>
</g>
<g>
</g>
<g>
</g>
</svg>
