<svg height="479pt" viewBox="-101 0 479 479.48597" width="479pt" xmlns="http://www.w3.org/2000/svg"><g fill="#77c974"><path d="m139.019531 346.140625-36.199219-28.957031c-25.347656-20.28125-61.585937-19.480469-86.015624 1.894531-5.472657 4.789063-8.597657 11.71875-8.5625 18.992187.039062 7.273438 3.230468 14.171876 8.753906 18.902344l1.601562 1.34375c19.792969 16.96875 47.628906 20.921875 71.367188 10.136719zm0 0"/><path d="m134.988281 228.09375-25.597656-27.878906c-17.925781-19.527344-47.269531-23.402344-69.648437-9.199219-5.015626 3.179687-8.402344 8.382813-9.28125 14.257813-.875 5.875.84375 11.839843 4.710937 16.347656l1.097656 1.28125c13.859375 16.160156 35.828125 22.820312 56.328125 17.070312zm0 0"/><path d="m139.019531 346.140625 36.191407-28.957031c25.351562-20.28125 61.59375-19.484375 86.027343 1.894531 5.46875 4.789063 8.59375 11.71875 8.554688 18.992187-.035157 7.273438-3.226563 14.167969-8.75 18.902344l-1.597657 1.34375c-19.796874 16.96875-47.632812 20.921875-71.367187 10.136719zm0 0"/><path d="m134.238281 344.828125 42.949219 17.433594c30.085938 12.214843 47.097656 44.230469 40.378906 76-1.507812 7.117187-6.027344 13.226562-12.390625 16.75-6.363281 3.519531-13.941406 4.105469-20.769531 1.601562l-1.945312-.71875c-24.480469-8.976562-41.53125-31.335937-43.703126-57.320312zm0 0"/><path d="m165.796875 96.726562 31.761719-40.9375c.757812-.972656 1.445312-2.003906 2.054687-3.078124l.910157-1.601563c4.695312-8.234375 13.480468-13.28125 22.957031-13.1875 9.476562.09375 18.160156 5.3125 22.691406 13.636719 4.589844 8.425781 4.1875 18.691406-1.046875 26.734375-9.25 14.214843-25.484375 22.285156-42.398438 21.082031zm0 0"/><path d="m140.019531 228.644531 35.929688-46.300781c.859375-1.105469 1.636719-2.273438 2.328125-3.488281l1.03125-1.800781c5.328125-9.292969 15.257812-14.980469 25.96875-14.875 10.707031.101562 20.527344 5.984374 25.671875 15.378906 5.191406 9.53125 4.746093 21.136718-1.152344 30.246094-10.46875 16.09375-28.851563 25.226562-48 23.847656zm0 0"/><path d="m167.941406 98.558594 5.855469-39.054688c.207031-1.21875 3.503906-14.402344 3.886719-15.585937l.570312-1.753907c2.921875-9.011718.734375-18.902343-5.71875-25.84375-6.453125-6.941406-16.160156-9.84375-25.363281-7.585937-9.320313 2.285156-16.640625 9.496094-19.0625 18.785156-4.292969 16.433594.691406 33.902344 13.007813 45.597657zm0 0"/><path d="m165.796875 100.75-37.871094-35.351562c-.902343-.847657-1.746093-1.753907-2.519531-2.71875l-1.152344-1.425782c-5.945312-7.378906-15.421875-10.960937-24.761718-9.363281-9.34375 1.597656-17.085938 8.128906-20.238282 17.066406-3.1875 9.054688-1.152344 19.125 5.292969 26.234375 11.402344 12.566406 28.734375 17.953125 45.25 14.054688zm0 0"/></g><path d="m164.292969 328.628906-21.746094 5.433594c-.445313-10.632812-.75-21.265625-.75-31.863281.019531-24.179688 1.507813-48.335938 4.449219-72.335938l16.40625-2.738281c20.324218-3.421875 38.335937-15.066406 49.800781-32.191406l-13.3125-8.878906c-8.996094 13.457031-23.148437 22.605468-39.113281 25.289062l-11.519532 1.917969c3.300782-22.21875 7.839844-44.238281 13.601563-65.953125l11.464844-48.796875-15.585938-3.65625-11.390625 48.558593c-6.132812 23.082032-10.914062 46.503907-14.320312 70.144532l-21.183594-7.066406c-15.894531-5.300782-32.542969-8-49.296875-8v16c15.035156.007812 29.96875 2.441406 44.230469 7.203124l24.128906 8c-2.878906 24.058594-4.332031 48.269532-4.359375 72.503907 0 9.933593.257813 19.902343.640625 29.871093l-7.199219-2.074218c-27.023437-7.6875-55.488281-8.832032-83.042969-3.34375l3.136719 15.679687c25.039063-4.980469 50.902344-3.933593 75.457031 3.058594l12.40625 3.550781c1.007813 16.898438 2.539063 33.761719 4.625 50.464844l10.007813 80.078125 15.871094-1.980469-10.007813-80.082031c-1.726562-13.800781-3.007812-27.71875-4-41.671875l5.992188 5.992188c21.242187 21.167968 35.296875 48.476562 40.175781 78.0625l15.777344-2.621094c-5.414063-32.882813-21.03125-63.234375-44.640625-86.753906l-3.597656-3.601563 10.71875-2.6875c24.921874-6.171875 50.894531-6.789063 76.078124-1.808594l3.136719-15.679687c-27.488281-5.460938-55.84375-4.785156-83.039062 1.976562zm0 0" fill="#389a6b"/><path d="m264.675781 364.398438 1.601563-1.351563c7.28125-6.246094 11.488281-15.347656 11.535156-24.941406s-4.074219-18.734375-11.296875-25.050781c-27.335937-23.953126-67.921875-24.847657-96.285156-2.121094l-27.714844 22.167968c-.429687-10.3125-.71875-20.625-.71875-30.902343.023437-21.769531 1.230469-43.519531 3.625-65.152344l35.765625 2.582031c1.464844.105469 2.929688.160156 4.386719.160156 20.542969-.015624 39.691406-10.40625 50.902343-27.625 7.492188-11.558593 8.066407-26.292968 1.488282-38.398437-6.523438-11.953125-19.003906-19.441406-32.621094-19.570313-13.613281-.125-26.234375 7.125-32.980469 18.953126l-1 1.769531c-.503906.894531-1.078125 1.75-1.710937 2.558593l-19.480469 25.015626c3.109375-18.484376 7.074219-36.808594 11.890625-54.972657l11.269531-42.257812 28.800781 2.070312c1.320313.097657 2.625.144531 3.929688.144531 18.472656.007813 35.695312-9.320312 45.78125-24.796874 6.84375-10.507813 7.367188-23.921876 1.367188-34.929688-5.917969-10.875-17.261719-17.691406-29.644532-17.808594-12.378906-.121094-23.851562 6.480469-29.976562 17.242188l-.890625 1.542968c-.429688.757813-.914063 1.484376-1.445313 2.175782l-9.992187 12.871094.414062-2.792969c.289063-1.414063 3.199219-13.214844 3.632813-14.574219l.566406-1.753906c3.820312-11.773438.960938-24.691406-7.464844-33.757813-8.425781-9.066406-21.101562-12.859375-33.125-9.914062-12.183594 2.976562-21.75 12.398437-24.90625 24.539062-1.832031 7.046875-2.234375 14.390625-1.183594 21.597657-14.691406-7.328126-32.515624-3.160157-42.4375 9.925781-9.917968 13.082031-9.117187 31.371093 1.902344 43.539062 13.355469 14.730469 33.660156 21.039063 53.007813 16.464844l23.472656-5.535156-8.542969 31.902343c-6.113281 23.019532-10.886718 46.371094-14.296875 69.945313l-17.023437-18.5625c-20.542969-22.390625-54.183594-26.832031-79.832032-10.535156-6.972656 4.429687-11.679687 11.667969-12.898437 19.839843-1.21875 8.171876 1.175781 16.46875 6.554687 22.738282l1.09375 1.261718c11.964844 13.902344 29.398438 21.894532 47.738282 21.886719 5.679687.003907 11.332031-.773437 16.800781-2.308593l34.445313-9.65625c-2.242188 21.316406-3.371094 42.738281-3.382813 64.175781 0 7.789062.121094 15.59375.367187 23.40625l-18.34375-14.671875c-28.359374-22.734375-68.945312-21.839844-96.28125 2.121094-7.222656 6.316406-11.34375 15.460937-11.296874 25.054687.046874 9.597656 4.261718 18.699219 11.546874 24.945313l1.601563 1.335937c22.179687 18.945313 53.308594 23.367187 79.886719 11.34375l34.261718-15.578125 3.28125 39.074219c.46875 4.882812 1.417969 9.707031 2.839844 14.398437l8.234375 65.847656 15.871094-1.984374-3.808594-30.199219c7.382813 7.089843 16.148438 12.582031 25.742188 16.136719l1.9375.710937c9.007812 3.3125 19.007812 2.546875 27.40625-2.09375 8.398437-4.644531 14.363281-12.707031 16.347656-22.097656 4.230469-19.9375.152344-40.738281-11.296875-57.597657.550781 0 1.101562.085938 1.65625.085938 17.9375.015625 35.292969-6.382812 48.925781-18.039062zm-8.710937-39.296876c3.726562 3.257813 5.855468 7.976563 5.835937 12.929688-.023437 4.949219-2.199219 9.648438-5.957031 12.871094l-1.597656 1.351562c-16.847656 14.324219-40.269532 18.066406-60.738282 9.703125-4.199218-2.808593-8.667968-5.1875-13.34375-7.101562l-20.902343-8.488281 8.871093-2.226563c24.914063-6.167969 50.882813-6.785156 76.0625-1.808594l3.136719-15.679687c-23.191406-4.589844-47.035156-4.824219-70.3125-.695313l3.203125-2.527343c22.3125-17.878907 54.238282-17.175782 75.742188 1.671874zm-73.671875-137.878906c1.074219-1.410156 2.0625-2.882812 2.953125-4.417968l1.015625-1.789063c3.871093-6.792969 11.117187-10.953125 18.933593-10.878906 7.816407.074219 14.980469 4.375 18.722657 11.238281 3.78125 6.957031 3.453125 15.425781-.855469 22.070312-8.890625 13.640626-24.480469 21.382813-40.722656 20.226563l-5.597656-.402344c14.542968-5.511719 27.011718-15.414062 35.671874-28.335937l-13.3125-8.878906c-8.171874 12.175781-20.597656 20.863281-34.839843 24.351562zm21.601562-126.527344c.988281-1.269531 1.890625-2.605468 2.695313-4l.902344-1.601562c3.1875-5.691406 9.222656-9.195312 15.746093-9.152344h.160157c6.582031.019532 12.625 3.652344 15.734374 9.457032 3.1875 5.851562 2.910157 12.980468-.71875 18.566406-7.699218 11.746094-21.136718 18.421875-35.144531 17.457031l-21.992187-1.601563zm-68-31.203124c2.101563-8.019532 9.355469-13.609376 17.644531-13.597657 5.785157.054688 11.195313 2.867188 14.566407 7.566407 3.371093 4.703124 4.296875 10.730468 2.492187 16.226562l-.578125 1.789062c-.4375 1.386719-3.847656 14.953126-4.175781 16.800782l-3.582031 23.855468-15.664063-14.839843c-10.1875-9.691407-14.300781-24.15625-10.746094-37.757813zm-7.875 71.921874c-13.679687 3.234376-28.039062-1.222656-37.480469-11.640624-4.445312-4.90625-5.863281-11.847657-3.699218-18.105469 2.167968-6.257813 7.574218-10.835938 14.101562-11.941407 1.039063-.175781 2.09375-.265624 3.152344-.265624 5.46875-.003907 10.636719 2.496093 14.03125 6.785156l1.144531 1.40625c1.011719 1.261718 2.113281 2.449218 3.296875 3.554687l26.941406 25.144531zm-37.574219 130.863282c-17.507812 4.863281-36.246093-.820313-48.105468-14.582032l-1.085938-1.273437c-2.371094-2.726563-3.421875-6.355469-2.875-9.929687.535156-3.578126 2.601563-6.75 5.65625-8.6875 18.242188-11.613282 42.078125-9.144532 57.554688 5.960937-12.984375-3.464844-26.355469-5.234375-39.792969-5.273437v16c15.035156.007812 29.96875 2.441406 44.230469 7.203124l10.167968 3.390626zm-3.847656 128.898437c-20.914062 9.441407-45.398437 5.960938-62.855468-8.929687l-1.601563-1.335938c-3.753906-3.226562-5.925781-7.925781-5.949219-12.875-.023437-4.949218 2.097656-9.667968 5.820313-12.933594 21.503906-18.859374 53.441406-19.5625 75.753906-1.671874l3.046875 2.398437c-21.414062-3.703125-43.324219-3.429687-64.640625.800781l3.136719 15.679688c25.039062-4.980469 50.902344-3.933594 75.457031 3.058594l4 1.144531zm123.109375 75.421875c-1.023437 4.84375-4.101562 9.003906-8.433593 11.402344-4.332032 2.394531-9.492188 2.792969-14.140626 1.085938l-1.9375-.710938c-17.160156-6.40625-30.390624-20.390625-35.832031-37.882812l-1.636719-13.085938c-1.65625-13.265625-2.898437-26.648438-3.859374-40.046875l2.511718 1.015625 3.355469 3.351562c21.242187 21.167969 35.292969 48.476563 40.175781 78.0625l15.773438-2.625c-3.792969-22.796874-12.515625-44.488281-25.558594-63.566406l4.664062 2.121094c.414063.191406.847657.320312 1.273438.496094 19.25 13.585937 28.558594 37.332031 23.671875 60.382812zm0 0"/></svg>