<?xml version="1.0" encoding="iso-8859-1"?>
<!-- Generator: Adobe Illustrator 19.0.0, SVG Export Plug-In . SVG Version: 6.00 Build 0)  -->
<svg version="1.1" id="Capa_1" xmlns="http://www.w3.org/2000/svg" xmlns:xlink="http://www.w3.org/1999/xlink" x="0px" y="0px"
	 viewBox="0 0 512 512" style="enable-background:new 0 0 512 512;" xml:space="preserve">
<g>
	<path style="fill:#A9DAD9;" d="M413.58,391.066L362.223,106l-32.701-12.313L137.74,474.5l6.697,10.917
		c7.274,11.856,20.185,19.083,34.095,19.083h77.461h77.828c13.958,0,26.907-7.276,34.166-19.198l40.392-66.341
		c2.45-4.024,4.141-8.416,5.05-12.96C414.406,401.114,414.478,396.051,413.58,391.066z"/>
	<polygon style="fill:#A9DAD9;" points="360.565,266 360.565,266 384.055,396.386 	"/>
</g>
<path style="fill:#C2E2DD;" d="M329.522,93.687L255.994,66l-106.229,40L98.421,390.991c-0.903,5.01-0.825,10.101,0.166,15.009
	c0.921,4.562,2.631,8.967,5.105,13l34.049,55.5h40.793L360.565,266L329.522,93.687z"/>
<path style="fill:#A9A499;" d="M389.553,79.01c0-39.494-59.797-71.51-133.559-71.51s-133.56,32.016-133.56,71.51
	c0,0.096,0,0.191,0.001,0.286C122.544,94.146,134.914,106,149.764,106h212.459c14.85,0,27.22-11.854,27.329-26.704
	C389.552,79.201,389.553,79.105,389.553,79.01z"/>
<path style="fill:#D4CFC2;" d="M156.095,76h149.974c14.884,0,27.012-12.027,27.043-26.911c0-0.026,0-0.052,0-0.079
	c0-0.504-0.01-1.006-0.029-1.507c-0.677-17.508-13.662-32.199-30.851-35.597C287.824,9.057,272.249,7.5,255.993,7.5
	c-47.508,0-89.219,13.282-112.892,33.288C128.905,52.785,137.508,76,156.095,76z"/>
<path style="fill:#FFF9EB;" d="M127.945,396.31c-0.222,1.233-0.206,2.495,0.048,3.75c0.236,1.169,0.664,2.264,1.27,3.253
	l1.649,2.688l39.097,63.729c1.805,2.943,5.072,4.771,8.524,4.771h155.289c3.466,0,6.739-1.839,8.542-4.8l38.784-63.7l1.608-2.641
	c0.601-0.986,1.023-2.077,1.256-3.242c0.25-1.25,0.265-2.505,0.043-3.731L360.565,266H151.421L127.945,396.31z"/>
<path style="fill:#D4CFC2;" d="M360.565,266h-22.862l18.658,103.569c3.034,16.841-0.204,34.21-9.103,48.826l0,0
	C334.552,439.264,311.887,452,287.454,452H159.133l10.876,17.729c1.805,2.943,5.072,4.771,8.524,4.771h155.288
	c3.49,0,6.727-1.819,8.542-4.8l38.784-63.7l1.608-2.641c0.601-0.986,1.023-2.077,1.256-3.242c0.25-1.25,0.265-2.505,0.043-3.731
	L360.565,266z"/>
<path d="M420.961,389.736l-49.967-277.351c14.865-3.842,25.941-17.203,26.058-33.09l0.001-0.286
	c0-21.998-15.299-42.304-43.079-57.177C327.679,7.754,292.882,0,255.993,0c-36.888,0-71.685,7.754-97.98,21.833
	c-27.78,14.873-43.079,35.179-43.079,57.177l0.001,0.341c0.116,15.84,11.193,29.194,26.057,33.035L91.039,389.66
	c-1.065,5.909-0.999,11.905,0.195,17.819c0,0.002,0,0.004,0.001,0.006c1.109,5.492,3.149,10.687,6.063,15.437l40.747,66.417
	C146.62,503.316,162.135,512,178.533,512h17.46h60h60h17.828c16.465,0,32.011-8.735,40.572-22.798l40.392-66.341
	c2.887-4.742,4.904-9.92,5.998-15.392C421.96,401.583,422.02,395.616,420.961,389.736z M129.935,79.219V79.01
	c0-34.697,57.728-64.01,126.059-64.01s126.06,29.313,126.06,64.01l-0.001,0.23c-0.078,10.62-8.974,19.26-19.829,19.26h-159.33
	c-0.011,0-0.022,0-0.033,0h-53.096C138.908,98.5,130.013,89.86,129.935,79.219z M361.581,481.401
	c-5.857,9.622-16.494,15.599-27.76,15.599h-8.729l13.524-69.568c0.79-4.066-1.865-8.003-5.931-8.794
	c-4.064-0.789-8.004,1.865-8.794,5.931L309.811,497h-53.817h-53.857l-17.743-88.295c-0.816-4.061-4.766-6.689-8.831-5.875
	c-4.061,0.815-6.691,4.77-5.875,8.83l17.15,85.34h-8.303c-11.22,0-21.835-5.941-27.702-15.505l-40.746-66.417
	c-1.991-3.246-3.386-6.8-4.146-10.563c0-0.001,0-0.001,0-0.002c-0.818-4.051-0.864-8.154-0.136-12.192l50.232-278.82h38.732
	l-5.56,61.828c-0.371,4.126,2.672,7.771,6.798,8.142c0.229,0.021,0.456,0.03,0.681,0.03c3.838,0,7.111-2.932,7.461-6.828
	l5.68-63.172h92.334l11.076,123.172c0.351,3.896,3.622,6.828,7.461,6.828c0.225,0,0.452-0.01,0.681-0.03
	c4.125-0.371,7.169-4.016,6.798-8.142L317.22,113.5h38.733l26.123,145H151.422c-4.142,0-7.5,3.357-7.5,7.5s3.358,7.5,7.5,7.5H384.78
	l21.42,118.896c0.723,4.019,0.682,8.101-0.125,12.135c-0.749,3.748-2.129,7.29-4.102,10.53L361.581,481.401z"/>
<circle cx="188.49" cy="58.5" r="7.5"/>
<circle cx="233.49" cy="58.5" r="7.5"/>
<circle cx="278.49" cy="58.5" r="7.5"/>
<circle cx="323.49" cy="58.5" r="7.5"/>
<circle cx="213.49" cy="28.5" r="7.5"/>
<circle cx="258.49" cy="28.5" r="7.5"/>
<circle cx="303.49" cy="28.5" r="7.5"/>
<circle cx="153.49" cy="313.5" r="7.5"/>
<circle cx="143.49" cy="373.5" r="7.5"/>
<circle cx="228.49" cy="343.5" r="7.5"/>
<circle cx="228.49" cy="298.5" r="7.5"/>
<circle cx="273.49" cy="313.5" r="7.5"/>
<circle cx="258.49" cy="373.5" r="7.5"/>
<circle cx="303.49" cy="358.5" r="7.5"/>
<circle cx="356.49" cy="313.5" r="7.5"/>
<circle cx="288.49" cy="433.5" r="7.5"/>
<circle cx="243.49" cy="433.5" r="7.5"/>
<circle cx="273.49" cy="463.5" r="7.5"/>
<circle cx="158.49" cy="433.5" r="7.5"/>
<circle cx="358.49" cy="433.5" r="7.5"/>
<circle cx="371.49" cy="373.5" r="7.5"/>
<g>
</g>
<g>
</g>
<g>
</g>
<g>
</g>
<g>
</g>
<g>
</g>
<g>
</g>
<g>
</g>
<g>
</g>
<g>
</g>
<g>
</g>
<g>
</g>
<g>
</g>
<g>
</g>
<g>
</g>
</svg>
