<svg id="Layer_1" height="512" viewBox="0 0 512 512" width="512" xmlns="http://www.w3.org/2000/svg" data-name="Layer 1"><path d="m391.64 453.51a30 30 0 0 1 -29.79 33.51h-211.7a30 30 0 0 1 -29.79-33.51l26.91-228.6.73.09h216l.73-.09z" fill="#d1cdbd"/><path d="m150.36 453.51 26.899-228.51h-29.259l-.73-.09-26.91 228.6a30 30 0 0 0 29.79 33.51h30a30 30 0 0 1 -29.79-33.51z" fill="#a8a294"/><path d="m358.96 175.95 5.77 48.96-.73.09h-216l-.73-.09 5.77-48.96a40.2 40.2 0 0 0 10.65 1.43h184.62a40.2 40.2 0 0 0 10.65-1.43z" fill="#dbd8c8"/><path d="m182.871 177.38h-19.181a40.2 40.2 0 0 1 -10.65-1.43l-5.77 48.96.73.09h30l-.73-.09z" fill="#bfbbac"/><path d="m204.15 287.93h103.7v140.92h-103.7z" fill="#949598"/><path d="m204.15 287.93h30v140.92h-30z" fill="#77797c"/><path d="m153.04 175.95a40.117 40.117 0 0 1 -29.43-38.65v-7.62a104.705 104.705 0 0 1 104.7-104.7h55.38a104.705 104.705 0 0 1 104.7 104.7v7.62a40.035 40.035 0 0 1 -40.08 40.08h-184.62a40.2 40.2 0 0 1 -10.65-1.43z" fill="#c79a83"/><path d="m283.52 55.3a15.135 15.135 0 1 1 -15.13 15.14 15.142 15.142 0 0 1 15.13-15.14z" fill="#b28672"/><path d="m228.48 55.3a15.135 15.135 0 1 1 -15.14 15.14 15.134 15.134 0 0 1 15.14-15.14z" fill="#b28672"/><path d="m200.95 103.65a15.14 15.14 0 1 1 -15.13 15.14 15.142 15.142 0 0 1 15.13-15.14z" fill="#b28672"/><circle cx="256" cy="118.79" fill="#b28672" r="15.14"/><path d="m311.05 103.65a15.14 15.14 0 1 1 -15.14 15.14 15.134 15.134 0 0 1 15.14-15.14z" fill="#b28672"/><path d="m153.04 175.95a40.2 40.2 0 0 0 10.65 1.43h30a40.035 40.035 0 0 1 -40.08-40.08v-7.62a104.705 104.705 0 0 1 104.7-104.7h-30a104.705 104.705 0 0 0 -104.7 104.7v7.62a40.117 40.117 0 0 0 29.43 38.65z" fill="#a0786a"/><g fill="#284268"><path d="m365.448 179.664a45.7 45.7 0 0 0 28.552-42.356v-7.994a110.314 110.314 0 0 0 -110.314-110.314h-55a110.682 110.682 0 0 0 -110.686 110.683v7.617a45.707 45.707 0 0 0 28.553 42.363l-32.153 273.15a35.982 35.982 0 0 0 35.751 40.187h211.7a35.983 35.983 0 0 0 35.749-40.192zm-235.448-42.356v-7.625a98.683 98.683 0 0 1 98.683-98.683h55a98.314 98.314 0 0 1 98.317 98.314v7.986a33.7 33.7 0 0 1 -33.7 33.7h-122.3a6 6 0 0 0 0 12h122.308a45.994 45.994 0 0 0 5.41-.33l4.395 37.33h-204.226l4.4-37.331a46.177 46.177 0 0 0 5.42.331h28.293a6 6 0 0 0 0-12h-28.308a33.692 33.692 0 0 1 -33.692-33.692zm249.784 335.65a24.009 24.009 0 0 1 -17.935 8.042h-211.7a23.983 23.983 0 0 1 -23.835-26.789l26.161-222.211h207.05l26.159 222.211a24.007 24.007 0 0 1 -5.9 18.747z"/><path d="m308 282h-104a6 6 0 0 0 -6 6v141a6 6 0 0 0 6 6h104a6 6 0 0 0 6-6v-141a6 6 0 0 0 -6-6zm-6 141h-92v-129h92z"/><path d="m174.7 246.709a6.005 6.005 0 0 0 -6.66 5.258l-1.733 14.733a6 6 0 0 0 5.258 6.66 6.065 6.065 0 0 0 .708.041 6 6 0 0 0 5.952-5.3l1.734-14.731a6 6 0 0 0 -5.259-6.661z"/><path d="m170.364 283.557a6 6 0 0 0 -6.66 5.257l-11.594 98.486a6 6 0 0 0 5.258 6.661 6.069 6.069 0 0 0 .709.041 6 6 0 0 0 5.951-5.3l11.594-98.485a6 6 0 0 0 -5.258-6.66z"/><path d="m234.862 118.79a21.138 21.138 0 1 0 21.138-21.138 21.163 21.163 0 0 0 -21.138 21.138zm21.138-9.138a9.138 9.138 0 1 1 -9.138 9.138 9.148 9.148 0 0 1 9.138-9.138z"/><path d="m200.954 139.928a21.138 21.138 0 1 0 -21.138-21.138 21.163 21.163 0 0 0 21.138 21.138zm0-30.276a9.138 9.138 0 1 1 -9.138 9.138 9.148 9.148 0 0 1 9.138-9.138z"/><path d="m289.908 118.79a21.138 21.138 0 1 0 21.138-21.138 21.163 21.163 0 0 0 -21.138 21.138zm21.138-9.138a9.138 9.138 0 1 1 -9.138 9.138 9.149 9.149 0 0 1 9.138-9.138z"/><path d="m228.477 91.573a21.138 21.138 0 1 0 -21.138-21.137 21.162 21.162 0 0 0 21.138 21.137zm0-30.275a9.138 9.138 0 1 1 -9.138 9.138 9.148 9.148 0 0 1 9.138-9.136z"/><path d="m283.523 91.573a21.138 21.138 0 1 0 -21.138-21.137 21.162 21.162 0 0 0 21.138 21.137zm0-30.275a9.138 9.138 0 1 1 -9.138 9.138 9.148 9.148 0 0 1 9.138-9.136z"/></g></svg>