<svg height="511pt" viewBox="0 -22 511.99984 511" width="511pt" xmlns="http://www.w3.org/2000/svg"><path d="m329.375 84.746094c-2.019531 0-4.023438.207031-5.949219.613281-13.671875 2.898437-24.457031 15.726563-25.085937 29.839844l-.097656 2.183593 2.046874.765626c1.378907.511718 2.589844 1.101562 3.703126 1.792968 4.480468 2.792969 7.480468 8.070313 7.285156 12.832032l-.21875 5.515624 4.746094-2.8125c13.433593-7.953124 27.246093-17.15625 42.226562-28.132812l1.9375-1.421875-.964844-2.203125c-4.898437-11.171875-17.085937-18.972656-29.628906-18.972656zm0 0" fill="#94c668"/><path d="m239.414062 63.621094c-12.65625 3.933594-25.15625 9.316406-37.148437 16.003906l-4.742187 2.644531 4.761718 2.605469c3.511719 1.925781 6.578125 4.433594 9.105469 7.449219.644531.773437 1.246094 1.566406 1.789063 2.351562l1.125 1.621094 1.933593-.390625c9.078125-1.835938 20.371094-4.113281 29.753907-9.863281 3.410156-2.085938 6.425781-4.636719 8.976562-7.597657l.089844-.089843.082031-.09375c4.234375-4.96875 6.796875-10.800781 7.21875-16.414063l.292969-3.945312-3.878906.78125c-6.621094 1.335937-13.132813 3-19.359376 4.9375zm0 0" fill="#94c668"/><g fill="#f7b36f"><path d="m290.359375 403.65625c-68.914063 0-140.511719-11.652344-212.800781-34.636719-10.558594-3.351562-20.769532-6.863281-29.644532-12.878906-5.582031-3.78125-15.316406-11.976563-17.789062-24.394531-.769531-3.871094-.742188-8.011719.085938-12.308594l.882812-4.578125 2.710938 3.792969c15.769531 22.074218 44.296874 31.140625 70.121093 37.09375 51.5 11.863281 104.675781 17.878906 158.050781 17.878906 14.753907 0 29.726563-.464844 44.507813-1.375 66.3125-4.117188 131.257813-17.328125 193.03125-39.261719l3.554687-1.261719-.949218 3.648438c-1.183594 4.5625-2.890625 8.738281-5.074219 12.417969-19.796875 33.324219-74.070313 42.175781-109.980469 48.03125l-1.207031.195312c-31.113281 5.070313-63.246094 7.636719-95.5 7.636719zm0 0"/><path d="m266.875 460.4375c-88.050781 0-161.976562-11.691406-226.003906-35.738281-20.320313-7.632813-31.003906-16.964844-32.65625-28.527344-.5-3.492187-.09375-7.195313 1.207031-11.011719l.863281-2.523437 2.179688 1.535156c25.398437 17.859375 55.5 26.773437 81.59375 33.132813 52.15625 12.714843 106.121094 19.160156 160.394531 19.160156 9.261719 0 18.648437-.191406 27.910156-.566406 62.308594-2.519532 123.644531-13.449219 182.304688-32.484376l2.816406-.914062-.203125 2.957031c-.207031 2.957031-.917969 5.851563-2.113281 8.613281-3.789063 8.820313-11.71875 16.363282-24.238281 23.0625-27.792969 14.832032-60.523438 18.164063-91.667969 20.308594-28.878907 1.988282-56.59375 2.996094-82.371094 2.996094-.003906 0-.007813 0-.015625 0zm0 0"/><path d="m128.316406 208.703125c-20.253906-2.136719-39.585937-6.960937-57.464844-14.339844-21.671874-8.953125-38.605468-21.933593-48.972656-37.542969-12.171875-18.320312-15.050781-40.730468-7.515625-58.484374 8.207031-19.363282 27.148438-31.757813 44.589844-41.324219 26.953125-14.773438 55.933594-26.417969 86.140625-34.617188 27.9375-7.585937 56.796875-12.1875 85.769531-13.675781 9.046875-.464844 17.941407-.703125 26.441407-.703125 35.011718 0 65.328124 3.96875 90.101562 11.792969 6.53125 2.054687 13.15625 4.648437 19.6875 7.707031l-1.230469 3.773437c-26.910156-5.234374-50.847656-7.78125-73.179687-7.78125-25.175782 0-48.378906 3.339844-68.96875 9.921876-30.5 9.753906-59.734375 27.5625-86.882813 52.929687-14.25 13.304687-27.816406 28.523437-41.480469 46.535156l-.238281.308594c-9.847656 12.976563-20.042969 26.402344-10.535156 43.28125 4.714844 8.355469 13.171875 15.324219 25.859375 21.300781 5.574219 2.636719 11.847656 4.996094 18.65625 7.011719zm0 0"/></g><path d="m309.109375 55.101562-3.125-.171874-.011719.914062.007813-.894531-2.953125-.074219c-1.667969-.039062-3.332032-.058594-4.992188-.058594-11.132812 0-22.273437.921875-33.117187 2.738282l-2.464844.414062-.039063 2.503906c-.070312 4.726563-1.695312 9.789063-4.582031 14.253906l-2.214843 3.433594 3.9375 1.085938c5.996093 1.65625 11.539062 5.117187 15.617187 9.753906l1.8125 2.03125 1.515625 2.570312c3.441406 5.824219 4.960938 12.753907 4.28125 19.515626l-.347656 3.445312 3.460937-.148438c.859375-.039062 1.75-.0625 2.660157-.0625 2.335937 0 4.429687.148438 6.40625.449219l3.183593.484375.261719-3.207031c1.121094-13.808594 11.644531-25.886719 25.015625-28.71875.984375-.207031 1.980469-.359375 2.960937-.460937l3.277344-.328126-.632812-3.230468c-1.277344-6.546875-.046875-13.65625 3.386718-19.507813l2.21875-3.785156-4.332031-.695313c-6.949219-1.109374-14.078125-1.867187-21.191406-2.25zm-28.914063 34.097657-.972656.207031.03125-.023438c.3125-.054687.628906-.121093.941406-.183593zm0 0" fill="#c67045"/><path d="m369.40625 67.457031-.144531-.042969c-1.609375-.496093-2.996094-.921874-4.148438-1.320312-9.191406-3.203125-18.710937-5.761719-28.289062-7.605469l-1.875-.359375-1.121094 1.542969c-4.78125 6.582031-6.480469 15.140625-4.542969 22.898437l.523438 2.089844 2.144531.175782c11.277344.914062 21.695313 7.882812 26.539063 17.761718l1.589843 3.238282 2.894531-2.152344c3.683594-2.742188 7.578126-5.691406 11.910157-9.019532 1.125-.867187 2.542969-1.804687 4.089843-2.824218 5.519532-3.636719 13.078126-8.617188 10.882813-13.699219-1.820313-4.234375-9.492187-7.332031-20.453125-10.683594zm0 0" fill="#935252"/><path d="m303.992188 119.949219c-3.882813-2.421875-8.9375-3.597657-15.449219-3.597657-1.210938 0-2.503907.039063-3.960938.117188-1.25.070312-2.503906.15625-3.765625.242188l-.136718.011718c-2.644532.191406-5.378907.390625-8.125.390625h-.003907c-2.988281 0-5.582031-.246093-7.933593-.753906-3.832032-.820313-7.433594-2.425781-10.925782-3.976563-2.949218-1.308593-6.003906-2.660156-9.191406-3.546874-2.71875-.757813-5.566406-1.144532-8.46875-1.144532-5.820312 0-11.664062 1.53125-16.898438 4.429688l-.195312.132812-.222656.082032.175781-.109376-.144531-1.808593c-.527344-6.648438-3.132813-13.070313-7.34375-18.082031-3.386719-4.035157-7.84375-7.21875-12.890625-9.203126l-1.378907-.542968-1.273437.769531c-9.167969 5.550781-17.882813 11.8125-25.910156 18.601563-6.855469 5.792968-13.425781 12.15625-19.53125 18.914062l-1.707031 1.996094 1.664062 1.980468c1.957031 5.046876 7.613281 8.179688 14.78125 8.179688 1.875 0 3.734375-.21875 5.523438-.652344 3.671874-.886718 7.0625-2.34375 10.664062-3.890625 3.71875-1.605469 7.566406-3.265625 11.628906-4.109375 1.433594-.300781 2.925782-.453125 4.433594-.453125 2.128906 0 4.191406.296875 6.132812.882813l2.199219.660156.066407-.109375 2.34375 1.652344c2.277343 1.597656 3.777343 3.652343 4.453124 6.113281.4375 1.578125.507813 3.1875.585938 4.964844.089844 2.132812.179688 4.339844 1.128906 6.273437 1.082032 2.238281 3.023438 3.710938 5.078125 5.269531l.121094.089844c1.292969.980469 2.515625 1.90625 3.5625 3.054688 2.53125 2.746094 3.5625 6.855468 2.761719 10.988281-.195313 1.011719-.496094 1.996094-.898438 2.917969l-2.277344 5.265625 5.625-1.132813c13.347657-2.6875 26.746094-6.648437 39.828126-11.777344 13.292968-5.195312 26.546874-11.554687 40.523437-19.429687l1.445313-.863281.078124-1.65625c3.101563-6.027344-.6875-13.730469-6.171874-17.140625zm-92.191407-2.386719c-.199219.195312-.398437.386719-.59375.585938.195313-.199219.390625-.390626.59375-.585938zm1.152344-1.074219c-.058594.054688-.125.109375-.183594.164063.0625-.054688.121094-.109375.183594-.164063zm-2.289063 2.230469c-.3125.339844-.625.679688-.921874 1.03125.300781-.347656.605468-.691406.921874-1.03125zm-3.296874 4.191406-.6875 1.046875.273437-.4375c.769531-1.234375 1.648437-2.417969 2.605469-3.554687-.789063.945312-1.523438 1.925781-2.191406 2.945312zm0 0" fill="#935252"/><path d="m261.980469 374.628906c-53.453125 0-106.703125-6.027344-158.277344-17.910156-26.4375-6.089844-55.59375-15.417969-71.386719-38.445312l-.757812-1.105469-3.707032-1.773438 1.746094-4.351562c1.882813-4.691407 4.535156-9.125 7.886719-13.171875 8.148437-9.882813 19.433594-16.859375 29.398437-22.378906 49.605469-27.496094 109.75-42.660157 173.929688-43.855469 3.566406-.0625 7.222656-.089844 10.863281-.089844 1.859375 0 3.726563 0 5.585938.019531 72.554687.6875 147.21875 14.695313 210.253906 39.457032 9.640625 3.796874 17.410156 7.449218 23.96875 12.910156 11.726563 9.746094 17.332031 26.457031 14.992187 44.707031l-.390624 3.03125-2.875 1.035156c-62.914063 22.703125-129.082032 36.34375-196.664063 40.539063-14.804687.917968-29.796875 1.382812-44.566406 1.382812zm0 0" fill="#ffeac0"/><path d="m254.53125 437.460938c-54.398438 0-108.472656-6.453126-160.710938-19.1875-26.550781-6.472657-57.160156-15.5625-82.851562-33.921876l-3.742188-2.671874 2.351563-3.953126c1.554687-2.609374 3.410156-5.046874 5.519531-7.242187 6.082032-6.382813 13.988282-11.058594 21.5625-15.300781l2.972656-1.664063 2.636719 2.15625c1.285157 1.046875 2.582031 2.015625 3.964844 2.960938 9.167969 6.222656 20.050781 9.953125 30.414063 13.242187 72.601562 23.082032 144.503906 34.785156 213.707031 34.785156 32.421875 0 64.71875-2.585937 95.996093-7.683593l1.132813-.183594c20.28125-3.308594 45.503906-7.425781 67.871094-16.167969l2.078125-.816406 1.992187 1.003906c.234375.117188.449219.25.667969.402344l.183594.121094c4.714844 3.019531 8.171875 8.414062 9.484375 14.796875l.902343 4.371093-4.246093 1.390626c-59.175781 19.351562-121.089844 30.453124-184.011719 33-9.242188.375-18.621094.5625-27.875.5625zm0 0" fill="#ffeac0"/><path d="m170.507812 212.214844-.710937-.007813c-19.730469-.242187-42.640625-5.417969-59.785156-13.511719-13.074219-6.175781-21.433594-13.078124-26.304688-21.726562-9.824219-17.429688 1.027344-31.734375 10.601563-44.355469l.261718-.34375c13.675782-18.03125 27.269532-33.28125 41.574219-46.640625 27.269531-25.472656 56.628907-43.355468 87.269531-53.15625 13.398438-4.28125 35.027344-9.976562 68.035157-9.976562 26.550781 0 56.949219 3.730468 90.339843 11.082031l1.191407.261719 1.613281-.429688 1.828125 1.121094c3.3125 2.035156 6.578125 4.191406 9.710937 6.417969 4.835938 3.421875 30.253907 25.078125 35.875 33.328125l2.1875 3.214844-2.574218 2.914062c-29.039063 32.851562-63.476563 60.636719-102.355469 82.59375-39.652344 22.382812-82.070313 37.679688-126.078125 45.457031-10.441406 1.84375-20.925781 3.148438-31.15625 3.875l-.925781.0625zm127.589844-159.414063c-20.308594 0-40.25 2.996094-59.277344 8.910157-12.535156 3.898437-24.90625 9.191406-36.769531 15.734374-11.859375 6.542969-23.09375 14.277344-33.398437 22.988282-19.191406 16.222656-35.550782 36.25-47.3125 57.917968l-2.65625 4.894532 5.152344 2.113281c19.070312 7.832031 40.195312 11.804687 62.777343 11.804687 2.257813 0 4.546875-.039062 6.8125-.117187 24.527344-.851563 50.605469-6.429687 75.417969-16.136719 41.640625-16.308594 77.589844-41.839844 107.261719-64.667968 1.113281-.851563 2.558593-1.800782 3.953125-2.714844 3.058594-2.015625 7.242187-4.765625 9.863281-7.917969 1.636719-1.964844 3.320313-4.683594 1.78125-8.257813-2.128906-4.941406-9.882813-8.183593-21.703125-11.8125-1.734375-.519531-3.140625-.96875-4.214844-1.339843-19.246094-6.707031-39.4375-10.496094-59.996094-11.257813-2.5625-.09375-5.148437-.140625-7.691406-.140625zm0 0" fill="#ffeac0"/><path d="m244.492188 108.824219c3.136718.871093 6.179687 2.222656 9.207031 3.5625 3.480469 1.546875 7.082031 3.144531 10.914062 3.972656 2.359375.507813 4.953125.753906 7.925781.753906 2.457032 0 4.980469-.164062 7.351563-.335937l2.425781-.171875.332032-2.414063c1.09375-7.972656-.921876-16.261718-5.523438-22.730468-4.761719-6.707032-12.167969-11.390626-20.320312-12.839844l-1.605469-.28125-1.113281 1.1875c-2.28125 2.4375-5.003907 4.628906-8.097657 6.523437-8.515625 5.222657-18.839843 7.625-27.84375 9.464844l-3.683593.757813 1.554687 3.421874c1.214844 2.683594 2.054687 5.519532 2.496094 8.4375l.570312 3.808594 3.550781-1.484375c4.304688-1.800781 8.96875-2.75 13.492188-2.75 2.875 0 5.691406.375 8.367188 1.117188zm0 0" fill="#ed6d66"/><path d="m219.453125 149.679688c-1.988281-1.5-4.042969-3.054688-5.136719-5.316407-.945312-1.941406-1.039062-4.164062-1.132812-6.324219-.0625-1.625-.128906-3.308593-.578125-4.90625-1.765625-6.351562-8.945313-9.195312-15.28125-9.195312-1.488281 0-2.953125.148438-4.359375.441406-4.035156.839844-7.71875 2.429688-11.621094 4.109375l-.160156.070313c-3.382813 1.445312-6.878906 2.945312-10.503906 3.820312-1.761719.429688-3.597657.644532-5.460938.644532-6.5 0-11.800781-2.535157-14.175781-6.78125l-2.109375-3.773438-2.796875 3.296875c-8.90625 10.5-16.65625 21.78125-23.035157 33.53125l-1.601562 2.941406 3.101562 1.265625c18.777344 7.671875 39.722657 11.5625 62.257813 11.5625 10.707031 0 21.734375-.898437 32.773437-2.679687l.722657-.113281.589843-.4375c2.507813-1.863282 4.25-4.726563 4.898438-8.066407.796875-4.128906-.230469-8.238281-2.753906-10.988281-1.074219-1.171875-2.378906-2.152344-3.636719-3.101562zm0 0" fill="#ed6d66"/><path d="m494.679688 280.085938c-7.109376-5.914063-15.273438-9.761719-25.339844-13.714844-63.578125-24.984375-138.882813-39.117188-212.039063-39.804688-5.527343-.054687-11.109375-.027344-16.582031.074219-65 1.207031-125.949219 16.585937-176.261719 44.472656-10.371093 5.746094-22.144531 13.042969-30.835937 23.570313-4.304688 5.210937-7.519532 10.988281-9.542969 16.90625-.308594.558594-.5 1.160156-.578125 1.78125-2.015625 6.71875-2.484375 13.566406-1.222656 19.929687 1.34375 6.75 4.582031 13.199219 9.40625 18.953125-6.980469 3.980469-14.300782 8.578125-20.214844 14.785156-8.570312 8.984376-12.640625 20.015626-11.175781 30.261719 1.230469 8.574219 6.050781 16.175781 14.328125 22.59375 5.878906 4.5625 13.542968 8.582031 23.433594 12.292969 65 24.410156 139.023437 36.25 228.839843 36.25 26.234375 0 53.820313-1.007812 82.917969-3.011719 32.007812-2.203125 65.695312-5.660156 94.882812-21.242187 14.1875-7.574219 23.289063-16.390625 27.832032-26.957032 4.644531-10.800781 3.632812-25.417968-5.042969-34.40625 15.160156-7.300781 28.265625-17.183593 36.441406-30.941406 12.3125-20.71875 11.53125-54.511718-9.246093-71.792968zm-453.34375 20.964843c7.632812-9.238281 18.425781-15.894531 27.980468-21.191406 48.90625-27.097656 108.265625-42.042969 171.660156-43.21875 3.5625-.066406 7.167969-.097656 10.773438-.097656 1.847656 0 3.695312.007812 5.535156.023437 71.992188.675782 146.054688 14.566406 208.550782 39.113282 9.171874 3.601562 16.523437 7.035156 22.609374 12.09375 11.632813 9.671874 15.542969 24.53125 13.679688 38.851562-.640625-.027344-1.296875.066406-1.933594.296875-51.058594 18.707031-106.484375 31.0625-164.738281 36.726563-54.300781 5.277343-111.390625 4.785156-169.683594-1.457032-43.402343-4.644531-97.242187-14.484375-131.414062-49.277344 1.753906-4.40625 4.207031-8.507812 6.980469-11.863281zm-2.234376 58.496094c1.371094 1.117187 2.804688 2.191406 4.316407 3.21875 9.742187 6.609375 21.011719 10.484375 31.714843 13.882813 73.351563 23.316406 145.398438 35.015624 215.222657 35.015624 32.789062 0 65.089843-2.582031 96.800781-7.746093l1.125-.183594c20.21875-3.292969 46.023438-7.503906 68.898438-16.449219.050781.035156.09375.078125.144531.109375 3.960937 2.414063 6.234375 7.300781 7.070312 12.519531-77.179687 24.585938-162.722656 35.386719-254.289062 32.085938-85.777344-3.089844-148.195313-19.488281-196.121094-51.546875 1.390625-2.480469 3.03125-4.734375 4.722656-6.511719 5.65625-5.9375 13.054688-10.289062 20.394531-14.394531zm423.972657 54.339844c-4.296875 9.839843-13.9375 16.589843-23.089844 21.476562-27.445313 14.652344-59.933594 17.957031-90.859375 20.085938-127.226562 8.761719-224.957031-1.605469-307.550781-32.621094-19.570313-7.347656-29.835938-16.160156-31.378907-26.941406-.261718-1.84375-.175781-3.816407.1875-5.8125 49.261719 32.277343 112.804688 48.800781 199.363282 51.917969 10.851562.390624 21.605468.585937 32.289062.585937 79.320313 0 153.882813-10.773437 222.117188-32.101563-.222656.988282-.492188 1.933594-.828125 2.796876-.082031.207031-.164063.414062-.25.613281zm27.175781-59.789063c-15.128906 17.886719-39.367188 26.125-61.375 31.628906-13.871094 3.472657-27.976562 5.835938-42.074219 8.132813 0 0-1.125.1875-1.125.1875-97.71875 15.914063-201.175781 6.855469-307.496093-26.925781-10.425782-3.3125-20.496094-6.773438-29.140626-12.632813-5.332031-3.617187-14.621093-11.429687-16.949218-23.132812-.457032-2.304688-.5625-4.6875-.402344-7.082031 15.164062 14.042968 34.117188 24.820312 57.648438 32.796874 20.582031 6.976563 44.53125 11.761719 75.371093 15.0625 31.960938 3.425782 63.5625 5.136719 94.570313 5.136719 26.195312 0 51.96875-1.222656 77.144531-3.671875 57.527344-5.589844 112.347656-17.640625 163.046875-35.800781-2.109375 5.992187-5.230469 11.589844-9.21875 16.300781zm0 0"/><path d="m371.457031 60.761719c-1.597656-.492188-2.976562-.914063-4.042969-1.285157-19.714843-6.871093-40.386718-10.75-61.441406-11.527343-23.5625-.871094-46.660156 2.152343-68.640625 8.988281-25.84375 8.039062-50.710937 21.757812-71.90625 39.679688-21.195312 17.917968-38.859375 40.15625-51.082031 64.308593-.617188 1.214844-.707031 2.628907-.257812 3.914063.453124 1.285156 1.40625 2.332031 2.648437 2.894531 21.082031 9.585937 44.554687 14.433594 69.878906 14.433594 2.3125 0 4.640625-.039063 6.980469-.121094 25.09375-.867187 51.746094-6.566406 77.074219-16.480469 42.234375-16.535156 78.542969-42.316406 108.488281-65.355468.929688-.714844 2.25-1.585938 3.652344-2.503907 6.730468-4.433593 17.996094-11.851562 13.484375-22.328125-3.46875-8.066406-15.820313-11.851562-24.835938-14.617187zm-45.734375-.359375c-3.042968 6.257812-4.316406 13.34375-3.574218 20.289062-6.542969 1.789063-12.507813 4.902344-17.304688 9.105469-6.539062 5.730469-10.824219 13.363281-12.152344 21.421875-2.9375-.464844-5.832031-.433594-8.683594-.207031.246094-14.628907-7.832031-29.066407-20.410156-36.523438 2.140625-4.566406 2.988282-9.28125 2.414063-13.78125 19.789062-3.128906 39.824219-3.074219 59.710937-.304687zm-69.484375 24.398437c.644531-.648437 1.246094-1.308593 1.832031-1.976562 10.011719 5.691406 16.410157 17.175781 15.941407 28.6875-.007813.1875.019531.367187.035156.550781-3.078125.242188-5.980469.210938-8.589844-.625-2.035156-.652344-4.058593-1.855469-6.207031-3.132812-1.726562-1.027344-3.515625-2.089844-5.492188-2.988282-9.953124-4.511718-20.621093-3.320312-31.625-.800781-.238281-1.660156-.574218-3.253906-.984374-4.785156 13.039062-.261719 25.875-5.644531 35.089843-14.929688zm-.078125-22.269531c.363282 4.765625-2.203125 10.371094-7.015625 15.222656-8.332031 8.390625-20.339843 12.820313-32.125 11.875-.140625-.011718-.277343.007813-.414062.007813-2.6875-3.910157-6.21875-6.941407-10.164063-8.8125 8.773438-4.703125 17.894532-8.738281 27.285156-12.015625 7.417969-2.589844 14.902344-4.671875 22.433594-6.277344zm-95.988281 107.640625c-11.792969-1.796875-23.398437-4.902344-34.433594-9.445313-.140625-.054687 11.269531-18.226562 12.40625-19.824218 2.871094-4.023438 5.898438-7.9375 9.066407-11.738282 4.367187 4.410157 11.175781 6.75 18.558593 6.179688 5.648438-.425781 10.78125-2.261719 15.746094-4.039062 1.007813-.359376 2.015625-.722657 3.027344-1.070313 4.753906-1.632813 10.277343-3.164063 15.179687-2.097656 3.628906.789062 7.566406 3.878906 7.605469 7.496093.007813.792969-.152344 1.773438-.324219 2.816407-.324218 1.949219-.722656 4.375-.207031 6.984375.984375 4.953125 4.585937 8 7.480469 10.449218 1.378906 1.167969 2.683594 2.269532 3.527344 3.386719 1.980468 2.625 1.878906 6.816407-.222657 9.339844-.308593.367187-.527343.773437-.714843 1.1875-6.816407 1.042969-13.707032 1.765625-20.667969 2.117187-12.027344.601563-24.117188.074219-36.027344-1.742187zm68.625-2.53125c1.0625-4.929687.082031-10.296875-3.007813-14.394531-1.519531-2.011719-3.398437-3.597656-5.054687-5-2.050781-1.734375-3.824219-3.234375-4.125-4.757813-.164063-.824219.042969-2.082031.261719-3.410156.222656-1.355469.476562-2.890625.457031-4.558594-.074219-6.871093-5.417969-14.96875-15.480469-17.15625-7.308594-1.589843-14.492187.328125-20.554687 2.414063-1.050781.359375-2.097657.734375-3.144531 1.109375-4.539063 1.625-8.828126 3.160156-13.132813 3.484375-3.613281.273437-8.574219-.574219-11.171875-3.757813 12.070312-13.082031 25.902344-24.582031 40.992188-34.042969.796874.648438 1.785156 1.070313 2.886718 1.128907 4.140625.21875 8.363282 2.960937 11.023438 7.160156 2.445312 3.855469 3.753906 8.90625 3.886718 15.015625.035157 1.523438.761719 2.949219 1.976563 3.875 1.214844.917969 2.785156 1.234375 4.265625.859375 11.230469-2.882813 22.035156-5.140625 30.753906-1.183594 1.476563.667969 2.953125 1.546875 4.515625 2.476563 2.53125 1.5 5.144531 3.054687 8.253907 4.054687 6.003906 1.933594 11.894531 1.21875 17.597656.53125 4.636718-.5625 9.015625-1.089843 12.84375-.050781 7.355468 2.003906 11.800781 9.671875 13.023437 16.53125-24.285156 13.355469-50.054687 23.992188-77.066406 29.671875zm86.125-34.824219c-2.144531-7.585937-6.730469-14.019531-12.609375-17.886718.46875-6.453126 3.832031-12.976563 9.121094-17.613282 5.253906-4.601562 12.429687-7.519531 20.203125-8.214844 4.089843-.371093 7.371093-.019531 10.015625 1.058594 2.324218.945313 4.667968 2.660156 7.382812 5.394532 2.738282 2.757812 5.15625 5.824218 7.238282 9.097656-7.660157 5.867187-15.320313 11.765625-23.402344 17.042968-5.882813 3.84375-11.867188 7.558594-17.949219 11.121094zm62.382813-43.464844c-4.441407 2.925782-8.761719 6.050782-13.039063 9.246094-2.367187-3.621094-5.082031-7.015625-8.132813-10.089844-3.695312-3.71875-7.097656-6.136718-10.703124-7.609374-3.84375-1.5625-8.246094-2.160157-13.402344-1.84375-.503906-5.914063.984375-11.933594 4.171875-16.941407 7.160156 1.339844 14.289062 3.011719 21.371093 5.015625 5.898438 1.664063 11.765626 3.457032 17.589844 5.371094 3.574219 1.175781 10.308594 3.023438 11.949219 6.832031 1.195313 2.777344-5.960937 7.488281-9.804687 10.019531zm0 0"/><path d="m32.386719 176.664062c7.847656 7.464844 17.1875 15.722657 26.949219 20.378907 34.667968 16.523437 72.828124 18.875 102.699218 18.875.753906 0 1.5-.003907 2.242188-.003907 37.585937-.144531 68.804687-5.21875 98.246094-15.980468 1.277343-.464844 2.550781-.9375 3.820312-1.421875 48.875-18.574219 95.617188-47.535157 135.179688-83.757813 1.746093-1.601562 11.386718-11.058594 20.535156-20.335937 19.292968-19.5625 19.292968-20.578125 19.289062-23.03125 0-1.402344-.621094-2.824219-1.660156-3.773438-40.367188-36.847656-96.148438-60.199219-157.070312-65.753906-52.574219-4.792969-109.527344 3.097656-169.277344 23.453125-14.421875 4.910156-26.847656 9.921875-37.988282 15.316406-23.378906 11.3125-42.265624 25.476563-57.734374 43.300782-14.683594 16.917968-16.882813 42.714843-5.597657 65.71875 4.660157 9.503906 11.511719 18.589843 20.367188 27.015624zm362.382812-69.285156c-38.636719 35.375-84.273437 63.65625-131.976562 81.785156-1.230469.46875-2.46875.929688-3.703125 1.378907-28.320313 10.351562-58.457032 15.234375-94.851563 15.371093-9.050781.035157-18.9375-.128906-29.28125-.851562-5.160156-3.046875-13.4375-5.308594-15.234375-6.152344-10.644531-5.003906-20.660156-11.332031-30.03125-18.425781-2.433594-1.84375-5.160156-4.03125-6.671875-6.65625-2.824219-4.910156-2.058593-11.992187 2.347657-21.644531 12.410156-27.210938 34.472656-52.234375 67.457031-76.5 22.765625-16.753906 44.136719-28.496094 65.328125-35.902344 42.539062-14.863281 95.457031-15.824219 157.367187-2.867188 19.964844 9.429688 38.214844 21.21875 54.101563 35.113282-7.601563 8.542968-30.851563 31.6875-34.851563 35.351562zm-369.597656-16.894531c14.5625-16.773437 32.402344-30.140625 54.535156-40.851563 10.773438-5.214843 22.828125-10.074218 36.859375-14.851562 58.414063-19.898438 113.976563-27.628906 165.144532-22.960938 15.074218 1.375 29.808593 3.882813 44.046874 7.4375-37.324218-3.363281-75.457031-1.300781-110.902343 11.085938-22.148438 7.738281-44.378907 19.933594-67.960938 37.285156-34.386719 25.304688-57.492187 51.605469-70.625 80.40625-5.839843 12.800782-6.464843 22.867188-1.914062 30.777344 2.328125 4.050781 5.84375 7.03125 9.300781 9.648438 5.417969 4.101562 10.910156 8.167968 16.65625 11.820312-12.355469-2.683594-24.765625-6.589844-36.671875-12.265625-8.496094-4.050781-17.082031-11.675781-24.363281-18.597656-7.992188-7.605469-14.144532-15.734375-18.28125-24.167969-9.507813-19.390625-7.871094-40.886719 4.175781-54.765625zm0 0"/></svg>